<svg width="600" height="400" viewBox="0 0 600 400" fill="none" xmlns="http://www.w3.org/2000/svg">
<path d="M336.799 361.397C336.971 361.166 336.906 360.731 336.877 360.367C336.641 361.015 336.454 361.681 336.317 362.357C336.428 362.014 336.59 361.689 336.799 361.396V361.397ZM334.266 375.904C334.255 376.226 334.316 376.547 334.446 376.841C334.575 377.136 334.768 377.397 335.012 377.605C335.012 376.789 335.028 376.18 335.009 375.573C334.787 373.154 334.896 370.716 335.332 368.327C335.802 366.375 335.908 364.324 336.317 362.356C336.114 362.928 335.989 363.525 335.745 364.076C334.204 367.811 333.693 371.899 334.266 375.904ZM351.248 366.872C351.225 366.842 351.199 366.815 351.171 366.79C351.183 366.823 351.197 366.855 351.212 366.886L351.248 366.872ZM351.248 366.873L351.212 366.886C351.337 367.021 351.488 367.129 351.655 367.205C351.619 367.12 351.563 367.046 351.492 366.988C351.421 366.93 351.338 366.89 351.248 366.872V366.873ZM253.707 74.292C253.823 74.2954 253.938 74.2753 254.045 74.2328C254.153 74.1904 254.251 74.1264 254.334 74.0448C254.416 73.9632 254.482 73.8656 254.526 73.7578C254.571 73.65 254.593 73.5343 254.592 73.4175C254.614 73.1857 254.63 72.9535 254.639 72.7209C254.716 70.7105 254.821 68.7011 254.849 66.6917C254.931 66.2602 254.901 65.8143 254.76 65.3983C254.62 64.9823 254.374 64.6106 254.048 64.3201C253.118 65.9672 253.548 67.64 253.219 69.1707C253.012 70.5513 252.934 71.9485 252.986 73.3437C252.975 73.8022 253.052 74.321 253.707 74.292ZM240.635 31.135C241.091 31.0232 241.174 30.5983 241.159 30.2181C241.109 28.9132 241.019 27.6105 240.942 26.3079C241.137 24.8576 241.143 23.3877 240.96 21.9358C240.907 21.5087 240.875 20.9317 240.231 21.0066C239.776 21.0592 239.726 21.5109 239.688 21.8978C239.552 23.2731 239.359 24.6451 239.302 26.0239C239.073 27.5481 239.243 29.1064 239.795 30.5435C239.974 30.9013 240.174 31.2479 240.636 31.135H240.635ZM353.499 76.1302C353.521 76.7499 353.576 77.368 353.663 77.9819C353.668 78.0797 353.691 78.1755 353.733 78.2638C353.775 78.3522 353.833 78.4313 353.905 78.4966C353.978 78.5619 354.062 78.6121 354.153 78.6443C354.245 78.6765 354.341 78.69 354.438 78.6841C354.919 78.6551 355.08 78.2715 355.085 77.8723C355.12 75.8556 354.973 73.8398 354.647 71.8499C354.488 70.9039 354.725 69.8271 353.873 68.8722C353.573 69.2314 353.361 69.6568 353.254 70.114C353.147 70.5712 353.148 71.0475 353.257 71.5044C353.323 73.0474 353.409 74.5883 353.499 76.1302ZM382.074 89.2754C382.68 89.3079 382.835 88.8215 382.837 88.3395C382.824 85.7491 382.601 83.1642 382.169 80.6107C381.395 80.8489 381.277 81.2224 381.208 81.5959C380.78 83.9127 381.299 86.2139 381.334 88.524C381.334 88.7226 381.412 88.913 381.55 89.0538C381.689 89.1946 381.878 89.2743 382.074 89.2754ZM296.17 69.0298C296.918 68.9628 296.834 68.3198 296.848 67.7887C296.894 66.022 296.929 64.2541 296.982 62.4874C296.996 62.0944 296.918 61.7035 296.754 61.3471C296.59 60.9907 296.343 60.679 296.036 60.4378C295.228 62.8453 294.972 65.4074 295.29 67.9296C295.317 68.4596 295.428 69.0947 296.17 69.0298ZM218.878 82.4658C219.356 82.4423 219.456 81.9962 219.459 81.6137C219.478 79.3774 219.48 77.1407 219.466 74.9036C219.45 74.5939 219.383 74.2891 219.266 74.0024C219.135 73.6434 218.957 73.2688 218.483 73.3113C217.986 73.356 217.906 73.7631 217.899 74.1533C217.882 75.3084 217.894 76.4646 217.894 77.6196L218.074 77.623C218.015 78.4683 217.997 79.3193 217.878 80.1556C217.789 80.6904 217.87 81.24 218.109 81.7256C218.274 82.061 218.438 82.487 218.878 82.4658ZM394.896 72.5029C395.297 72.4582 395.46 72.0142 395.493 71.6262C395.798 69.1023 395.799 66.5502 395.496 64.026C395.437 63.6414 395.275 63.2925 394.434 62.9884C394.344 65.1766 394.271 67.1435 394.177 69.1104C394.136 69.9546 393.997 70.7977 394.014 71.6374C394.008 71.7549 394.027 71.8725 394.069 71.9821C394.111 72.0917 394.177 72.1908 394.26 72.2728C394.344 72.3548 394.444 72.4178 394.553 72.4575C394.663 72.4971 394.78 72.5126 394.896 72.5029ZM371.309 61.1836C371.506 61.7226 371.425 62.6071 372.292 62.4885C372.985 62.3946 372.863 61.6745 372.825 61.1467C372.685 58.9851 372.377 56.8379 371.904 54.7251C371.782 54.1928 371.783 53.4392 370.769 53.2088C370.563 55.7694 371.28 58.1098 371.205 60.4982C371.196 60.7313 371.231 60.9638 371.309 61.1836ZM271.77 56.7244C271.831 57.3282 272.101 58.0528 272.83 58.0304C272.986 58.0254 273.139 57.9869 273.279 57.9174C273.419 57.8479 273.542 57.7489 273.641 57.6272C273.741 57.5055 273.813 57.3638 273.853 57.2116C273.894 57.0594 273.902 56.9001 273.877 56.7445C273.727 54.837 273.552 52.9315 273.355 51.0284C273.34 50.8721 273.276 50.7249 273.171 50.6089C273.066 50.493 272.927 50.4145 272.774 50.3854C272.582 50.3588 272.387 50.405 272.226 50.5153C272.066 50.6256 271.951 50.792 271.905 50.9825C271.66 51.8254 271.606 52.7131 271.746 53.5801C271.746 54.8861 271.677 55.8131 271.77 56.7244ZM317.16 92.261C317.669 92.0832 317.725 91.5901 317.677 91.0981C317.666 91.0131 317.662 90.9276 317.663 90.842C317.767 88.5229 316.69 86.6377 316.509 84.5769C316.496 84.4193 316.425 84.2721 316.311 84.1636C316.198 84.0551 316.048 83.9928 315.892 83.9887C315.405 83.9686 315.214 84.3343 315.228 84.7357C315.355 87.0351 315.665 89.3204 316.153 91.5699C316.162 91.6876 316.198 91.8015 316.256 91.9035C316.315 92.0054 316.396 92.0928 316.492 92.1591C316.589 92.2254 316.699 92.2689 316.814 92.2866C316.93 92.3042 317.049 92.2954 317.16 92.261Z" fill="#3C4048"/>
<path d="M424.672 180.418C423.71 179.378 423.007 178.044 421.562 177.537L421.558 177.515C421.596 176.191 420.609 175.453 419.866 174.61C417.16 171.537 414.436 168.475 411.764 165.379C406.939 160.051 401.761 155.06 396.266 150.443C392.963 147.42 389.494 144.587 385.875 141.959C383.221 140.105 380.681 138.057 377.912 136.4C371.565 132.604 364.965 129.27 358.334 126.012C351.755 122.796 344.662 120.792 337.387 120.093C333.188 119.618 329.028 118.833 324.941 117.745C321.544 116.791 318.208 115.626 314.953 114.259C313.173 113.508 311.239 113.207 309.318 113.381C308.156 113.558 306.974 113.559 305.812 113.384C305.942 111.339 306.069 109.412 306.188 107.483C306.294 105.778 306.483 104.071 306.471 102.366C306.499 102.004 306.428 101.641 306.267 101.317C306.105 100.993 305.859 100.72 305.554 100.528C305.25 100.336 304.899 100.232 304.54 100.227C304.181 100.222 303.828 100.317 303.518 100.501C303.091 100.685 302.725 100.991 302.466 101.381C302.206 101.77 302.064 102.227 302.055 102.697C301.635 106.01 301.094 109.313 300.851 112.64C300.751 114.006 300.219 114.4 299.081 114.481C297.853 114.57 296.628 114.72 295.4 114.75C292.944 114.934 290.477 114.942 288.019 114.775C281.643 113.951 275.217 113.593 268.791 113.704C265.245 113.676 261.723 114.296 258.396 115.535C253.449 117.573 248.476 119.619 244.074 122.798C243.068 123.612 241.93 124.247 240.712 124.674C235.901 126.019 231.253 127.906 226.857 130.298C222.731 132.538 218.496 134.607 214.569 137.167C207.834 141.483 201.328 146.155 195.079 151.163C188.697 156.152 182.857 161.812 177.657 168.047C176.927 168.96 175.843 169.502 175.275 170.554C175.09 170.898 174.855 171.24 175.116 171.631C175.426 172.094 175.916 172.014 176.368 171.974C176.704 171.946 176.875 171.672 177.063 171.423C177.499 170.886 178.062 170.467 178.7 170.206C179.338 169.944 180.03 169.848 180.714 169.926C181.709 169.937 182.706 169.812 183.704 169.749C183.733 169.795 183.77 169.834 183.815 169.864C183.86 169.893 183.91 169.913 183.963 169.921C184.016 169.929 184.07 169.926 184.122 169.911C184.173 169.896 184.221 169.87 184.261 169.835C186.41 169.798 188.55 170.262 190.704 169.943L191.743 170.001L191.873 170.141L192.008 170.003L192.7 169.989C193.534 170.316 194.429 170.454 195.321 170.391C201.048 171.176 206.667 172.62 212.069 174.696C213.184 175.502 214.677 175.517 215.719 176.474L215.815 176.545C216.309 177.099 216.954 177.601 216.494 178.494C216.067 179.013 215.046 179.376 216.032 180.27C216.599 180.896 216.77 180.904 217.065 180.319C218.865 178.116 221.128 176.365 222.858 174.073C226.232 169.626 229.896 165.411 233.824 161.457C234.178 161.099 234.454 160.533 235.373 160.794C230.144 166.234 225.224 171.969 220.638 177.972C226.164 177.913 231.386 178 236.593 178.317C243.815 178.753 251.028 179.329 258.239 179.921C260.995 180.017 263.736 180.394 266.417 181.046C267.822 181.455 269.372 182.05 270.935 181.387C271.038 181.35 271.147 181.339 271.255 181.354C271.363 181.369 271.466 181.41 271.555 181.473C272.49 182.624 273.858 182.531 275.105 182.822C276.299 183.101 277.487 183.431 278.649 183.824C279.679 184.17 280.997 184.274 280.817 185.95C280.784 186.256 281.101 186.463 281.453 186.495C281.606 186.512 281.761 186.48 281.896 186.404C282.031 186.329 282.139 186.213 282.206 186.072C282.323 185.788 282.4 185.489 282.435 185.183C283.131 181.154 284.028 177.162 285.121 173.223C286.131 169.963 287.12 166.696 288.166 163.447C288.327 162.953 288.292 162.172 289.357 162.137C288.652 164.354 287.975 166.472 287.305 168.592C285.925 172.875 284.78 177.232 283.876 181.642C283.332 184.373 284.049 184.039 285.865 183.89C288.771 183.596 291.696 183.532 294.613 183.696L294.768 185.918L294.699 186.667C294.642 186.696 294.591 186.737 294.55 186.786C294.509 186.836 294.478 186.894 294.461 186.956C294.443 187.019 294.439 187.084 294.448 187.148C294.456 187.212 294.478 187.274 294.512 187.329L294.46 188.246C294.332 189.682 294.163 191.123 294.047 192.548C293.219 202.694 292.512 212.85 291.851 223.01C291.431 229.504 290.764 235.985 290.679 242.501C290.513 243.902 290.026 245.284 290.429 246.72L290.326 247.18C290.032 248.72 289.988 250.297 290.193 251.851C290.057 252.15 289.826 252.439 290.105 252.779L290.138 254.56C289.463 254.568 288.79 254.63 288.125 254.746C287.684 254.871 287.302 255.151 287.047 255.536C286.791 255.92 286.679 256.384 286.731 256.844C286.717 257.574 287.273 257.638 287.855 257.482C290.371 258.696 293.403 257.994 295.807 259.656C293.551 259.412 291.328 259.008 289.111 258.582C287.684 258.31 287.346 258.604 287.294 260.055C287.25 260.405 287.333 260.76 287.527 261.054C287.722 261.347 288.014 261.56 288.351 261.654C289.073 261.897 289.848 261.976 290.587 262.175C292.22 262.487 293.807 263.008 295.309 263.727C294.994 263.873 294.651 263.948 294.305 263.948C293.959 263.949 293.616 263.874 293.301 263.729C292.025 263.446 290.741 263.193 289.483 262.838C288.725 262.623 288.329 262.815 288.134 263.574C288.075 263.718 288.05 263.874 288.059 264.03C288.069 264.186 288.113 264.338 288.188 264.474C288.264 264.61 288.369 264.727 288.495 264.817C288.622 264.906 288.767 264.966 288.919 264.991C289.948 265.308 290.983 265.598 292.006 265.928C292.916 266.221 293.973 266.216 294.66 267.198C293.257 267.137 291.871 266.868 290.545 266.399C290.189 266.31 289.765 266.187 289.47 266.539C289.341 266.688 289.276 266.883 289.289 267.08C289.302 267.278 289.392 267.462 289.539 267.593C290.774 268.767 290.406 270.225 290.078 271.521C289.426 274.559 289.091 277.658 289.081 280.767C289.017 281.932 288.709 283.071 288.177 284.107C287.645 285.142 286.902 286.052 285.995 286.775C285.562 287.191 285.03 287.487 284.45 287.632C283.87 287.777 283.262 287.768 282.687 287.604C282.112 287.441 281.589 287.129 281.169 286.699C280.749 286.27 280.447 285.737 280.292 285.153C279.8 283.769 279.587 282.299 279.663 280.829C279.745 279.357 279.951 277.907 280.091 276.446C280.193 275.394 280.091 274.686 278.788 274.568C277.519 274.395 276.26 274.154 275.016 273.847C274.548 274.789 274.253 275.81 274.146 276.859C273.368 280.618 273.044 284.328 274.536 288.072C275.472 290.614 277.215 292.77 279.492 294.204C280.545 294.809 281.712 295.183 282.917 295.301C284.122 295.419 285.339 295.277 286.486 294.886C287.634 294.496 288.687 293.864 289.576 293.033C290.465 292.202 291.171 291.19 291.647 290.064C292.516 288.075 293.154 285.99 293.549 283.852C293.893 282.1 294.585 280.255 294.314 278.585C294.012 276.734 294.931 275.102 294.594 273.352L294.701 272.886C295.1 272.325 294.587 271.534 295.124 270.974C296.117 272.116 296.097 272.112 295.942 273.131C295.64 275.118 295.261 277.089 295.07 279.1C294.82 282.587 294.123 286.027 292.996 289.332C292.404 290.926 291.982 292.58 291.738 294.265C290.635 301.511 291.254 308.917 293.542 315.873C293.829 316.757 293.924 317.693 293.822 318.618C293.761 319.289 293.39 319.978 293.805 320.658C293.701 321.719 293.745 322.789 293.936 323.838C293.822 324.38 293.826 324.941 293.947 325.481L293.78 325.451L293.947 325.495L293.952 325.481L293.927 325.604L294.02 325.686C294.007 325.745 293.971 325.811 293.986 325.864C294.02 325.973 294.062 326.08 294.111 326.184C294.116 326.985 293.765 327.805 294.228 328.584C294.164 329.189 294.231 329.801 294.424 330.377L294.474 331.327C294.452 331.38 294.441 331.437 294.441 331.495C294.472 331.598 294.509 331.699 294.552 331.797C294.468 332.295 294.534 332.807 294.742 333.266C294.9 336.512 295.223 339.747 295.712 342.958C296.526 350.522 298.333 357.908 299.455 365.415C299.958 368.788 300.627 372.137 301.203 375.501C301.285 375.703 301.297 375.928 301.237 376.138C301.178 376.348 301.05 376.532 300.875 376.66C300.625 376.671 300.25 376.71 299.875 376.705C294.044 376.623 288.215 376.527 282.385 376.452C276.652 376.378 270.92 376.335 265.187 376.254C263.491 376.232 263.496 376.127 263.313 374.367C263.002 370.468 263.105 366.547 263.623 362.671C264.076 358.504 264.862 354.324 265.673 350.18C267.111 342.872 268.119 335.484 268.691 328.055C268.958 324.964 269.063 321.861 269.007 318.759C268.884 314.42 268.686 310.082 268.414 305.747C268.157 301.643 267.992 297.528 267.42 293.447C267.552 292.84 267.514 292.208 267.309 291.622C267.417 291.444 267.461 291.234 267.433 291.027C267.404 290.82 267.305 290.63 267.152 290.489L266.579 291.121C266.77 290.911 266.961 290.7 267.152 290.489C267.277 289.766 267.24 289.023 267.041 288.317C266.958 285.615 266.697 282.922 266.26 280.255C266.03 278.473 266.017 278.47 267.67 278.064C267.976 278.04 268.28 277.998 268.581 277.937C269.943 277.407 271.307 276.873 272.639 276.275C273.274 275.991 273.226 275.365 272.935 274.877C272.879 274.796 272.805 274.729 272.72 274.681C272.634 274.633 272.539 274.604 272.442 274.599C272.344 274.593 272.246 274.61 272.156 274.647C272.065 274.685 271.985 274.743 271.919 274.817C271.146 275.327 270.269 275.655 269.354 275.775C267.183 276.461 267.153 276.421 266.723 274.099C266.667 273.795 266.652 273.483 266.61 273.103C267.959 272.566 269.295 272.009 270.651 271.504C270.935 271.373 271.255 271.347 271.555 271.431C271.856 271.515 272.117 271.703 272.294 271.962C272.595 272.347 272.922 273.002 273.573 272.5C274.217 272.005 273.891 271.378 273.639 270.812C273.482 270.461 273.237 270.151 273.075 269.802C272.358 268.59 271.837 267.269 271.533 265.891C272.026 265.865 272.521 265.868 273.013 265.9C274.235 266.054 275.461 266.212 276.671 266.442C279.89 267.057 280.098 267.509 278.68 270.597C278.614 270.738 278.542 270.876 278.465 271.011C278.261 271.372 278.163 271.738 278.531 272.047C278.928 272.382 279.29 272.114 279.52 271.839C280.077 271.223 280.569 270.55 280.987 269.831C281.205 269.441 281.342 269.01 281.39 268.564C281.438 268.119 281.396 267.668 281.267 267.24C281.138 266.811 280.924 266.413 280.638 266.071C280.352 265.728 280.001 265.448 279.605 265.247C278.86 264.829 278.027 264.599 277.175 264.576C275.331 264.491 273.536 263.985 271.676 264.028C271.433 264.054 271.188 264.011 270.967 263.904C270.746 263.798 270.559 263.632 270.426 263.424C270.293 263.217 270.219 262.976 270.213 262.729C270.206 262.482 270.268 262.238 270.39 262.024C270.541 261.685 270.899 261.447 271.107 261.126C271.833 260.135 272.372 259.017 272.695 257.828C273.567 254.354 273.692 250.732 273.06 247.206C272.831 246.054 273.082 245.532 274.334 245.367C275.226 245.272 276.076 244.934 276.793 244.388C277.509 243.841 278.065 243.108 278.4 242.267C279.259 240.352 279.587 238.236 279.348 236.147C279.109 234.058 278.314 232.074 277.046 230.407C276.715 229.995 276.472 229.519 276.33 229.008C276.188 228.498 276.151 227.963 276.221 227.438C276.326 226.373 276.812 225.325 276.456 224.225C276.558 224.017 276.606 223.786 276.595 223.554C276.583 223.323 276.514 223.097 276.392 222.9C276.423 222.346 276.461 221.788 275.826 221.509L275.502 220.961L275.537 220.766L275.342 220.699L275.21 220.57C275.038 220.27 274.799 220.014 274.513 219.823C274.227 219.632 273.9 219.511 273.56 219.469C272.607 219.413 272.563 218.954 272.616 218.112C272.712 216.599 272.944 215.03 272.099 213.611L271.953 213.047C272.082 212.778 271.968 212.624 271.716 212.536C271.689 212.249 271.582 211.976 271.408 211.749C271.233 211.521 270.998 211.348 270.731 211.25L270.66 211.198C270.661 211.147 270.651 211.096 270.631 211.05C270.61 211.003 270.58 210.962 270.542 210.928C270.504 210.895 270.459 210.87 270.411 210.856C270.362 210.842 270.311 210.839 270.262 210.848L270.15 210.747C269.908 210.171 269.362 210.087 268.86 209.931L268.719 209.824C268.245 209.438 267.677 209.189 267.075 209.104C266.472 209.018 265.858 209.1 265.298 209.339L265.196 209.362C264.785 209.25 264.567 209.513 264.364 209.802L264.281 209.832C263.996 209.84 263.72 209.926 263.479 210.079C263.239 210.233 263.044 210.449 262.915 210.704L262.876 210.729C262.817 210.716 262.755 210.717 262.696 210.731C262.637 210.746 262.582 210.774 262.535 210.813C262.489 210.853 262.452 210.902 262.427 210.959C262.402 211.015 262.39 211.076 262.393 211.137L262.388 211.142C262.222 211.141 262.061 211.193 261.926 211.29C261.791 211.388 261.69 211.525 261.636 211.684L261.523 211.771C261.472 211.759 261.418 211.759 261.366 211.771C261.314 211.784 261.266 211.809 261.226 211.844C261.185 211.878 261.153 211.922 261.133 211.972C261.112 212.022 261.104 212.075 261.108 212.129L261.053 212.179C260.308 212.809 259.699 213.586 259.263 214.463C259.233 214.466 259.205 214.476 259.179 214.491C259.154 214.507 259.132 214.529 259.116 214.554C259.1 214.579 259.09 214.608 259.086 214.638C259.082 214.668 259.085 214.698 259.095 214.727C258.828 214.886 258.603 215.106 258.436 215.369C258.269 215.632 258.165 215.931 258.132 216.242C257.943 217.446 257.09 218.152 256.529 219.216C256.298 218.841 255.995 218.516 255.636 218.263C255.278 218.01 254.873 217.833 254.445 217.743C254.017 217.652 253.576 217.651 253.147 217.738C252.719 217.826 252.312 218 251.952 218.251L251.801 218.285C251.511 218.253 251.218 218.314 250.965 218.46C250.711 218.605 250.509 218.827 250.387 219.095L250.367 219.106C250.292 219.093 250.214 219.096 250.139 219.116C250.065 219.136 249.996 219.172 249.937 219.223C249.878 219.273 249.831 219.336 249.798 219.406C249.766 219.477 249.75 219.554 249.75 219.632C249.401 219.892 249.156 220.271 249.061 220.7C248.914 220.758 248.791 220.865 248.712 221.004C248.634 221.143 248.605 221.305 248.63 221.462C248.568 221.483 248.517 221.527 248.487 221.586C248.456 221.644 248.45 221.712 248.469 221.775C248.008 221.994 247.614 222.265 247.61 222.856L247.132 223.759C246.98 223.757 246.832 223.812 246.717 223.913C246.602 224.014 246.527 224.154 246.508 224.307L246.226 224.73C246.169 224.737 246.114 224.755 246.065 224.785C246.015 224.814 245.972 224.853 245.939 224.9C245.905 224.947 245.881 225 245.869 225.057C245.856 225.113 245.855 225.172 245.866 225.228L245.8 225.323C245.752 225.321 245.705 225.329 245.661 225.347C245.618 225.365 245.578 225.394 245.547 225.43C245.516 225.466 245.493 225.509 245.481 225.555C245.468 225.601 245.467 225.65 245.476 225.697L245.353 225.725L245.333 225.851C245.29 225.842 245.245 225.844 245.203 225.856C245.161 225.868 245.122 225.891 245.09 225.921C245.058 225.952 245.034 225.99 245.02 226.032C245.005 226.074 245.001 226.119 245.008 226.163L244.891 226.186L244.869 226.304C244.824 226.3 244.779 226.305 244.737 226.319C244.694 226.334 244.656 226.358 244.623 226.389C244.591 226.42 244.565 226.458 244.548 226.499C244.531 226.541 244.524 226.587 244.526 226.632L244.404 226.717C244.132 226.689 243.997 226.817 243.99 227.09L243.935 227.146C243.88 227.141 243.825 227.148 243.772 227.166C243.72 227.184 243.672 227.214 243.632 227.252C243.592 227.291 243.561 227.338 243.54 227.39C243.52 227.442 243.51 227.497 243.513 227.553L243.463 227.593C243.345 227.58 243.227 227.612 243.131 227.683C243.036 227.754 242.97 227.859 242.948 227.977L242.527 228.189C242.274 228.109 242.145 228.234 242.077 228.464L242.044 228.481C241.87 228.462 241.695 228.496 241.541 228.577C241.386 228.659 241.258 228.785 241.175 228.94L241.13 228.958C240.952 228.91 240.763 228.929 240.597 229.012C240.432 229.095 240.302 229.236 240.232 229.408C236.413 231.281 233.936 234.158 233.707 238.839C233.291 238.614 232.9 238.346 232.539 238.039C232.149 237.561 231.784 237.063 231.444 236.548C231.021 235.957 230.873 234.782 229.946 235.103C229.111 235.391 229.615 236.472 229.511 237.197C229.416 238.01 229.535 238.833 229.856 239.584C230.178 240.335 230.69 240.987 231.34 241.473C231.848 241.932 232.632 241.959 233.06 242.543C232.121 244.331 231.691 246.348 231.819 248.368C231.947 250.389 232.627 252.333 233.785 253.986C235.719 256.901 238.51 259.127 241.764 260.351C242.933 260.68 243.976 261.359 244.757 262.298C246.603 264.6 249.375 264.937 252.171 263.432C252.872 263.054 253.264 263.1 253.707 263.696C253.952 263.991 254.212 264.272 254.488 264.538L254.455 264.695L254.606 264.766L254.672 264.921L255.124 266.319L254.996 266.773C252.952 266.818 250.943 267.321 249.114 268.246L249.002 268.293C248.832 268.268 248.658 268.29 248.499 268.356C248.341 268.422 248.202 268.531 248.099 268.669L248.055 268.681C247.877 268.632 247.687 268.648 247.519 268.725C247.351 268.803 247.215 268.937 247.135 269.105L247.119 269.112C246.883 269.061 246.637 269.086 246.416 269.182C246.194 269.278 246.007 269.441 245.881 269.649L245.782 269.7C245.726 269.689 245.668 269.69 245.612 269.702C245.556 269.715 245.504 269.739 245.458 269.774C245.412 269.809 245.374 269.853 245.346 269.903C245.318 269.954 245.301 270.009 245.295 270.067L245.281 270.078C245.116 270.085 244.956 270.135 244.816 270.223C244.676 270.312 244.561 270.435 244.483 270.581L244.378 270.619C244.213 270.591 244.043 270.618 243.895 270.696C243.746 270.773 243.627 270.898 243.555 271.05L243.451 271.095C243.285 271.058 243.111 271.079 242.959 271.155C242.806 271.23 242.683 271.356 242.61 271.511L242.533 271.56C242.379 271.546 242.224 271.583 242.092 271.664C241.959 271.745 241.856 271.867 241.797 272.012L241.665 272.027L241.624 272.155C241.58 272.145 241.534 272.144 241.49 272.154C241.446 272.164 241.405 272.184 241.37 272.211C241.334 272.239 241.305 272.274 241.284 272.315C241.264 272.355 241.252 272.4 241.251 272.445L241.155 272.502C241.098 272.489 241.04 272.487 240.983 272.498C240.926 272.508 240.872 272.531 240.824 272.565C240.777 272.598 240.737 272.641 240.707 272.691C240.677 272.742 240.658 272.798 240.652 272.856L240.644 272.861C240.512 272.839 240.376 272.869 240.265 272.946C240.155 273.022 240.077 273.139 240.05 273.272C239.986 273.261 239.921 273.276 239.867 273.312C239.813 273.348 239.774 273.404 239.759 273.467C239.705 273.451 239.648 273.447 239.592 273.456C239.537 273.465 239.484 273.488 239.438 273.521C239.393 273.555 239.355 273.599 239.33 273.649C239.304 273.7 239.29 273.756 239.289 273.813L239.267 273.829C239.208 273.821 239.148 273.826 239.091 273.843C239.033 273.86 238.98 273.889 238.935 273.927C238.89 273.966 238.853 274.015 238.827 274.069C238.801 274.123 238.787 274.182 238.785 274.242L238.779 274.249C238.719 274.247 238.659 274.258 238.602 274.28C238.546 274.302 238.494 274.335 238.451 274.377C238.407 274.419 238.372 274.47 238.348 274.526C238.324 274.582 238.311 274.642 238.31 274.703L238.308 274.705C238.084 274.76 237.88 274.875 237.716 275.038C237.552 275.201 237.434 275.406 237.377 275.631C237.212 275.639 237.053 275.697 236.923 275.799C236.792 275.901 236.696 276.041 236.647 276.2L236.54 276.298C236.307 276.291 236.197 276.404 236.209 276.639C236.138 276.656 236.076 276.698 236.035 276.758C235.993 276.818 235.974 276.891 235.981 276.964C235.766 277.056 235.572 277.192 235.413 277.365C235.254 277.537 235.132 277.742 235.056 277.965C234.984 277.963 234.913 277.978 234.847 278.008C234.781 278.038 234.722 278.082 234.675 278.137C234.627 278.192 234.593 278.257 234.573 278.328C234.553 278.398 234.549 278.472 234.561 278.544L234.2 278.999C233.484 279.245 232.754 279.46 232.051 279.745C229.118 280.935 225.912 281.598 223.668 284.133L223.585 284.218C223.479 284.209 223.373 284.243 223.29 284.312C223.208 284.381 223.155 284.48 223.143 284.588L223.088 284.615C222.921 284.579 222.746 284.608 222.599 284.694C222.451 284.78 222.339 284.918 222.286 285.082L222.192 285.146C221.972 285.17 221.763 285.257 221.589 285.396C221.415 285.535 221.284 285.721 221.21 285.932L221.204 285.937C221.071 285.92 220.937 285.954 220.828 286.033C220.718 286.112 220.643 286.229 220.616 286.362C220.538 286.37 220.466 286.405 220.412 286.462C220.358 286.518 220.326 286.592 220.32 286.671C220.121 286.651 220.001 286.731 219.985 286.943L219.879 287.01C219.824 286.995 219.765 286.994 219.709 287.007C219.653 287.019 219.601 287.046 219.557 287.083C219.513 287.12 219.479 287.168 219.457 287.221C219.435 287.275 219.425 287.333 219.43 287.391L219.401 287.419C219.286 287.418 219.174 287.461 219.089 287.541C219.004 287.621 218.953 287.731 218.947 287.848L218.925 287.867C218.391 288.247 217.735 288.493 217.495 289.198C217.329 289.211 217.169 289.269 217.033 289.365C216.897 289.462 216.788 289.593 216.718 289.746C216.584 289.772 216.46 289.839 216.364 289.937C216.268 290.036 216.204 290.162 216.181 290.298C216.082 290.302 215.989 290.344 215.922 290.417C215.854 290.489 215.817 290.585 215.819 290.685L215.72 290.771C215.668 290.764 215.615 290.768 215.565 290.784C215.515 290.8 215.47 290.827 215.431 290.863C215.393 290.899 215.363 290.943 215.344 290.992C215.324 291.041 215.316 291.094 215.319 291.147L215.254 291.205C214.125 291.835 213.081 292.608 212.146 293.506L212.032 293.527L212.025 293.645C211.983 293.64 211.942 293.644 211.902 293.658C211.863 293.673 211.828 293.696 211.8 293.726C211.771 293.757 211.75 293.794 211.738 293.834C211.726 293.874 211.724 293.917 211.732 293.958L211.594 293.995L211.559 294.134C211.519 294.125 211.477 294.127 211.437 294.139C211.398 294.151 211.362 294.173 211.332 294.202C211.303 294.231 211.281 294.267 211.268 294.307C211.256 294.347 211.253 294.389 211.26 294.43L211.132 294.443L211.094 294.568C210.862 294.549 210.748 294.657 210.758 294.895L210.636 295.007C210.388 294.979 210.276 295.093 210.293 295.342C210.384 295.346 210.473 295.314 210.542 295.254C210.473 295.314 210.384 295.345 210.293 295.341L209.687 295.902C209.632 295.883 209.573 295.877 209.516 295.885C209.458 295.894 209.404 295.916 209.357 295.951C209.31 295.985 209.272 296.031 209.247 296.084C209.221 296.137 209.209 296.195 209.211 296.254L209.196 296.265C208.974 296.315 208.771 296.428 208.611 296.592C208.451 296.755 208.341 296.961 208.293 297.185L208.274 297.204C208.156 297.197 208.04 297.237 207.95 297.313C207.86 297.39 207.802 297.499 207.788 297.618L207.78 297.623C207.719 297.618 207.657 297.625 207.599 297.645C207.541 297.665 207.488 297.697 207.443 297.739C207.398 297.78 207.362 297.831 207.337 297.888C207.313 297.945 207.301 298.006 207.301 298.068C206.733 298.216 206.457 298.695 206.139 299.123L206.006 299.201C205.733 299.167 205.613 299.295 205.63 299.568L205.556 299.668C205.108 300.124 204.387 300.28 204.16 300.977C203.547 301.255 203.042 301.729 202.722 302.326C202.607 302.341 202.497 302.389 202.408 302.465C202.319 302.541 202.253 302.641 202.218 302.753C202.099 302.769 201.989 302.826 201.908 302.916C201.826 303.006 201.78 303.122 201.776 303.243C201.837 303.297 201.899 303.349 201.962 303.4C201.899 303.349 201.837 303.297 201.777 303.243C201.417 303.5 201.024 303.73 200.941 304.227C200.771 304.426 200.602 304.624 200.434 304.823C200.149 304.754 200.036 304.903 200.015 305.165L199.979 305.201C199.712 305.225 199.559 305.351 199.592 305.643L199.53 305.727C199.481 305.723 199.431 305.731 199.384 305.751C199.338 305.77 199.297 305.799 199.263 305.837C199.23 305.875 199.206 305.92 199.192 305.968C199.179 306.017 199.176 306.068 199.185 306.118L199.078 306.262L198.89 306.341L198.868 306.545C198.446 306.83 198.142 307.263 198.016 307.761C197.863 307.82 197.726 307.916 197.616 308.04C197.507 308.164 197.428 308.312 197.386 308.473C197.264 308.465 197.208 308.523 197.218 308.646L197.043 308.697L197.056 308.874C196.7 309.173 196.442 309.574 196.315 310.024C195.983 310.14 195.729 310.323 195.731 310.726C195.591 310.814 195.475 310.936 195.394 311.083C195.314 311.229 195.272 311.393 195.272 311.56C193.368 313.324 193.357 313.453 194.908 315.818L194.952 315.891C195.031 316.265 194.961 316.655 194.758 316.978C191.824 320.619 189.277 324.561 187.158 328.741C185.563 331.946 184.331 335.354 185.486 339.007C186.213 341.457 187.418 343.735 189.032 345.705C190.645 347.676 192.633 349.299 194.878 350.479C197.128 352.086 199.477 353.549 201.909 354.858C205.143 356.631 208.338 358.484 211.711 359.994C214.447 361.218 217.177 362.455 219.902 363.706C221.08 364.247 222.626 364.563 223.29 365.499C224.031 366.543 222.796 367.954 222.682 369.254C222.668 369.409 222.664 369.565 222.655 369.721C222.505 369.804 222.389 369.939 222.327 370.101C222.265 370.263 222.261 370.441 222.317 370.605L222.162 371.525C221.984 371.71 221.85 371.933 221.768 372.177C221.687 372.421 221.66 372.681 221.691 372.937C221.539 373.139 221.431 373.372 221.374 373.619C221.316 373.867 221.31 374.124 221.356 374.373C221.267 374.825 221.146 375.272 221.094 375.729C220.928 377.18 220.935 377.213 222.462 377.299C224.628 377.421 226.797 377.538 228.966 377.576C233.199 377.651 237.433 377.677 241.667 377.709C249.57 377.767 257.473 377.785 265.377 377.877C270.445 377.936 275.515 378.231 280.583 378.184C291.33 378.086 302.072 378.508 312.817 378.539C318.282 378.554 323.746 378.574 329.21 378.645C330.192 378.656 330.513 378.45 330.534 377.359C330.637 373.022 331.57 368.747 333.279 364.768C333.862 363.083 334.607 361.459 335.502 359.919C335.672 359.664 335.816 359.399 336.207 359.466C336.399 359.49 336.575 359.586 336.698 359.737C336.821 359.887 336.883 360.08 336.871 360.274L336.877 360.367C337.171 359.558 337.574 358.794 338.075 358.097C338.176 357.887 338.248 357.664 338.289 357.434C339.094 355.33 340.168 353.341 341.485 351.519C341.722 351.17 341.93 350.681 342.731 351.038L337.505 368.116C338.768 368.544 339.297 367.764 339.822 366.982C342.064 363.568 344.661 360.406 347.568 357.551C349.949 355.253 352.122 352.731 354.728 350.672C356.16 349.542 357.056 347.789 358.839 347.067C359.235 346.269 360.051 345.914 360.657 345.337C361.062 344.952 361.67 344.352 362.182 345.007C362.595 345.535 361.954 345.983 361.556 346.306C360.845 346.883 360.087 347.401 359.349 347.943C358.129 349.084 357.184 350.534 355.648 351.321C353.343 353.908 351.017 356.476 348.736 359.084C344.572 363.847 341.718 369.424 339.092 375.132C338.569 376.002 338.39 377.039 338.592 378.037C339.817 375.107 341.541 372.47 342.986 369.681C344.705 366.212 346.835 362.969 349.33 360.022C351.857 356.913 354.589 353.981 357.507 351.244C361.757 347.557 365.856 343.692 370.445 340.421C370.675 340.119 370.992 339.763 370.725 339.414C370.462 339.071 370.049 339.192 369.718 339.455C368.4 340.5 367.081 341.543 365.761 342.586C365.403 342.87 365.061 343.181 364.687 343.443C364.438 343.617 364.108 343.737 363.914 343.39C363.741 343.081 363.939 342.816 364.191 342.615C364.309 342.519 364.432 342.425 364.559 342.341C366.02 341.367 367.531 340.46 368.928 339.402C370.094 338.519 371.229 339.27 372.415 339.273C372.224 339.905 371.9 340.489 371.466 340.983C369.554 342.977 367.93 345.195 365.814 347.064C362.491 350.128 359.378 353.417 356.496 356.908C353.413 360.209 350.727 363.868 348.495 367.808L348.017 368.738C346.099 370.751 345.872 373.536 344.764 375.95C345.721 375.343 346.502 374.49 347.027 373.479C348.215 372.056 349.558 370.773 351.032 369.656C351.133 369.538 351.275 369.464 351.429 369.448C351.582 369.432 351.736 369.476 351.859 369.571C352.25 369.905 352.08 370.257 351.815 370.572C351.514 370.926 351.211 371.281 350.878 371.604C349.429 372.991 348.113 374.514 346.947 376.151C346.66 376.563 346.385 376.886 346.764 377.372C347.498 377.124 348.11 376.6 348.472 375.908C349.549 374.37 351.112 373.316 352.312 371.905C352.356 371.845 352.41 371.794 352.472 371.756C352.535 371.718 352.604 371.692 352.676 371.681C352.748 371.669 352.822 371.673 352.893 371.69C352.964 371.708 353.031 371.739 353.09 371.783C353.149 371.826 353.199 371.881 353.237 371.944C353.275 372.007 353.3 372.077 353.311 372.15C353.322 372.223 353.319 372.298 353.302 372.37C353.285 372.442 353.254 372.509 353.21 372.569C353.016 372.902 352.779 373.211 352.557 373.528C351.588 374.917 350.524 376.25 349.674 377.709C348.722 379.34 349.117 379.92 351.021 379.934C351.705 379.844 352.394 379.795 353.084 379.789C357.227 380.355 361.351 379.599 365.487 379.655C366.632 379.67 367.785 379.576 368.937 379.621C369.054 379.634 369.173 379.623 369.286 379.588C369.398 379.553 369.502 379.494 369.592 379.417C369.681 379.339 369.754 379.243 369.805 379.136C369.856 379.028 369.884 378.912 369.888 378.792C369.895 378.217 369.421 378.123 368.909 378.099C367.002 378.014 365.084 378.3 363.214 378.228C359.753 378.094 356.31 378.239 352.859 378.275C352.427 378.279 351.888 378.47 351.653 377.906C351.428 377.363 351.944 377.084 352.18 376.716C354.305 373.573 356.629 370.572 359.138 367.733C359.836 367.003 360.383 366.14 360.75 365.196C360.863 364.95 360.902 364.677 360.861 364.409C360.821 364.142 360.703 363.892 360.522 363.693C360.342 363.493 360.107 363.352 359.847 363.287C359.587 363.222 359.314 363.236 359.062 363.328C358.302 363.452 357.566 363.693 356.879 364.044C355.567 364.648 354.339 365.425 353.227 366.354C352.873 366.714 352.369 367.525 351.657 367.204C351.679 367.292 351.674 367.386 351.642 367.471C351.609 367.557 351.551 367.63 351.475 367.68C350.898 368.13 350.297 368.548 349.676 368.932L349.486 368.446C349.906 368.059 350.235 367.581 350.449 367.048C350.559 366.841 350.825 366.433 351.172 366.79C350.87 366.13 351.477 365.799 351.775 365.382C356.201 359.421 361.067 353.808 366.333 348.591C368.869 346.121 371.232 343.476 373.404 340.674C374.159 339.643 375.065 338.272 374.18 337.069C373.234 335.785 371.785 336.531 370.563 337.003C367.584 338.281 364.801 339.981 362.296 342.052C355.121 347.538 348.524 353.756 342.608 360.608C342.312 360.949 342.132 361.671 341.172 361.234C341.833 359.074 342.479 356.881 343.178 354.706C343.729 353.173 344.115 351.584 344.33 349.967C344.42 349.543 344.378 349.101 344.207 348.703C344.037 348.305 343.747 347.971 343.379 347.748C343.006 347.643 342.611 347.651 342.242 347.769C341.873 347.887 341.546 348.111 341.3 348.413C339.958 349.582 338.829 350.982 337.968 352.548C336.248 356.076 334.104 359.369 332.637 363.048C330.964 366.8 329.885 370.795 329.441 374.887C329.286 377.05 329.244 377.087 327.128 377.059C320.074 376.966 313.02 376.86 305.967 376.74C303.026 376.689 303.025 376.662 302.511 373.813C302.414 373.279 302.298 372.745 302.245 372.205C301.788 367.484 300.603 362.891 299.854 358.219C298.788 351.563 297.482 344.947 296.622 338.252C296.399 336.514 296.612 334.693 295.837 333.037L295.748 331.805C295.892 331.191 295.853 330.549 295.636 329.957C295.628 329.534 295.744 329.117 295.97 328.759C296.195 328.402 296.52 328.12 296.903 327.948C298.126 327.301 299.426 326.814 300.771 326.499C301.877 326.173 302.991 325.875 304.111 325.604C305.297 325.314 306.871 325.446 307.597 324.71C308.776 323.513 309.658 324.688 310.651 324.576C314.842 324.098 319.057 323.818 323.046 322.251C324.396 321.72 325.736 321.168 327.094 320.665C327.677 320.45 328.283 320.319 328.503 319.626C328.647 319.55 328.767 319.436 328.85 319.296C328.933 319.155 328.976 318.994 328.973 318.831C329.216 318.715 329.573 318.695 329.432 318.262C329.565 318.115 329.641 317.924 329.646 317.725C329.651 317.526 329.584 317.331 329.458 317.178L329.618 317.134L329.452 317.167L329.45 317.181C329.303 316.492 329.451 315.668 328.613 315.292C329.011 315.164 328.558 315.043 328.61 314.919C328.704 314.605 328.721 314.272 328.66 313.95C328.599 313.627 328.461 313.324 328.259 313.067C328.37 312.868 328.294 312.744 328.104 312.665L328.096 312.64C328.134 312.398 328.109 312.149 328.022 311.919C327.935 311.69 327.79 311.487 327.602 311.332C327.626 310.944 327.498 310.562 327.246 310.269C327.266 310.082 327.23 309.893 327.144 309.727C327.058 309.56 326.925 309.424 326.761 309.334C326.802 309.135 326.785 308.929 326.712 308.74C326.638 308.551 326.512 308.389 326.348 308.272C326.375 308.217 326.381 308.153 326.362 308.094C326.343 308.036 326.302 307.987 326.248 307.959C326.172 307.103 325.864 306.285 325.358 305.595L325.175 305.178L324.158 305.14C324.107 305.491 324.001 305.85 324.32 306.139L324.265 306.341L324.432 306.476L324.595 307.222V307.223C324.507 307.533 324.675 307.715 324.908 307.866C325.388 309.37 325.989 310.832 326.705 312.237C326.668 312.307 326.66 312.388 326.682 312.464C326.704 312.54 326.755 312.604 326.823 312.643L326.972 313.108C326.867 313.347 326.986 313.478 327.19 313.566C327.177 313.742 327.2 313.919 327.256 314.086C327.313 314.253 327.403 314.406 327.52 314.537C327.5 314.592 327.448 314.663 327.465 314.696C327.522 314.787 327.588 314.873 327.661 314.953L327.666 314.971C327.567 315.539 327.154 315.476 326.752 315.438L326.734 315.419C326.736 315.359 326.724 315.3 326.7 315.245C326.676 315.19 326.64 315.142 326.594 315.104C326.549 315.065 326.495 315.038 326.438 315.024C326.38 315.009 326.32 315.008 326.262 315.021L326.203 314.986C326.139 314.821 326.019 314.684 325.865 314.6C325.711 314.515 325.532 314.489 325.36 314.526C321.563 312.493 317.481 311.057 313.256 310.268C311.251 309.943 311.216 309.932 311.511 307.942C312.3 302.659 312.817 297.339 313.06 292.002C313.194 289.993 313.092 287.974 312.756 285.989L312.715 285.509C312.818 284.881 312.776 284.238 312.593 283.629C313.206 283.53 313.332 284.032 313.566 284.42C317.019 290.18 320.007 296.212 322.503 302.457C322.891 303.428 323.063 304.593 324.159 305.141L325.175 305.178C323.866 302.046 322.669 298.868 321.177 295.81C319.978 293.33 318.69 290.894 317.317 288.508C315.774 285.847 314.411 283.102 312.241 280.88C311.63 276.695 310.707 272.563 309.479 268.518C308.19 264.214 306.193 260.16 303.573 256.526C303.583 256.464 303.581 256.401 303.566 256.34C303.551 256.279 303.524 256.222 303.487 256.171C303.45 256.121 303.403 256.079 303.35 256.047C303.296 256.016 303.237 255.995 303.175 255.987L302.817 255.573L302.813 255.394L302.641 255.341L302.616 255.21L302.49 255.171C302.393 254.925 302.221 254.717 301.999 254.576C301.777 254.436 301.516 254.371 301.255 254.391L300.862 254.164C300.824 253.854 300.635 253.771 300.356 253.821C300.321 253.756 300.266 253.705 300.198 253.676C300.13 253.647 300.055 253.643 299.985 253.664C298.541 252.677 296.896 252.847 295.284 252.819L294.908 251.579C295.064 251.349 295.164 251.086 295.2 250.809C295.235 250.533 295.206 250.252 295.114 249.989L295.207 249.031C295.284 248.496 295.374 247.963 295.436 247.426C296.278 240.088 296.145 232.682 296.937 225.336C297.326 221.721 297.34 218.064 297.708 214.445C298.021 211.362 298.041 208.266 298.276 205.18C298.525 201.888 299.092 198.58 298.685 195.25L297.365 195.268C296.959 197.392 296.73 199.546 296.68 201.709C296.174 209.666 295.487 217.615 295.169 225.58C294.981 230.294 294.138 234.963 294.346 239.695C294.159 240.609 294.127 241.549 294.25 242.474C293.579 244.475 294.136 246.552 293.885 248.579L293.924 249.988C293.854 250.012 293.789 250.048 293.73 250.093C293.7 250.118 293.677 250.149 293.662 250.185C293.648 250.221 293.642 250.26 293.646 250.299C293.65 250.338 293.663 250.375 293.684 250.407C293.706 250.439 293.735 250.465 293.769 250.483C293.667 250.709 293.615 250.955 293.617 251.204C293.619 251.452 293.675 251.697 293.78 251.921L292.985 252.3L292.954 252.292C292.541 251.819 291.971 251.939 291.446 251.885L292.082 241.554C292.717 232.507 293.351 223.461 293.987 214.415C294.42 208.227 294.849 202.04 295.275 195.853C295.446 193.321 295.249 190.772 295.624 188.249C295.749 187.486 295.741 186.706 295.598 185.945L295.802 184.543C296.194 182.199 296.385 179.825 296.375 177.448C296.627 172.976 297.222 168.548 297.643 164.03C299.072 164.79 299.321 165.753 299.226 167.306C298.858 173.332 297.892 179.316 297.999 185.371C297.933 185.407 297.872 185.451 297.818 185.503C297.79 185.531 297.769 185.565 297.757 185.602C297.744 185.639 297.741 185.679 297.746 185.718C297.751 185.757 297.765 185.794 297.787 185.827C297.808 185.859 297.837 185.886 297.871 185.906C297.784 186.056 297.739 186.227 297.741 186.4C297.743 186.574 297.792 186.744 297.882 186.892C297.953 186.97 298.011 187.059 298.055 187.156C298.026 187.055 297.967 186.965 297.887 186.898C297.807 186.831 297.709 186.79 297.605 186.78C297.502 186.77 297.398 186.791 297.307 186.841C297.215 186.892 297.141 186.969 297.093 187.062C297.046 187.156 297.027 187.261 297.039 187.366C297.052 187.47 297.095 187.568 297.163 187.648C297.232 187.727 297.322 187.784 297.422 187.811C297.523 187.838 297.629 187.833 297.727 187.799L297.7 189.194L297.62 189.672C297.433 190.414 297.425 191.191 297.598 191.937C297.308 192.545 297.199 193.225 297.286 193.894L297.365 195.269L298.685 195.251C298.898 194.82 298.962 194.328 298.866 193.856C299.148 192.925 299.207 191.94 299.038 190.981C299.27 189.929 299.371 188.852 299.34 187.775C299.454 187.656 299.52 187.499 299.525 187.333C299.53 187.168 299.473 187.006 299.366 186.881L299.369 185.443L299.84 184.046L299.91 184.027L303.123 183.976C303.283 184.04 303.456 184.063 303.626 184.041C303.797 184.02 303.959 183.955 304.098 183.853C306.532 184.185 308.996 184.236 311.441 184.006C313.217 184.243 315.003 183.933 316.791 184.161C319.767 184.539 322.796 184.251 325.769 184.728C328.95 185.239 332.154 185.574 335.334 186.059C338.289 186.371 341.217 186.909 344.093 187.666C345.639 188.15 347.23 188.486 349.051 188.954C348.45 187.176 347.96 185.711 347.459 184.249C346.956 182.779 346.446 181.311 345.93 179.845C345.412 178.38 344.903 176.911 344.342 175.463C343.773 174.019 343.179 172.584 342.562 171.16C341.372 168.373 341.279 168.059 341.437 166.973C342.035 167.186 342.207 167.73 342.402 168.217C343.613 171.245 344.791 174.287 346.015 177.308C346.284 177.97 346.192 178.868 347.075 179.184C346.98 179.24 346.909 179.329 346.874 179.434C346.84 179.539 346.845 179.653 346.889 179.755C348.211 183.65 349.521 187.549 350.845 191.443C350.947 191.737 351.099 192.01 351.293 192.252C351.44 192.434 351.644 192.559 351.872 192.607C352.099 192.654 352.336 192.622 352.542 192.515C352.722 192.44 352.869 192.303 352.956 192.128C353.044 191.953 353.067 191.752 353.021 191.561C352.963 190.962 352.853 190.368 352.709 189.39C369.947 184.927 387.93 184.245 405.45 187.392C404.423 185.979 403.68 184.909 402.887 183.878C402.084 182.834 401.228 181.831 400.404 180.803C399.58 179.776 398.801 178.709 397.94 177.714C397.081 176.719 396.06 175.857 395.272 174.811C394.565 173.874 393.075 173.564 392.894 171.838C393.82 172.244 394.655 172.836 395.348 173.578C396.794 175.19 398.321 176.726 399.648 178.453C400.567 179.875 401.706 181.139 403.021 182.197L403.024 182.162C403.817 183.688 404.799 185.105 405.946 186.38C406.547 187.98 407.953 189.05 408.659 190.591C408.705 190.721 408.782 190.839 408.882 190.934C408.982 191.029 409.103 191.098 409.235 191.137C409.366 191.175 409.505 191.181 409.64 191.154C409.775 191.127 409.901 191.068 410.009 190.982C410.262 190.755 410.418 190.437 410.445 190.096C410.472 189.755 410.367 189.417 410.152 189.152C408.854 187.987 409.336 186.713 409.916 185.43L409.978 185.341C410.194 185.326 410.281 185.218 410.22 185L410.482 184.54C410.596 184.521 410.699 184.46 410.77 184.368C410.842 184.277 410.877 184.161 410.869 184.045C412.471 182.302 414.375 180.87 416.487 179.822C416.736 179.888 416.998 179.882 417.243 179.804C417.488 179.726 417.706 179.58 417.872 179.381L418.848 179.145L419.706 179.203L420.38 179.821C421.177 180.642 421.944 181.494 422.779 182.276C422.886 182.39 423.015 182.48 423.158 182.54C423.301 182.599 423.455 182.628 423.609 182.623C423.764 182.619 423.916 182.581 424.056 182.513C424.195 182.445 424.319 182.348 424.418 182.228C424.949 181.7 425.282 181.076 424.673 180.417L424.672 180.418ZM293.415 271.938C293.236 272.546 292.705 272.377 292.27 272.41C291.631 272.457 291.489 272.043 291.507 271.534C291.538 270.766 291.607 269.999 291.671 269.062C292.563 269.001 293.376 268.922 293.671 269.68C293.832 270.441 293.742 271.233 293.416 271.938H293.415ZM275.254 230.422C276.914 232.902 278.131 235.523 277.812 238.632C277.75 240.106 277.196 241.516 276.242 242.632C275.69 243.279 274.937 243.718 274.107 243.878C272.696 244.122 272.299 243.887 272.043 242.487C272.044 242.027 271.904 241.578 271.641 241.201C270.878 239.488 271.508 238.112 272.617 236.806C273.463 235.612 274.158 234.316 274.687 232.948C274.885 232.615 274.948 232.218 274.864 231.839C274.779 231.46 274.553 231.128 274.233 230.913C273.765 230.449 273.177 230.128 272.536 229.985C271.896 229.843 271.229 229.886 270.611 230.108C269.834 230.339 269.131 230.775 268.576 231.371C268.021 231.967 267.633 232.702 267.451 233.501C267.24 234.309 267.277 235.102 268.275 235.338C269.12 235.538 269.587 236.279 269.381 236.842C269.038 237.777 269.468 238.304 269.863 238.957C270.518 240.036 270.004 241.451 270.832 242.486C269.951 242.816 269.161 242.013 269.218 241.619C269.434 240.112 267.771 239.885 267.554 238.692C267.278 237.593 266.918 236.516 266.479 235.472C266.452 234.309 266.68 233.155 267.147 232.092C268.73 229.47 272.001 227.934 275.254 230.422ZM262.417 237.725C262.711 237.77 262.848 237.645 262.824 237.342C263.669 236.508 264.407 235.57 265.019 234.549L265.443 235.466C265.37 236.075 265.395 236.692 265.516 237.293C265.903 239.207 264.347 240.336 262.341 239.664C262.343 239.415 262.192 239.299 261.977 239.242C261.889 239.026 261.852 238.792 261.868 238.559C261.884 238.326 261.954 238.1 262.071 237.898C262.104 237.916 262.141 237.925 262.179 237.926C262.217 237.926 262.254 237.918 262.288 237.901C262.321 237.884 262.351 237.859 262.373 237.829C262.396 237.798 262.411 237.763 262.417 237.725ZM261.298 238.866C261.416 238.527 261.458 238.121 261.776 237.964C261.458 238.121 261.416 238.527 261.298 238.865C261.253 239.03 261.156 239.175 261.021 239.279C261.156 239.176 261.253 239.03 261.298 238.866ZM252.082 239.136C252.858 238.322 253.84 237.738 254.921 237.449C256.003 237.16 257.142 237.177 258.214 237.498C259.244 237.821 260.139 238.481 260.758 239.374C262.491 241.778 263.49 244.299 262.417 247.344C260.881 251.701 256.356 252.828 253.012 249.626C252.626 249.257 252.189 248.944 251.775 248.604C251.163 247.539 250.67 246.409 250.304 245.235C249.548 242.785 250.481 240.847 252.082 239.137V239.136ZM251.534 262.299C249.477 262.862 247.385 263.087 245.938 261.088C244.552 259.173 243.638 257.076 244.705 254.611C245.895 251.864 248.623 251.429 250.39 253.792C250.971 254.573 251.522 254.847 252.242 254.116C252.704 253.649 253.633 253.707 253.691 252.799C254.029 251.701 254.749 252.287 255.353 252.425C256.613 252.82 257.962 252.812 259.218 252.404C260.473 251.996 261.574 251.206 262.369 250.142C263.108 249.243 263.635 248.187 263.911 247.053C264.188 245.918 264.207 244.735 263.966 243.592C263.823 242.916 263.387 242.147 264.245 241.47C265.853 240.202 266.564 240.408 266.955 242.421C267.155 243.332 267.096 244.281 266.783 245.159C266.532 245.852 265.941 246.499 266.186 247.353C267.471 246.63 267.471 246.63 268.442 243.327C269.166 243.472 269.369 244.323 270.035 244.531C270.994 244.833 271.218 245.586 271.35 246.499C272.077 250.33 271.803 254.287 270.554 257.977C270.067 259.369 269.193 260.589 268.037 261.491C266.881 262.393 265.492 262.939 264.037 263.063C261.876 263.242 259.703 263.202 257.55 262.944C259.746 265.329 264.482 265.447 269.106 263.253C269.51 264.808 269.902 266.359 270.317 267.905C270.786 269.652 270.779 269.614 269.084 270.329C265.63 271.656 261.901 272.082 258.241 271.568C258.135 271.374 258.029 271.18 257.925 270.985L257.939 270.583C258.02 270.347 258.046 270.095 258.015 269.847C257.984 269.599 257.898 269.362 257.762 269.154C257.886 268.717 257.635 268.493 257.299 268.315L256.928 267.199L257.045 267.094L256.841 266.903L256.52 265.831C256.556 265.786 256.631 265.706 256.623 265.697C256.549 265.618 256.471 265.543 256.388 265.473C256.162 264.902 255.896 264.349 255.592 263.818C254.274 261.824 253.787 261.684 251.534 262.299ZM257.735 274.284L257.829 272.944C259.951 272.807 262.012 273.635 264.151 273.333C264.267 273.324 264.384 273.338 264.495 273.376C264.605 273.414 264.707 273.475 264.793 273.554C264.88 273.633 264.949 273.73 264.997 273.837C265.046 273.944 265.072 274.061 265.074 274.179C265.205 274.954 265.445 275.707 265.786 276.415C263.143 277.535 260.637 276.529 258.115 275.961C256.876 275.681 258.092 274.791 257.735 274.284ZM255.429 267.889C255.55 268.096 255.613 268.157 255.622 268.225C256.56 274.809 256.96 273.746 251.215 275.591C246.874 276.912 242.427 277.842 237.924 278.37C240.065 274.324 247.469 269.876 255.429 267.889ZM245.253 278.959C244.99 278.959 244.724 278.939 244.458 278.923C244.724 278.939 244.989 278.96 245.255 278.959H245.253ZM243.473 278.957C243.409 278.968 243.345 278.972 243.282 278.989C243.345 278.972 243.409 278.967 243.473 278.955V278.957ZM196.643 315.993C196.532 316.025 196.423 316.06 196.313 316.091L196.643 315.993ZM214.228 347.206C212.503 349.766 210.951 352.44 209.584 355.211C209.078 356.248 208.533 356.364 207.608 355.92C204.166 354.419 200.852 352.631 197.701 350.575C197.374 350.374 197.034 350.195 196.684 350.039C195.058 348.76 193.465 347.428 191.792 346.215C190.097 344.98 188.753 343.317 187.895 341.392C186.573 338.646 186.366 335.486 187.319 332.589C188.547 329.022 190.655 325.997 192.596 322.86C194.054 320.503 195.615 318.211 197.131 315.891L197.165 315.837C197.437 315.835 197.589 315.711 197.576 315.42L198.127 314.962L198.57 314.912L198.692 314.93C198.788 315.051 198.91 315.146 199.049 315.209C199.188 315.273 199.34 315.301 199.493 315.294C203.752 318.733 206.9 323.11 209.845 327.679C210.571 328.807 210.893 329.684 209.721 330.646C209.521 330.88 209.36 331.146 209.246 331.433C208.358 332.042 207.673 332.909 207.283 333.919C206.799 334.896 206.509 336.158 207.527 336.852C209.883 338.462 211.558 340.822 213.862 342.466C214.171 343.483 215.874 343.501 215.691 344.63C215.38 345.579 214.882 346.456 214.229 347.206H214.228ZM219.432 346.086C217.716 344.442 216.138 342.649 214.268 341.169C212.726 338.877 210.28 337.588 208.353 335.724C208.45 334.42 209.515 333.577 209.899 332.41C211.206 333.103 212.056 334.344 213.212 335.222C217.382 338.53 222.059 341.125 227.058 342.906C227.876 343.18 228.161 343.437 228.087 344.316C228.028 346.748 227.673 349.164 227.031 351.509C224.158 350.247 221.571 348.401 219.432 346.086ZM225.451 358.683C225.043 359.501 224.469 359.358 223.866 359.214C224.07 359.005 224.32 358.848 224.595 358.756C224.871 358.663 225.164 358.638 225.451 358.683ZM256.067 376.197C250.784 376.357 245.5 375.738 240.22 376.237C240.422 376.459 240.69 376.608 240.983 376.66C241.167 376.692 241.353 376.705 241.54 376.697C241.353 376.705 241.166 376.693 240.982 376.66C240.689 376.608 240.422 376.459 240.22 376.237L239.306 376.175C238.859 375.942 238.365 375.819 237.862 375.816C237.36 375.813 236.864 375.929 236.415 376.156C236.372 376.119 236.318 376.1 236.262 376.101C236.207 376.102 236.153 376.124 236.113 376.163C233.864 375.494 231.567 375.928 229.295 375.903C227.093 375.935 224.891 375.849 222.698 375.644C223.177 373.61 223.652 371.576 224.136 369.544C224.255 368.936 224.417 368.338 224.618 367.753C225.134 366.434 225.799 366.087 227.131 366.61C228.916 367.312 230.642 368.168 232.407 368.925C233.748 369.5 235.101 370.048 236.465 370.568C238.904 371.505 241.524 371.859 244.121 371.604C246.664 371.353 249.183 370.849 251.703 370.412C252.122 370.339 252.65 370.195 252.704 369.607C252.756 369.048 252.336 368.821 251.921 368.587C251.103 368.15 250.186 367.939 249.261 367.975C248.131 367.973 247.003 367.846 245.899 367.597C248.317 367.259 250.703 366.721 253.034 365.991C253.323 365.898 253.648 365.913 253.932 365.812C254.08 365.774 254.213 365.691 254.312 365.573C254.412 365.456 254.473 365.311 254.488 365.158C254.488 364.821 254.21 364.647 253.897 364.54C252.574 364.108 251.177 363.958 249.793 364.101C248.128 364.132 246.469 363.896 244.876 363.403C245.329 363.027 245.904 362.837 246.489 362.871C248.796 362.778 251.068 362.27 253.198 361.37C253.967 361.103 255.035 361.02 254.79 359.806C254.58 358.765 253.617 358.983 252.889 358.984C250.208 358.902 247.539 358.586 244.912 358.039C243.69 357.825 244.111 357.252 244.474 356.621L243.005 356.571C241.724 356.523 241.313 355.64 241.213 354.558C241.135 353.397 241.349 352.235 241.837 351.181C242.235 350.342 242.567 349.472 242.831 348.579C243.241 346.958 242.601 345.758 240.955 344.834C239.941 345.972 239.139 347.289 238.12 348.444C236.465 350.157 234.472 351.498 232.269 352.378C231.772 352.582 231.228 352.643 230.699 352.553C229.405 352.422 228.779 351.802 229.101 350.568C230.028 347.023 229.779 343.326 230.589 339.777C230.997 337.961 231.3 336.123 231.499 334.271C231.739 334.132 231.857 333.949 231.715 333.67L231.877 332.239C231.921 332.211 232.001 332.185 232.003 332.155C232.001 332.058 231.99 331.962 231.971 331.867C232.354 331.218 232.539 330.468 232.502 329.713C232.622 329.644 232.713 329.532 232.758 329.399C232.802 329.267 232.796 329.122 232.741 328.994L232.911 328.247C233.077 328.023 233.186 327.761 233.228 327.484C233.269 327.208 233.243 326.925 233.15 326.661C233.525 325.936 233.706 325.125 233.674 324.307C234.495 322.131 234.853 319.804 234.725 317.478C234.037 319.164 233.432 320.883 232.913 322.63C232.674 323.421 232.318 323.055 231.938 322.824C231.808 322.149 231.529 321.512 231.122 320.962C231.07 320.58 230.907 320.222 230.655 319.933C230.403 319.643 230.073 319.435 229.705 319.334C229.343 320.47 230.02 321.259 230.429 322.118C230.414 322.357 230.452 322.596 230.538 322.818C230.624 323.041 230.758 323.242 230.929 323.407C230.889 323.604 230.909 323.809 230.984 323.995C231.06 324.181 231.189 324.34 231.355 324.452C231.537 325.559 232.196 326.612 231.723 327.793C231.75 327.865 231.765 327.941 231.767 328.019C231.764 327.942 231.75 327.866 231.723 327.794C231.606 327.871 231.516 327.985 231.469 328.118C231.421 328.251 231.417 328.396 231.459 328.532L231.301 329.242C231.185 329.31 231.098 329.418 231.057 329.546C231.015 329.674 231.02 329.813 231.073 329.937C229.836 333.362 229.452 336.997 228.556 340.611C225.209 339.479 222.636 337.308 220.04 335.14C216.634 332.297 214.275 328.525 211.292 325.323C208.041 321.829 205.123 317.999 201.381 314.976C200.026 313.836 198.591 312.797 197.086 311.868C197.662 310.398 198.839 309.556 199.486 308.353C199.727 308.315 199.853 308.188 199.812 307.928C199.837 307.928 199.86 307.922 199.881 307.91C199.902 307.898 199.919 307.881 199.932 307.86C199.944 307.839 199.951 307.815 199.951 307.791C199.952 307.767 199.946 307.743 199.934 307.722C199.968 307.727 200.002 307.724 200.034 307.713C200.066 307.701 200.095 307.683 200.119 307.658C200.142 307.633 200.159 307.602 200.169 307.569C200.178 307.536 200.179 307.501 200.172 307.468C200.201 307.472 200.231 307.47 200.26 307.461C200.288 307.452 200.315 307.437 200.337 307.417C200.359 307.397 200.377 307.373 200.389 307.345C200.4 307.317 200.406 307.288 200.405 307.257C200.44 307.264 200.476 307.262 200.511 307.251C200.545 307.241 200.576 307.222 200.601 307.196C200.626 307.171 200.644 307.139 200.655 307.105C200.665 307.07 200.667 307.033 200.66 306.998C200.687 307.001 200.715 306.998 200.741 306.989C200.767 306.979 200.791 306.964 200.81 306.943C200.829 306.923 200.844 306.899 200.852 306.872C200.86 306.845 200.862 306.817 200.858 306.789L201.005 306.741L200.916 306.657L201.341 306.03C201.637 306.059 201.772 305.899 201.804 305.623L201.826 305.6C202.437 305.382 202.595 304.799 202.858 304.298C203.262 304.251 203.462 303.951 203.659 303.645C203.794 303.66 203.93 303.624 204.04 303.544C204.15 303.463 204.227 303.345 204.256 303.211L204.658 302.853L204.619 302.937L204.667 302.92L204.663 302.893C205.145 302.506 205.539 302.019 205.819 301.464L205.847 301.462C205.982 301.451 206.112 301.401 206.22 301.318C206.328 301.234 206.411 301.122 206.457 300.992C206.611 300.991 206.759 300.935 206.875 300.835C206.992 300.734 207.07 300.595 207.095 300.442L207.906 299.592L208.015 299.645L208.06 299.511C208.206 299.482 208.344 299.421 208.464 299.333C208.584 299.245 208.684 299.131 208.756 299C208.902 299.023 209.051 298.99 209.173 298.906C209.295 298.822 209.381 298.694 209.412 298.548C209.449 298.547 209.485 298.539 209.519 298.523C209.553 298.508 209.583 298.486 209.608 298.458C209.633 298.431 209.652 298.399 209.664 298.363C209.677 298.328 209.682 298.291 209.68 298.254L209.684 298.318L212.5 295.435L212.666 295.472L212.717 295.3L212.851 295.283L212.895 295.154C213.118 295.173 213.227 295.065 213.238 294.844C213.57 294.715 213.842 294.465 213.999 294.142C214.804 293.768 215.512 293.21 216.069 292.513L217.562 291.269L217.578 291.159L217.563 291.269L217.71 291.292L217.686 291.144L219.4 289.635C219.743 289.707 219.921 289.545 219.986 289.217L221.338 287.875L221.424 287.824C221.455 287.831 221.487 287.832 221.518 287.825C221.55 287.819 221.579 287.805 221.604 287.786C221.629 287.766 221.65 287.741 221.664 287.713C221.679 287.684 221.687 287.652 221.687 287.62C221.894 287.654 221.99 287.569 221.957 287.352H222.096L222.146 287.222C222.414 287.289 222.534 287.155 222.564 286.905C223.45 286.375 224.285 285.763 225.058 285.077L225.086 285.14L225.071 285.065L225.056 285.072L225.449 284.647C225.385 284.021 225.204 283.808 224.971 283.781C225.204 283.808 225.385 284.02 225.449 284.646C227.338 283.33 229.348 282.199 231.45 281.269C232.282 280.865 233.208 280.697 234.127 280.783C234.66 280.803 235.212 280.969 235.575 280.386L236.076 280.202C236.294 280.246 236.52 280.239 236.735 280.182C236.95 280.124 237.149 280.018 237.317 279.87L237.912 279.832C239.413 279.977 240.927 279.826 242.37 279.387L242.541 279.356C243.596 279.369 244.693 279.693 245.647 278.938L246.242 278.84C246.454 278.874 246.671 278.855 246.874 278.786C247.077 278.716 247.26 278.598 247.409 278.442L248.105 278.321C249.905 277.814 251.89 278.705 253.609 277.579L255.48 276.573C256.161 276.584 256.835 276.715 257.471 276.959C259.274 277.847 261.234 278.359 263.237 278.465C264.56 278.518 264.848 279.074 264.953 280.261C265.192 282.96 265.582 285.643 265.911 288.332C265.9 288.824 265.721 289.33 266.043 289.791C266.01 289.84 265.938 289.902 265.949 289.936C265.993 290.039 266.046 290.138 266.108 290.231L266.203 290.753L266.257 293.446C266.376 296.62 266.408 299.8 266.634 302.966C266.986 307.919 267.301 312.871 267.408 317.836C267.64 328.593 266.172 339.175 264.455 349.758C263.381 355.852 262.666 362.004 262.313 368.183C262.198 370.804 262.389 373.407 262.326 376.07C260.244 376.243 258.154 376.285 256.067 376.196V376.197ZM358.291 367.051L358.308 367.006L358.326 367.028L358.292 367.051H358.291ZM358.256 367.074C357.074 367.974 356.043 369.061 355.206 370.294C354.958 370.576 354.638 370.905 354.277 370.549C353.913 370.192 354.236 369.856 354.498 369.59C355.547 368.475 356.831 367.615 358.256 367.074ZM352.563 368.427C353.932 367.604 354.877 366.034 356.775 366.254C355.625 367.137 354.478 368.022 353.324 368.899C353.059 369.1 352.76 369.154 352.549 368.83C352.486 368.735 352.497 368.467 352.563 368.427ZM336.6 358.539C336.708 358.575 336.812 358.624 336.91 358.684L336.746 358.852L336.447 358.684C336.499 358.633 336.561 358.531 336.6 358.539ZM307.109 296.043C307.566 296.063 308.019 296.133 308.461 296.254C311.284 296.47 311.276 296.464 311.02 299.368C310.576 304.382 309.749 309.362 309.675 314.409C309.671 314.699 309.706 314.99 309.73 315.407C310.947 314.754 310.586 313.578 310.852 312.686C311.013 312.143 311.007 311.568 311.792 311.695C312.65 311.833 312.376 312.422 312.267 312.944C311.762 315.39 310.063 317.132 308.763 319.121C307.6 320.768 305.917 321.965 303.991 322.516C300.88 323.623 298.862 323.119 296.938 320.474C296.19 319.491 295.594 318.398 295.171 317.234C293.402 311.698 292.66 305.879 292.984 300.07C293.057 297.962 293.153 298.046 295.107 297.593C299.06 296.674 303.129 296.724 307.109 296.043ZM303.555 103.022C303.563 102.791 303.609 102.563 303.688 102.347C303.773 102.129 303.939 101.953 304.151 101.857C304.362 101.762 304.603 101.754 304.82 101.836C305.301 101.97 305.352 102.345 305.229 102.742C304.833 104.312 304.598 105.92 304.527 107.539C304.36 109.224 304.256 110.915 304.215 112.608C304.182 113.841 303.529 114.211 302.277 114.15C302.714 110.342 303.132 106.682 303.555 103.022ZM204.109 160.152C200.824 160.141 197.554 160.613 194.403 161.555C190.165 162.465 186.105 164.079 182.389 166.332L180.93 166.547C180.98 166.205 181.102 165.877 181.288 165.587C181.474 165.296 181.718 165.05 182.006 164.863C189.038 157.989 196.612 151.706 204.654 146.078C209.687 142.664 214.641 139.133 219.863 136.017C222.563 134.406 225.284 132.825 228.128 131.469C230.335 130.415 232.287 128.859 234.635 128.073C235.438 127.587 236.389 127.415 237.308 127.59C231.948 132.426 226.429 136.806 221.453 141.82C216.45 146.86 212.437 152.707 207.782 158.02C207.628 158.093 207.492 158.2 207.384 158.332C207.275 158.465 207.196 158.619 207.152 158.786H207.154C206.828 159.283 206.368 159.676 205.829 159.918C205.289 160.16 204.693 160.241 204.109 160.152ZM218.923 176.119C218.868 176.364 218.859 176.645 218.654 176.77C218.859 176.646 218.868 176.364 218.923 176.119ZM307.732 160.481C299.925 159.893 292.118 159.364 284.285 159.148C277.304 158.956 270.322 158.636 263.354 158.06C259.616 157.75 255.846 157.807 252.091 157.752C245.329 157.653 238.577 157.911 231.833 158.39C229.998 158.519 228.166 158.701 226.333 158.858C226.033 158.801 225.73 158.767 225.426 158.758C220.103 158.911 214.802 159.505 209.575 160.533C209.205 160.589 208.831 160.604 208.458 160.578C207.333 160.581 207.82 159.848 207.864 159.311C210.927 154.925 214.703 151.161 218.238 147.186C222.61 142.27 227.657 138.08 232.446 133.61C236.443 130.002 240.716 126.719 245.225 123.792C251.724 119.416 258.677 115.98 266.606 115.148C270.053 114.88 273.513 114.838 276.965 115.021C283.873 115.2 290.745 116.111 297.673 115.897C301.508 115.808 305.332 115.426 309.11 114.754C312.788 114.071 315.565 115.536 318.157 117.711C319.573 119.014 320.797 120.516 321.791 122.171C325.039 127.162 327.66 132.542 329.596 138.187C331.409 143.208 332.808 148.372 333.779 153.626C334.466 156.807 334.986 160.023 335.335 163.26C335.374 163.825 335.783 164.502 335.047 164.951C335.034 165.063 335.016 165.183 335.005 165.302C335.016 165.183 335.034 165.062 335.048 164.951C332.83 163.868 330.425 163.23 327.967 163.072C321.236 162.105 314.518 160.992 307.732 160.481ZM383.303 167.691C380.775 167.228 378.35 166.159 375.716 166.301C374.884 165.87 373.94 165.711 373.015 165.847L372.934 165.836C369.898 165.646 366.863 165.349 363.826 165.211C366.861 165.349 369.897 165.646 372.934 165.836C372.531 165.609 372.075 165.494 371.614 165.501C367.199 164.894 362.735 164.936 358.309 164.476C356.629 164.302 354.948 164.098 353.264 164.033C347.747 163.914 342.229 164.212 336.756 164.925L336.694 163.517C336.309 159.671 335.731 155.848 334.96 152.062C334.416 149.014 333.682 146.003 332.763 143.048C331.661 139.333 330.29 135.705 328.66 132.194C326.255 127.263 323.775 122.385 319.961 117.918C321.299 118.254 322.334 118.493 323.358 118.776C326.521 119.653 329.721 120.367 332.936 121.027C335.57 121.568 338.261 121.54 340.918 121.869C343.055 122.073 345.171 122.46 347.244 123.026C352.361 124.65 357.284 126.844 361.922 129.566C365.47 131.578 369.156 133.332 372.714 135.335C378.511 138.707 384.02 142.561 389.185 146.856C394.81 151.323 400.207 156.076 405.356 161.095C408.756 164.465 412.096 167.897 415.376 171.391C416.726 172.938 417.88 174.649 418.814 176.483C414.49 175.736 410.838 173.654 406.768 173.334L406.704 173.318C404.478 172.483 402.182 171.852 399.845 171.433C394.501 169.427 388.864 168.708 383.303 167.691ZM394.966 105.352C394.334 107.358 394.116 109.474 394.327 111.569C394.339 111.686 394.375 111.8 394.432 111.903C394.489 112.006 394.565 112.097 394.657 112.17C394.75 112.243 394.855 112.296 394.968 112.326C395.081 112.357 395.199 112.364 395.315 112.348C395.856 112.303 396.063 111.91 396.056 111.368C396.04 110.358 396.051 109.346 396.051 108.335L396.143 108.334C396.222 107.482 396.306 106.63 396.378 105.776C396.409 105.582 396.378 105.383 396.287 105.209C396.196 105.034 396.052 104.895 395.875 104.811C395.684 104.761 395.481 104.79 395.31 104.891C395.14 104.993 395.016 105.158 394.966 105.352Z" fill="#3C4048"/>
<path d="M282.88 277.735C283.125 277.553 283.372 277.37 283.632 277.209C284.928 276.406 286.233 275.618 287.525 274.808C287.729 274.698 287.889 274.519 287.976 274.302C288.063 274.085 288.071 273.844 288 273.622C287.895 273.257 287.567 273.256 287.25 273.32C286.793 273.286 286.335 273.378 285.924 273.586C284.731 274.411 283.531 275.226 282.341 276.057C282.15 276.183 281.986 276.347 281.858 276.538C281.704 276.713 281.62 276.939 281.622 277.173C281.624 277.407 281.712 277.631 281.869 277.804C282.204 278.146 282.554 277.978 282.88 277.735ZM368.387 31.3016C368.916 28.4964 368.578 25.5944 367.419 22.9902C366.651 25.3104 367.414 27.6217 367.381 29.9307C367.346 30.0888 367.345 30.2526 367.378 30.4111C367.411 30.5697 367.478 30.7191 367.573 30.8492C367.668 30.9794 367.791 31.0871 367.931 31.1652C368.071 31.2433 368.227 31.2898 368.387 31.3016ZM344.95 100.435C344.934 100.632 344.993 100.827 345.115 100.981C345.237 101.135 345.413 101.236 345.607 101.262C345.722 101.285 345.84 101.282 345.953 101.254C346.067 101.227 346.173 101.176 346.265 101.103C346.358 101.031 346.434 100.94 346.488 100.835C346.543 100.731 346.575 100.616 346.582 100.499C346.855 98.1477 346.472 95.7667 345.477 93.624C344.405 96.1511 345.277 98.3281 344.95 100.435ZM332.507 77.4865C332.679 77.8488 332.91 78.1932 333.356 78.0736C333.502 78.0212 333.626 77.9221 333.71 77.7915C333.795 77.6608 333.835 77.5058 333.824 77.3501C333.836 76.4276 333.828 75.5051 333.828 74.5838L333.612 74.586C333.612 73.4321 333.607 72.2781 333.614 71.1241C333.616 70.6545 333.36 70.366 332.939 70.3973C332.785 70.4218 332.644 70.5012 332.543 70.6211C332.441 70.741 332.385 70.8936 332.385 71.0515C332.38 73.1268 332.398 75.2021 332.414 77.2763C332.414 77.3468 332.474 77.4172 332.507 77.4865ZM222.527 122.289C222.602 122.269 222.671 122.233 222.73 122.182C222.789 122.132 222.835 122.068 222.867 121.997C222.898 121.926 222.913 121.848 222.911 121.77C222.909 121.692 222.89 121.615 222.854 121.546C222.701 120.891 222.721 120.206 222.912 119.561C223.018 117.916 223.036 116.266 222.968 114.619L222.47 114.533C221.974 115.784 221.708 117.116 221.685 118.463C221.646 119.539 221.657 120.615 221.716 121.69C221.72 121.788 221.746 121.883 221.792 121.969C221.837 122.055 221.901 122.129 221.979 122.187C222.057 122.245 222.146 122.284 222.241 122.301C222.336 122.319 222.434 122.315 222.527 122.289ZM349.049 41.9466C349.444 41.9645 349.508 41.6111 349.56 41.3215C349.888 39.0069 349.664 36.6465 348.907 34.437L348.365 34.5331C348.365 36.7415 348.352 38.9499 348.376 41.1594C348.367 41.2562 348.377 41.354 348.406 41.4468C348.435 41.5396 348.482 41.6254 348.545 41.6991C348.608 41.7728 348.685 41.8327 348.772 41.8752C348.858 41.9178 348.953 41.9421 349.049 41.9466ZM234.836 99.9372C235.41 99.983 235.615 99.557 235.701 99.0583C236.029 97.0987 235.816 95.0855 235.085 93.2405L234.475 93.217C234.39 95.1145 234.311 97.0132 234.216 98.9096C234.19 99.4128 234.221 99.888 234.835 99.9372H234.836ZM326.875 110.404C326.845 110.864 327.011 111.217 327.393 111.302C327.586 111.329 327.782 111.28 327.942 111.167C328.101 111.053 328.212 110.883 328.252 110.69C328.829 108.827 328.259 107.049 327.793 105.272C327.736 105.176 327.656 105.096 327.561 105.039C327.467 104.981 327.359 104.948 327.249 104.942C327.173 104.94 327.097 104.955 327.027 104.986C326.957 105.017 326.895 105.064 326.845 105.123C326.795 105.181 326.759 105.25 326.739 105.325C326.719 105.4 326.715 105.478 326.729 105.554C326.79 106.4 326.857 107.247 326.888 107.65C326.888 108.864 326.924 109.636 326.875 110.404ZM291.672 84.3532C291.668 84.2962 291.651 84.2408 291.624 84.1908C291.597 84.1409 291.559 84.0975 291.513 84.0637C291.467 84.0299 291.415 84.0065 291.36 83.9951C291.304 83.9837 291.247 83.9846 291.192 83.9977C291.077 84.0027 290.967 84.0473 290.881 84.1239C290.795 84.2006 290.737 84.3047 290.717 84.4192C290.521 86.433 290.119 88.4703 291.359 90.8073C292.326 88.42 291.647 86.3704 291.673 84.3532H291.672ZM340.689 52.3053C340.501 54.7966 339.94 57.3192 341.304 59.6763C341.388 57.1973 341.998 54.6882 340.689 52.3053ZM330.422 31.8193C330.571 31.7762 330.701 31.6816 330.789 31.552C330.877 31.4224 330.917 31.2658 330.903 31.1093C330.905 29.1519 330.525 27.2134 329.786 25.4044C328.846 27.2997 329.589 29.2621 329.628 31.2099C329.628 31.3076 329.65 31.404 329.693 31.4915C329.736 31.579 329.798 31.6553 329.875 31.7144C329.952 31.7734 330.041 31.8136 330.136 31.8318C330.231 31.8501 330.329 31.8458 330.422 31.8193ZM397.691 142.075C397.881 142.051 398.055 141.958 398.181 141.813C398.307 141.668 398.377 141.482 398.377 141.289C398.42 140.631 398.427 139.971 398.397 139.312C398.284 138.704 398.604 137.913 398.226 137.191C398.052 136.861 397.858 136.453 397.399 136.561C397.253 136.606 397.124 136.696 397.029 136.817C396.934 136.938 396.877 137.085 396.866 137.239C396.711 138.607 396.746 139.99 396.969 141.349C397.028 141.779 397.262 142.089 397.691 142.075ZM368.017 99.1656C367.863 99.1555 367.71 99.2073 367.593 99.3099C367.476 99.4124 367.404 99.5575 367.392 99.7135C367.337 100.396 367.375 101.086 367.375 101.772H367.439C367.439 102.537 367.421 103.304 367.445 104.069C367.438 104.164 367.45 104.261 367.482 104.351C367.513 104.441 367.563 104.524 367.629 104.594C367.694 104.663 367.773 104.718 367.861 104.755C367.949 104.791 368.043 104.809 368.138 104.806C368.234 104.81 368.33 104.793 368.419 104.757C368.509 104.721 368.59 104.667 368.658 104.597C368.725 104.528 368.777 104.445 368.811 104.353C368.845 104.262 368.859 104.165 368.853 104.068C368.815 102.616 368.743 101.166 368.64 99.718C368.62 99.5655 368.546 99.4253 368.432 99.3237C368.317 99.2221 368.17 99.166 368.018 99.1656H368.017ZM233.885 58.292C234.23 58.2629 234.377 57.9398 234.382 57.6189C234.405 55.9595 234.514 54.2834 233.541 52.7526C233.125 54.308 233.024 55.9326 233.246 57.5283C233.267 57.9308 233.383 58.3334 233.885 58.292ZM298.031 34.5544C298.435 34.7109 298.602 34.3318 298.656 34.0691C298.842 33.1345 298.826 32.1705 298.609 31.2428C298.392 30.3151 297.98 29.4457 297.4 28.694C297.127 30.4903 297.194 32.3226 297.597 34.0937C297.632 34.1976 297.689 34.2925 297.764 34.372C297.839 34.4515 297.93 34.5137 298.031 34.5544ZM375.602 126.691C375.756 126.675 375.9 126.606 376.01 126.496C376.121 126.385 376.19 126.24 376.207 126.085C376.499 124.176 376.187 122.224 375.315 120.506C374.77 122.388 374.624 124.366 374.886 126.309C374.914 126.678 375.298 126.745 375.602 126.691ZM284.045 112.054C284.244 111.982 284.545 111.839 284.572 111.687C284.819 110.85 284.889 109.97 284.776 109.104C284.663 108.238 284.37 107.406 283.917 106.662C282.917 108.468 283.325 110.128 283.512 111.761C283.524 111.818 283.548 111.872 283.583 111.918C283.617 111.965 283.661 112.004 283.712 112.032C283.763 112.06 283.819 112.076 283.876 112.08C283.934 112.084 283.991 112.075 284.045 112.054ZM256.517 33.3971C256.478 33.6317 256.531 33.8723 256.665 34.0681C256.798 34.264 257.002 34.3998 257.232 34.447C257.874 34.4884 257.804 33.841 257.829 33.4094C257.937 31.6775 257.523 29.9533 256.643 28.4637C256.5 28.7888 256.396 29.13 256.333 29.4801C256.486 30.7797 256.547 32.0887 256.517 33.3971ZM254.106 109.645C253.89 110.311 253.813 111.014 253.879 111.711C253.946 112.408 254.154 113.084 254.492 113.695C255.143 112.55 255.366 111.207 255.12 109.91C255.084 109.725 254.84 109.545 254.651 109.434C254.603 109.403 254.549 109.384 254.492 109.378C254.436 109.373 254.379 109.38 254.326 109.401C254.273 109.422 254.225 109.454 254.187 109.497C254.149 109.539 254.121 109.59 254.106 109.645ZM358.405 114.615C357.991 115.42 357.815 116.328 357.9 117.231C357.985 118.134 358.327 118.992 358.884 119.703C359.214 117.996 359.047 116.229 358.405 114.615ZM273.848 88.2042C273.827 86.7718 273.823 85.3383 273.774 83.906C273.762 83.5314 273.624 83.1266 273.166 83.0673C272.583 82.9913 272.339 83.4129 272.292 83.8881C272.045 84.9952 272.037 86.143 272.267 87.2538C272.223 88.3731 271.877 89.5203 272.552 90.577C272.512 91.0578 272.864 91.0231 273.152 91.0086C273.208 91.0136 273.265 91.0046 273.317 90.9823C273.37 90.9601 273.416 90.9252 273.452 90.8809C273.488 90.8365 273.513 90.7839 273.524 90.7276C273.536 90.6714 273.533 90.6131 273.518 90.558L273.531 90.5401C273.8 90.4954 273.923 90.3578 273.818 90.076C273.999 89.4669 274.01 88.8189 273.848 88.2042ZM318.385 47.5017C318.351 47.5464 318.281 47.6023 318.291 47.6347C318.33 47.7381 318.378 47.8379 318.433 47.9333C318.389 48.1003 318.385 48.2754 318.42 48.4445C318.456 48.6136 318.53 48.7717 318.638 48.9061C318.996 49.4182 319.357 49.8118 319.742 48.9262C319.776 48.9066 319.805 48.8798 319.828 48.8476C319.851 48.8154 319.866 48.7785 319.874 48.7396C319.881 48.7007 319.88 48.6607 319.87 48.6222C319.861 48.5838 319.844 48.5479 319.819 48.517C319.863 48.4689 319.957 48.4029 319.947 48.3761C319.897 48.2607 319.838 48.1496 319.77 48.044C319.844 47.565 319.793 47.0749 319.623 46.6217C319.69 45.2418 319.931 43.8117 318.449 42.5292C318.211 43.8777 318.176 45.2547 318.344 46.6138C318.289 46.7566 318.265 46.9093 318.272 47.0621C318.279 47.215 318.317 47.3647 318.385 47.5017ZM383.526 33.756L383.715 33.7616C383.612 34.2907 383.638 34.8375 383.793 35.3539C383.462 37.3487 383.666 39.3967 384.384 41.2846C385.726 39.2865 385.212 37.3129 384.937 35.3617C385.197 34.2424 384.696 33.1991 384.617 32.1134C384.8 31.5431 384.738 30.9181 384.119 30.8487C383.492 30.7783 383.643 31.4794 383.589 31.8965C383.49 32.2728 383.538 32.6735 383.724 33.0146L383.716 33.7616V33.7549L383.526 33.756ZM245.356 356.513C248.439 354.21 251.293 351.609 253.878 348.748C255.178 347.412 256.135 345.774 256.665 343.978C256.756 343.589 256.864 343.195 256.403 342.987C255.945 342.782 255.676 343.134 255.47 343.444C254.738 344.713 253.936 345.94 253.067 347.119C250.055 350.623 246.682 353.791 243.004 356.571L244.473 356.62C244.62 356.664 244.774 356.677 244.926 356.659C245.078 356.64 245.225 356.591 245.357 356.513H245.356ZM221.404 287.969L221.423 287.823L221.337 287.876L221.404 287.969ZM246.938 134.416C246.883 134.049 246.722 133.627 246.26 133.599C245.7 133.563 245.705 134.047 245.696 134.41C245.624 135.959 245.778 137.51 246.153 139.014C246.282 139.49 246.552 139.991 247.03 139.925C247.601 139.846 247.516 139.243 247.476 138.557C247.319 137.322 247.152 135.865 246.938 134.416ZM288.152 134.195C288.152 135.939 288.139 137.681 288.16 139.424C288.165 139.908 288.336 140.369 288.934 140.336C289.029 140.331 289.122 140.307 289.208 140.265C289.293 140.223 289.37 140.164 289.433 140.092C289.496 140.02 289.544 139.936 289.574 139.844C289.604 139.753 289.616 139.657 289.608 139.561C289.844 137.697 289.561 135.803 288.791 134.093L288.152 134.195ZM309.027 132.146C309.141 132.555 309.427 132.868 309.843 132.79C310.036 132.756 310.208 132.646 310.322 132.486C310.437 132.325 310.485 132.126 310.456 131.93C310.171 130.223 310.121 128.442 308.986 126.943C308.58 128.655 308.594 130.441 309.027 132.146ZM267.498 125.457C267.494 125.556 267.511 125.654 267.547 125.746C267.583 125.837 267.637 125.92 267.707 125.989C267.776 126.059 267.859 126.112 267.951 126.147C268.042 126.182 268.139 126.197 268.237 126.192C268.43 126.163 268.605 126.061 268.725 125.905C268.845 125.749 268.901 125.552 268.881 125.355C268.85 123.521 269.024 121.655 267.984 119.957C267.434 121.734 267.268 123.61 267.498 125.458V125.457ZM346.207 130.45C345.038 130.548 346.053 131.89 345.685 132.556C345.596 133.562 345.729 134.575 346.075 135.522C346.118 135.67 346.211 135.798 346.338 135.885C346.464 135.972 346.616 136.012 346.768 135.998C346.862 135.99 346.954 135.96 347.036 135.912C347.118 135.865 347.188 135.799 347.243 135.721C347.298 135.643 347.335 135.554 347.352 135.46C347.37 135.366 347.367 135.269 347.343 135.176C347.32 134.263 347.2 133.354 346.985 132.466C346.739 131.765 347.302 130.357 346.207 130.45ZM376.557 142.85C376.691 144.899 376.561 146.858 377.761 148.524C378.296 145.666 377.907 144.023 376.557 142.85ZM235.446 308.781C235.598 307.387 236.181 306.051 235.936 304.268C235.454 304.904 235.154 305.66 235.068 306.456C234.981 307.251 235.112 308.056 235.446 308.781ZM236.45 314.73C236.019 314.754 236.171 315.138 236.178 315.382C236.183 315.591 236.291 315.863 236.564 315.729C236.707 315.659 236.759 315.4 236.808 315.304C236.781 314.965 236.673 314.718 236.45 314.73ZM247.225 256.3C246.79 256.631 245.991 257.042 246.529 257.712C246.97 258.262 247.4 257.406 247.879 257.3C248.089 257.255 248.271 257.127 248.487 257.252C248.669 259.367 249.237 260.385 250.009 259.915C250.052 259.337 249.775 258.732 250.133 257.953C250.292 257.959 250.45 257.987 250.602 258.035C250.983 258.233 251.386 258.706 251.761 258.143C252.042 257.721 251.804 257.282 251.496 256.893C251.256 256.567 250.955 256.292 250.61 256.086C250.264 255.879 249.881 255.744 249.484 255.689C249.086 255.634 248.681 255.659 248.294 255.764C247.906 255.869 247.543 256.051 247.225 256.3ZM269.174 252.253C269.249 252.268 269.327 252.266 269.401 252.248C269.475 252.229 269.544 252.194 269.604 252.146C269.663 252.098 269.711 252.036 269.745 251.967C269.779 251.898 269.797 251.822 269.798 251.745C269.805 251.59 269.763 251.436 269.678 251.307C269.593 251.178 269.469 251.08 269.325 251.027C268.853 250.766 268.303 250.691 267.78 250.816C266.922 250.979 266.135 251.405 265.525 252.037C264.916 252.668 264.514 253.475 264.373 254.345C265.724 252.965 267.123 251.889 269.174 252.253ZM252.2 242.639C255.065 242.429 257.798 241.336 260.03 239.508C259.497 238.768 258.743 238.222 257.878 237.951C257.013 237.68 256.085 237.698 255.232 238.003C254.3 238.256 253.447 238.741 252.749 239.414C252.052 240.087 251.532 240.926 251.239 241.854C251.011 242.62 251.575 242.676 252.201 242.639H252.2ZM259.074 244.748C257.949 245.481 256.994 246.324 257.332 247.988C258.078 247.133 258.926 246.376 259.857 245.732C259.945 245.692 260.023 245.631 260.085 245.555C260.147 245.48 260.191 245.391 260.214 245.295C260.237 245.2 260.238 245.1 260.217 245.004C260.196 244.908 260.154 244.818 260.093 244.741C259.789 244.35 259.404 244.534 259.074 244.748ZM255.8 243.461C255.092 243.905 254.666 244.468 255.24 245.415C255.576 245.266 255.851 245.007 256.022 244.68C256.193 244.352 256.25 243.976 256.183 243.612C256.173 243.541 255.874 243.414 255.8 243.461ZM194.184 331.277C194.069 331.446 194.096 331.589 194.275 331.618C194.776 331.701 195.069 331.37 195.497 330.878C195.267 330.776 195.009 330.761 194.768 330.834C194.528 330.907 194.321 331.064 194.184 331.277Z" fill="#3C4048"/>
</svg>
