<svg width="600" height="400" viewBox="0 0 600 400" fill="none" xmlns="http://www.w3.org/2000/svg">
<path d="M404.094 287.798C402.494 286.862 401.029 285.85 401.364 283.636C401.452 282.74 400.766 282.142 400.45 281.4C399.879 280.093 398.816 279.064 397.49 278.536C396.165 278.008 394.685 278.024 393.372 278.581C392.919 278.791 392.914 279.077 393.126 279.433C393.245 279.589 393.397 279.717 393.572 279.805C393.747 279.894 393.94 279.942 394.136 279.945C397.227 280.52 398.004 281.441 398.527 284.578C398.747 285.896 398.627 287.421 399.9 288.378C400.47 288.805 401.078 289.181 401.68 289.563C402.702 290.125 403.614 290.866 404.373 291.752C405.292 292.979 405.845 294.44 405.968 295.968C406.079 297.241 405.965 298.523 405.632 299.756C405.349 300.87 405.6 301.599 406.402 301.766C407.268 301.948 407.621 301.262 407.945 300.7C408.713 299.343 409.072 297.793 408.978 296.237C409.001 294.521 408.558 292.83 407.699 291.344C406.839 289.858 405.593 288.633 404.094 287.797V287.798ZM370.661 190.53C370.624 190.638 370.658 190.683 370.716 190.705C370.712 190.635 370.702 190.565 370.686 190.497C370.679 190.509 370.666 190.519 370.661 190.531V190.53Z" fill="#3C4048"/>
<path d="M393.842 181.787C393.855 181.497 393.77 181.21 393.601 180.973C393.432 180.737 393.188 180.564 392.909 180.482C392.039 180.081 391.083 179.899 390.127 179.954C389.17 180.008 388.241 180.297 387.422 180.794C385.366 181.914 384.142 183.957 382.355 185.38C382.09 185.648 381.733 185.803 381.357 185.815C380.859 185.865 380.356 185.815 379.877 185.668C379.399 185.522 378.954 185.282 378.569 184.962C378.323 184.726 378.023 184.551 377.696 184.453C377.369 184.355 377.023 184.336 376.687 184.398C373.769 184.688 371.032 186.461 370.493 189.476C370.486 189.826 370.552 190.173 370.685 190.497C370.743 190.393 370.833 190.311 370.942 190.264C371.132 190.187 371.163 190.349 371.173 190.49C371.186 190.68 371.043 190.705 370.898 190.74C370.836 190.733 370.776 190.722 370.716 190.705C370.726 190.821 370.71 190.937 370.67 191.046C370.631 191.155 370.568 191.255 370.486 191.337C370.413 191.407 370.356 191.491 370.319 191.584C370.282 191.677 370.265 191.777 370.269 191.878C370.273 191.978 370.299 192.076 370.345 192.166C370.39 192.255 370.455 192.334 370.533 192.397C370.701 192.561 370.906 192.682 371.132 192.748C371.357 192.815 371.595 192.824 371.825 192.777C372.222 192.688 372.153 192.221 372.236 191.881C372.406 190.934 372.796 190.04 373.374 189.27C373.952 188.501 374.703 187.877 375.565 187.45C375.78 187.331 376.02 187.263 376.265 187.254C376.511 187.244 376.755 187.292 376.979 187.394C377.97 187.799 378.986 188.145 379.997 188.502C380.657 188.781 381.386 188.852 382.087 188.706C382.788 188.559 383.428 188.202 383.921 187.682C385.206 186.406 386.519 185.153 387.742 183.819C388.183 183.324 388.74 182.948 389.364 182.726C389.988 182.503 390.658 182.44 391.312 182.544C391.803 182.663 392.319 182.623 392.785 182.429C393.153 182.233 393.795 182.494 393.842 181.787ZM388.658 219.912C388.331 219.721 387.957 219.626 387.578 219.641C387.2 219.655 386.833 219.777 386.522 219.992C384.613 221.035 383.066 222.634 382.088 224.577C381.912 225.043 381.862 225.548 381.946 226.039C382.006 227.951 382.42 230.002 380.386 231.314C379.739 231.73 379.07 232.1 378.439 232.558C377.422 233.296 376.594 234.264 376.02 235.382C375.447 236.501 375.146 237.738 375.14 238.995C375.077 240.005 375.224 241.018 375.573 241.968C375.922 242.918 376.464 243.786 377.166 244.515C377.494 244.801 377.917 244.954 378.352 244.945C378.48 244.955 378.607 244.923 378.715 244.854C378.823 244.785 378.905 244.682 378.948 244.561C379.042 244.29 378.764 244.218 378.601 244.099C378.211 243.747 377.927 243.293 377.781 242.789C377.251 241.294 377.176 239.676 377.565 238.139C377.632 237.375 377.893 236.641 378.324 236.007C378.755 235.373 379.341 234.859 380.027 234.516C381.175 233.914 382.246 233.175 383.217 232.316C384.959 230.874 384.905 228.733 384.875 226.8C384.821 226.044 384.981 225.289 385.338 224.621C385.695 223.952 386.234 223.399 386.892 223.024C387.53 222.607 388.136 222.139 388.747 221.68C388.894 221.58 389.013 221.444 389.093 221.285C389.172 221.126 389.209 220.949 389.2 220.771C389.191 220.593 389.137 220.421 389.042 220.27C388.947 220.12 388.815 219.997 388.658 219.912ZM190.223 43.9301C190.842 43.7771 190.647 43.4051 190.563 43.0161C190.404 42.0288 190.537 41.0166 190.944 40.1036C191.352 39.1906 192.018 38.4164 192.859 37.8761C194.081 37.2822 195.412 36.9446 196.769 36.8841C198.153 36.8041 199.595 36.8011 200.648 35.6901C201.376 34.8365 201.963 33.8728 202.388 32.8351C203.011 31.6575 203.723 30.5287 204.516 29.4581C204.816 28.9106 205.28 28.4709 205.843 28.2011C206.963 27.8701 208.077 27.2791 209.321 27.6011C210.2 27.4581 211.081 27.3311 211.954 27.1581C212.056 27.1321 212.152 27.0851 212.235 27.02C212.318 26.9549 212.386 26.8732 212.436 26.7801C212.556 26.5001 212.286 26.3231 212.087 26.1881C211.561 25.8064 210.908 25.6434 210.265 25.7331C208.53 26.0051 206.737 25.6171 205.081 26.8391C204.128 27.3414 203.219 27.9238 202.365 28.5801C201.379 29.5771 201.077 30.9381 200.301 32.0211C199.609 32.9881 199.44 34.4511 197.942 34.7111C197.308 34.8211 196.662 34.8711 196.032 34.9981C193.981 35.4101 191.879 35.7181 190.426 37.4861C189.909 38.1141 189.996 39.0751 189.644 39.5881C188.778 40.8511 189.106 42.025 189.34 43.26C189.417 43.667 189.606 44.0841 190.223 43.9301ZM176.509 257.187C175.741 259.011 176.652 260.177 177.969 261.292C179.003 261.971 180.1 262.552 181.243 263.025C181.41 263.309 181.653 263.297 181.919 263.198L182.281 263.274C182.388 263.53 182.579 263.501 182.785 263.422C182.813 263.453 182.847 263.477 182.884 263.494C182.922 263.511 182.963 263.519 183.005 263.519C183.046 263.519 183.087 263.51 183.125 263.492C183.162 263.475 183.196 263.45 183.223 263.419C183.332 263.545 183.465 263.648 183.614 263.721C183.764 263.794 183.927 263.836 184.093 263.844L184.153 263.916L184.246 263.914C184.374 264.148 184.646 264.177 184.729 264.001C184.939 263.554 184.693 263.245 184.272 263.059C182.999 261.93 181.579 260.98 180.051 260.233C179.563 260.048 179.156 259.698 178.9 259.244C178.644 258.79 178.555 258.26 178.649 257.747C178.893 256.816 179.233 255.907 179.437 254.969C179.701 253.755 179.96 252.454 179.137 251.384C178.132 250.069 177.033 248.828 175.849 247.672C175.237 247.178 174.782 246.515 174.542 245.765C174.302 245.016 174.286 244.212 174.496 243.454C174.627 242.79 174.712 242.118 174.75 241.442C174.805 240.962 174.66 240.518 174.183 240.409C173.703 240.299 173.46 240.699 173.257 241.106C172.915 241.79 172.949 242.606 172.619 243.247C171.544 245.337 172.696 247.763 174.143 249.158C176.187 251.131 178.123 253.06 176.761 256.26C176.637 256.552 176.631 256.894 176.509 257.187ZM421.03 130.343C420.65 129.984 420.185 129.456 420.302 128.952C420.596 127.686 420.312 126.413 420.533 125.149C420.919 122.941 420.143 120.298 417.643 120.045C417.177 120.019 416.711 120.017 416.245 120.038V119.976H414.953C414.65 119.974 414.364 120 414.31 120.384C414.288 120.527 414.314 120.673 414.383 120.799C414.453 120.926 414.562 121.026 414.694 121.084C415.104 121.303 415.565 121.409 416.029 121.389C418.08 121.455 418.811 122.298 418.589 124.299C418.501 125.079 418.381 125.857 418.255 126.632C417.867 129.008 418.133 131.121 420.183 132.795C420.786 133.216 421.325 133.72 421.784 134.294C422.941 135.998 422.591 137.819 422.089 139.624C421.867 140.225 421.726 140.854 421.671 141.493C421.669 141.795 421.686 142.106 421.998 142.223C422.281 142.33 422.418 142.07 422.598 141.885C423.919 140.454 424.753 138.641 424.98 136.707C425.073 135.853 424.831 134.995 424.305 134.316C423.338 132.894 422.241 131.563 421.03 130.342V130.343ZM408.903 38.9601C408.364 38.0844 407.628 37.3469 406.754 36.8065C405.879 36.2662 404.89 35.9379 403.866 35.8481C402.101 35.7001 400.432 35.1961 398.703 34.9581C398.577 34.9557 398.454 34.9157 398.35 34.8432C398.246 34.7707 398.167 34.669 398.121 34.5511C397.487 32.7171 396.177 31.1944 394.458 30.2941C393.074 29.5281 390.388 29.2991 389.291 30.3581C389.119 30.4855 388.993 30.6652 388.932 30.8701C388.871 31.0751 388.878 31.2943 388.952 31.4951C389.144 31.8381 389.62 31.6491 389.945 31.5611C390.556 31.3822 391.197 31.3274 391.83 31.3996C392.463 31.4719 393.075 31.6699 393.63 31.982C394.186 32.294 394.673 32.7139 395.064 33.2169C395.455 33.7199 395.741 34.2959 395.906 34.9111C396.015 35.436 396.265 35.9211 396.63 36.3138C396.995 36.7066 397.46 36.992 397.976 37.1391C399.644 37.6738 401.366 38.0232 403.111 38.1811C404.069 38.1206 405.014 38.4258 405.756 39.0351C406.592 39.6387 407.232 40.4737 407.599 41.4371C407.751 42.0391 407.914 42.9041 408.506 42.8231C409.206 42.7291 409.124 41.7681 409.286 41.1431C409.298 40.977 409.299 40.8102 409.288 40.6441C409.271 40.0627 409.14 39.4912 408.903 38.9601ZM257.158 124.508C257.688 124.242 257.572 123.712 257.372 123.277C257.111 122.787 256.989 122.234 257.022 121.68C257.054 121.125 257.238 120.59 257.555 120.134C258.26 119.105 259.063 118.146 259.953 117.271C260.935 116.282 261.629 115.043 261.958 113.689C262.332 111.725 262.167 109.695 261.481 107.817C261.422 107.627 261.252 107.494 261.36 107.233C261.69 106.079 262.325 105.034 263.198 104.21C263.583 103.961 263.937 103.665 264.25 103.33C264.355 103.206 264.427 103.058 264.462 102.9C264.496 102.741 264.492 102.576 264.448 102.42C264.386 102.218 264.2 102.148 263.931 102.197C261.974 102.558 260.244 104.639 259.705 106.43C259.212 108.07 259.768 109.61 260.001 111.18C260.159 111.749 260.183 112.347 260.07 112.927C259.957 113.507 259.71 114.052 259.35 114.52C257.881 116.039 256.572 117.705 255.442 119.49C255.054 120.181 254.825 120.95 254.774 121.741C254.58 122.75 255.283 123.413 255.73 124.151C255.8 124.269 255.892 124.372 256.002 124.454C256.112 124.536 256.237 124.595 256.369 124.628C256.502 124.661 256.64 124.668 256.776 124.647C256.911 124.627 257.041 124.579 257.158 124.508ZM257.11 36.5751C257.536 36.6041 257.966 36.5741 258.394 36.5681L259.254 36.7901C260.23 37.1151 261.346 37.5691 261.519 38.5611C261.748 39.6719 261.838 40.807 261.786 41.9401C261.568 43.0129 261.631 44.1238 261.969 45.1651C262.503 46.4509 263.386 47.5622 264.517 48.3741C265.385 49.1212 266.478 49.5557 267.622 49.6081C268.188 49.5015 268.77 49.5302 269.323 49.692C269.875 49.8539 270.381 50.1441 270.8 50.5391C271.428 51.2184 272.093 51.8627 272.792 52.4691C272.966 52.6323 273.194 52.725 273.433 52.7291C273.671 52.7331 273.903 52.6483 274.082 52.4911C274.494 52.1191 274.202 51.711 273.917 51.371C273.389 50.739 272.851 50.1171 272.325 49.4831C271.825 48.8698 271.189 48.3809 270.468 48.0547C269.747 47.7285 268.96 47.5739 268.169 47.6031C267.004 47.6092 265.883 47.1589 265.046 46.3486C264.21 45.5383 263.723 44.4325 263.692 43.2681C263.755 41.6652 263.606 40.0611 263.25 38.4971C263.178 38.0002 262.973 37.5321 262.656 37.1425C262.34 36.7528 261.924 36.4562 261.452 36.2841C260.079 35.796 258.614 35.6217 257.165 35.774C256.897 35.804 256.741 35.8921 256.729 36.1241C256.721 36.2341 256.756 36.3429 256.827 36.4271C256.899 36.5114 257 36.5651 257.11 36.5751ZM376.666 133.95C376.594 133.958 376.524 133.982 376.461 134.018C376.398 134.054 376.343 134.103 376.299 134.161C376.256 134.22 376.225 134.286 376.208 134.357C376.191 134.428 376.189 134.501 376.201 134.573C376.251 134.856 376.481 134.926 376.743 135.008C379.442 135.852 381.33 137.448 381.648 140.439C381.716 140.831 381.934 141.181 382.255 141.416C383.121 142.274 384.207 142.875 385.394 143.153C385.654 143.204 385.897 143.315 386.105 143.479C386.313 143.642 386.479 143.853 386.59 144.093C387.084 145.068 387.35 146.143 387.369 147.236C387.347 147.469 387.409 147.701 387.545 147.892C387.681 148.082 387.881 148.216 388.108 148.271C388.64 148.423 388.905 148.083 389.183 147.747C389.542 147.324 389.779 146.812 389.868 146.265C389.958 145.718 389.897 145.157 389.692 144.642C389.097 142.858 388.326 141.255 386.155 140.968C385.49 140.901 384.866 140.614 384.383 140.151C383.901 139.688 383.587 139.076 383.493 138.414C383.103 137.163 382.353 136.055 381.337 135.227C380.321 134.399 379.084 133.888 377.78 133.758C377.397 133.624 377.039 133.852 376.666 133.95ZM223.595 270.807C222.733 271.5 221.68 271.914 220.577 271.995C219.327 272.301 218.215 273.017 217.419 274.029C216.792 274.658 217.059 275.58 216.679 276.164C216.246 276.829 216.488 277.576 216.042 278.164C216.296 278.546 216.117 279.157 216.738 279.271C217.406 279.393 217.568 278.741 217.591 278.419C217.683 277.95 217.831 277.495 218.032 277.061C218.178 276.337 218.51 275.663 218.995 275.106C219.481 274.55 220.103 274.129 220.801 273.886C221.411 273.698 222.06 273.632 222.671 273.447C225.238 272.67 226.701 271.097 226.945 268.474C227.037 267.551 227.479 266.698 228.179 266.09C228.983 265.573 229.828 265.126 230.707 264.751C231.31 264.365 231.045 263.891 230.987 263.426C230.981 263.344 230.957 263.264 230.917 263.192C230.877 263.12 230.822 263.058 230.756 263.009C230.689 262.96 230.614 262.926 230.533 262.909C230.453 262.892 230.369 262.892 230.289 262.91C228.177 263.26 225.059 265.453 224.911 267.998C224.893 268.531 224.768 269.055 224.542 269.538C224.315 270.021 223.993 270.453 223.595 270.808V270.807ZM226.863 210.972C226.845 210.649 226.913 210.312 226.563 210.122C226.097 209.869 225.873 210.336 225.697 210.546C225.212 211.227 224.918 212.026 224.846 212.859C224.472 214.497 224.739 216.216 225.592 217.662C226.446 219.109 227.821 220.174 229.436 220.638C230.991 221.198 231.302 221.787 230.96 223.396C230.646 224.179 230.452 225.005 230.385 225.846C230.255 226.42 230.356 227.023 230.665 227.524C230.868 227.804 231.295 228.176 231.515 227.705C232.095 226.463 233.025 225.386 233.252 223.975C233.67 221.362 232.418 219.053 230.202 218.409C229.284 218.19 228.461 217.679 227.859 216.953C227.256 216.226 226.906 215.324 226.86 214.381C226.689 213.224 226.928 212.107 226.863 210.972ZM180.969 209.684C180.986 209.847 181.057 210 181.171 210.118C181.285 210.236 181.435 210.313 181.598 210.336C181.999 210.395 182.032 210.063 182.16 209.812C182.737 208.635 183.627 207.641 184.734 206.94C185.841 206.238 187.12 205.857 188.43 205.837C189.225 205.759 189.972 205.42 190.554 204.873C191.135 204.325 191.52 203.601 191.646 202.812C191.811 201.508 192.357 200.281 193.216 199.286C193.841 198.525 194.619 197.904 195.499 197.463C196.379 197.022 197.342 196.77 198.325 196.724C198.614 196.704 199.05 196.756 199.037 196.271C199.026 195.875 198.648 195.726 198.357 195.683C197.541 195.574 196.712 195.607 195.907 195.783C194.122 196.14 192.969 197.408 191.664 198.474C191.357 198.578 191.114 198.735 191.144 199.114C190.744 200.099 189.924 200.883 189.764 201.984C189.569 203.314 189.035 203.906 187.715 204.008C185.662 204.148 183.725 205.013 182.25 206.448C181.763 206.821 181.387 207.319 181.162 207.889C180.936 208.459 180.869 209.079 180.969 209.684ZM390.662 94.9451C388.144 96.9741 388.053 99.8121 390.002 102.222C390.316 102.611 390.705 103.102 391.253 102.69C391.74 102.326 391.253 101.905 391.097 101.548C390.445 100.056 390.207 98.5621 391.303 97.2001C391.809 96.5701 392.585 96.1651 393.135 95.5631C394.412 94.1661 395.639 92.7131 394.434 90.6431C394.333 90.4711 394.411 90.3081 394.437 90.1311C394.661 88.6111 395.009 87.1781 396.628 86.4981C396.832 86.4271 397.014 86.304 397.156 86.1411C397.394 85.8081 397.786 85.4621 397.406 85.0011C397.342 84.892 397.257 84.7971 397.155 84.7222C397.053 84.6473 396.937 84.594 396.814 84.5654C396.691 84.5369 396.563 84.5337 396.439 84.5562C396.315 84.5786 396.196 84.6262 396.091 84.6961C395.756 84.9021 395.438 85.1411 395.091 85.3231C394.012 85.849 393.163 86.7512 392.703 87.8599C392.243 88.9685 392.205 90.207 392.595 91.3421C392.654 91.5956 392.699 91.8524 392.729 92.1111C392.604 93.4511 391.589 94.1981 390.662 94.9451ZM211.575 80.8771C211.127 80.8251 211.029 81.4731 210.81 81.8221C210.683 82.0788 210.626 82.3644 210.645 82.6501C210.611 83.5755 210.799 84.4957 211.194 85.3333C211.589 86.171 212.179 86.9017 212.915 87.4641C213.497 87.8695 214.111 88.2273 214.75 88.534C215.355 88.9536 215.817 89.5477 216.075 90.2369C216.333 90.9261 216.374 91.6776 216.194 92.3911C215.775 93.547 215.683 94.7959 215.926 96.001C216.169 97.2062 216.74 98.3211 217.574 99.2241C217.727 99.4496 217.955 99.614 218.218 99.6882C218.48 99.7625 218.76 99.7419 219.009 99.6301C219.665 99.2641 219.206 98.7681 219.02 98.3331C218.922 98.1035 218.811 97.8801 218.686 97.6641C217.888 96.2841 217.221 94.9101 218.068 93.2701C218.333 92.6348 218.401 91.9343 218.262 91.2601C218.161 90.2268 217.789 89.2385 217.185 88.3946C216.58 87.5507 215.764 86.881 214.818 86.4531C212.679 85.5891 212.045 83.9731 211.83 81.8611C211.75 81.5811 212.24 80.9561 211.575 80.8771ZM325.703 107.114C327.12 108.205 327.203 109.297 325.932 110.568C325.653 110.826 325.433 111.142 325.288 111.493C324.494 113.491 325.351 115.053 326.411 116.643C327.056 117.611 327.796 118.62 327.223 119.945C327.065 120.382 326.979 120.842 326.968 121.306C326.951 121.526 326.957 121.836 327.266 121.932C327.519 122.01 327.62 121.827 327.765 121.648C328.572 120.754 329.07 119.624 329.187 118.425C329.122 118.246 329.076 118.061 329.049 117.873C328.964 116.585 328.028 115.695 327.449 114.668C327.143 114.109 327.019 113.469 327.096 112.837C327.172 112.204 327.445 111.612 327.875 111.142C328.36 110.615 328.674 109.953 328.776 109.244C328.877 108.535 328.762 107.812 328.445 107.17C327.814 105.466 326.387 104.822 324.803 104.386C324.487 104.3 324.433 104.53 324.358 104.813C324.032 106.05 324.956 106.539 325.703 107.114ZM290.327 66.9241C292.092 65.0201 294.116 64.8711 296.412 65.8241C297.021 66.0666 297.673 66.1859 298.328 66.1751C298.984 66.1643 299.631 66.0236 300.232 65.7611C301.244 65.3691 301.611 64.3891 302.412 63.8211C302.857 63.5061 303.514 63.4191 303.736 62.8071C304.13 62.5331 304.589 62.3692 305.067 62.3321C305.545 62.295 306.025 62.3861 306.456 62.5961C307.324 62.9221 308.173 63.3101 309.062 63.5601C309.536 63.6931 310.209 63.9241 310.497 63.2631C310.788 62.5961 310.137 62.3641 309.737 62.0311C309.072 61.4771 308.178 61.5761 307.448 61.1951C306.991 60.9161 306.475 60.7476 305.942 60.7028C305.409 60.658 304.872 60.7382 304.375 60.9371L303.328 61.1891C303.168 61.1662 303.005 61.207 302.874 61.3026C302.743 61.3983 302.655 61.5413 302.628 61.7011C301.869 61.9836 301.156 62.3764 300.512 62.8671C300.244 62.8831 299.926 62.8291 299.947 63.2601C299.545 63.5762 299.068 63.7806 298.562 63.8526C298.056 63.9246 297.54 63.8616 297.066 63.6701C293.835 62.5921 290.931 62.9151 289.062 65.8041C288.736 66.3071 288.395 66.8571 288.94 67.3241C289.478 67.7871 289.98 67.2981 290.327 66.9241ZM206.459 159.213C206.316 159.469 206.274 159.768 206.339 160.054C206.404 160.339 206.573 160.59 206.813 160.758C207.179 161.132 207.653 160.67 208.031 160.285C209.294 158.992 209.389 157.286 209.647 155.679C209.735 155.04 209.637 154.39 209.365 153.805C209.093 153.22 208.658 152.726 208.113 152.382C207.987 152.15 207.897 151.889 207.62 151.78L206.874 150.941C206.677 150.428 207.117 149.797 206.579 149.347L206.643 148.858C206.786 148.693 206.95 148.535 206.83 148.284L206.907 147.661C207.001 147.582 207.071 147.479 207.11 147.363C207.149 147.247 207.155 147.122 207.127 147.003L207.46 146.453C207.795 146.322 207.77 146.001 207.841 145.73C207.937 145.738 208.033 145.721 208.121 145.682C208.209 145.642 208.285 145.582 208.343 145.505C208.401 145.428 208.439 145.338 208.453 145.243C208.467 145.147 208.457 145.05 208.423 144.96C208.376 144.885 208.309 144.823 208.23 144.783C208.15 144.742 208.061 144.725 207.972 144.731C207.883 144.737 207.798 144.768 207.725 144.819C207.652 144.87 207.595 144.941 207.559 145.022C207.531 145.018 207.502 145.022 207.475 145.033C207.449 145.045 207.426 145.063 207.41 145.087C206.982 145.07 206.887 145.427 206.72 145.703C206.642 145.724 206.574 145.773 206.529 145.839C206.484 145.906 206.464 145.987 206.473 146.067C206.33 146.14 206.21 146.25 206.124 146.386C206.038 146.521 205.99 146.677 205.984 146.837C205.954 146.851 205.928 146.873 205.909 146.901C205.89 146.928 205.879 146.961 205.877 146.994C205.454 147.092 205.53 147.404 205.57 147.702L205.513 148.112L205.386 148.574L205.29 148.975C205.426 149.244 205.495 149.542 205.49 149.843C205.493 150.039 205.479 150.236 205.465 150.433C205.479 150.236 205.494 150.039 205.49 149.843C205.495 149.542 205.426 149.244 205.29 148.975C205.203 149.768 204.766 150.588 205.479 151.316L205.628 151.524C205.661 151.95 205.558 152.436 206.116 152.632C206.346 152.856 206.591 153.067 206.803 153.307C207.443 154.033 208.113 154.75 207.761 155.855C207.461 157.022 207.024 158.149 206.459 159.213ZM435.28 206.99C434.294 205.637 433.212 204.357 432.042 203.16L431.792 202.315L431.809 200.805L431.963 200.619C431.911 200.561 431.843 200.52 431.768 200.5C431.693 200.479 431.614 200.482 431.54 200.506L431.367 199.941C431.838 199.798 431.794 199.501 431.682 199.104C431.319 197.806 430.276 197.442 429.146 197.166C428.789 197.079 428.466 197.135 428.335 197.48C428.178 197.895 428.545 198.053 428.842 198.153C429.148 198.236 429.434 198.379 429.684 198.574C429.933 198.769 430.141 199.012 430.295 199.289C430.266 199.797 430.325 200.306 430.47 200.794C429.74 201.399 430.124 202.07 430.355 202.732C430.323 204.076 431.258 204.919 431.995 205.855C433.229 207.424 434.657 208.922 433.47 211.163C433.404 211.325 433.371 211.498 433.373 211.673C433.345 211.815 433.363 211.963 433.425 212.094C433.487 212.225 433.59 212.333 433.718 212.401C433.856 212.448 434.004 212.455 434.145 212.42C434.286 212.385 434.415 212.311 434.515 212.206C434.908 211.914 435.239 211.547 435.491 211.127C435.742 210.707 435.907 210.241 435.978 209.756C436.049 209.272 436.024 208.778 435.904 208.304C435.784 207.829 435.572 207.383 435.279 206.99H435.28ZM167.232 112.28C167.511 112.231 167.787 112.161 168.055 112.07C168.425 111.905 168.828 111.828 169.233 111.845C169.638 111.862 170.033 111.974 170.388 112.17C171.183 112.633 171.869 113.26 172.402 114.01L172.697 114.607C172.872 114.987 173.013 115.394 173.477 115.527C173.784 116.283 174.379 116.886 175.131 117.204C175.882 117.522 176.73 117.528 177.486 117.222C178.086 116.985 178.742 116.928 179.374 117.058C180.171 117.253 180.999 117.285 181.809 117.152C182.77 117.102 183.725 117.324 184.565 117.793C185.124 118.037 184.876 118.77 185.075 119.254C185.167 119.445 185.272 119.63 185.388 119.807C185.443 119.955 185.536 120.086 185.658 120.186C185.779 120.287 185.925 120.354 186.081 120.38C186.236 120.407 186.396 120.392 186.544 120.337C186.692 120.282 186.823 120.19 186.924 120.068C187.388 119.68 187.146 119.343 186.742 119.072C186.767 118.602 186.72 118.131 186.601 117.675L186.434 117.222C186.512 116.818 186.206 116.616 185.984 116.371C185.422 115.899 184.768 115.55 184.063 115.344C183.359 115.138 182.62 115.08 181.892 115.175L179.754 115.12C179.444 114.715 179.044 114.942 178.674 114.966L177.628 115.146C177.401 115.028 177.304 115.21 177.184 115.338L176.211 115.382C176.143 115.297 176.052 115.232 175.95 115.194C175.848 115.157 175.737 115.147 175.63 115.167C175.37 115.05 175.369 114.647 175.028 114.618C174.852 114.451 174.688 114.271 174.538 114.081C173.92 113.077 173.202 112.139 172.396 111.279C171.885 110.784 171.217 110.971 170.689 110.704C169.767 110.239 167.471 110.502 166.822 111.247C166.681 111.408 166.443 111.59 166.636 111.9C166.687 112.015 166.77 112.113 166.876 112.181C166.982 112.248 167.106 112.283 167.232 112.28ZM304.681 261.88C304.259 262.357 303.839 262.839 303.456 263.348C302.357 264.81 300.753 265.798 299.736 267.334C299.596 267.546 299.166 267.73 299.494 268.022C299.613 268.16 299.779 268.251 299.96 268.276C300.141 268.301 300.325 268.26 300.478 268.16C300.823 267.963 301.106 267.675 301.296 267.327C301.378 267.137 301.36 266.871 301.606 266.793C302.836 266.399 303.432 265.241 304.326 264.457C304.863 263.801 305.289 263.063 305.588 262.27C305.493 262.055 305.366 261.856 305.21 261.68C304.989 261.507 304.81 261.735 304.681 261.88ZM333.521 42.2681C334.971 41.7741 336.377 41.4851 337.694 42.6681C338.161 43.0627 338.701 43.3605 339.284 43.5441C339.814 43.7211 340.332 44.2371 340.902 43.9901C342.338 43.377 343.836 42.9207 345.37 42.6291C346.795 42.3501 348.362 42.0341 349.392 43.6531C349.684 44.06 350.041 44.417 350.447 44.7101C350.592 44.8501 350.78 44.9375 350.981 44.9581C351.182 44.9788 351.383 44.9316 351.554 44.8241C351.719 44.7054 351.83 44.5263 351.864 44.3258C351.897 44.1253 351.85 43.9197 351.732 43.7541C351.253 42.5715 350.452 41.5468 349.42 40.7961C348.956 40.5321 348.55 40.106 347.98 40.135C345.798 40.245 343.596 40.2191 341.548 41.1971C341.228 41.343 340.879 41.4132 340.528 41.4023C340.176 41.3913 339.832 41.2996 339.522 41.1341C338.76 40.7951 338.316 39.9651 337.424 39.8981C336.319 39.1251 333.356 39.9151 332.439 41.2331C332.162 41.6311 331.947 42.0861 332.344 42.4941C332.796 42.9591 333.176 42.6021 333.521 42.2681Z" fill="#3C4048"/>
<path d="M380.132 353.767C380.238 352.451 380.212 351.128 380.054 349.817C379.808 348.478 379.384 347.586 378.679 347.631C377.193 347.725 375.697 347.733 374.222 347.913C371.916 348.193 369.628 348.654 367.3 348.723C365.657 348.771 364.006 348.626 362.364 348.699C358.356 348.879 354.351 349.121 350.337 349.149C349.767 349.152 349.197 349.258 348.627 349.303C348.452 349.317 348.259 349.309 348.169 349.114C348.14 349.048 348.137 348.973 348.16 348.905C348.184 348.836 348.232 348.779 348.295 348.744C349.661 347.759 350.969 346.676 352.414 345.824C353.884 344.959 355.516 344.352 356.613 342.961C357.225 342.185 358.351 341.998 358.801 341.101C359.336 340.211 359.99 339.4 360.745 338.688C361.607 337.826 362.404 336.901 363.129 335.921C365.261 332.478 367.843 329.335 370.807 326.575C372.302 325.295 373.545 323.747 374.474 322.012C375.924 319.159 377.374 316.256 377.721 312.949C377.704 311.952 377.739 310.955 377.825 309.961C378.06 308.763 377.962 307.524 377.541 306.378C377.124 305.19 376.804 303.966 376.341 302.798C375.24 300.016 374.802 297.017 373.385 294.33C371.725 291.281 369.095 288.874 365.912 287.488C363.626 286.408 361.354 285.184 358.778 284.89C357.34 284.726 355.838 284.97 354.458 284.833C352.348 284.623 350.092 284.703 348.124 283.547C347.891 283.375 347.604 283.292 347.315 283.313C347.026 283.335 346.754 283.459 346.548 283.663C346.423 283.791 346.273 283.893 346.107 283.961C345.941 284.03 345.763 284.064 345.584 284.061C343.741 283.716 341.961 284.237 340.16 284.319C336.766 284.611 333.421 285.325 330.203 286.444C326.99 287.473 323.721 288.321 320.413 288.984C318.247 289.377 316.09 289.861 313.921 290.195C311.156 290.622 308.431 291.203 305.691 291.738C303.168 292.23 300.627 292.643 298.085 293.034C294.439 293.595 290.825 294.362 287.149 294.731C281.971 295.251 276.785 295.663 271.594 296.033C268.282 296.279 264.957 296.272 261.646 296.014C261.02 295.862 260.378 295.78 259.734 295.768C257.902 295.856 256.067 295.79 254.246 295.571C253.579 295.549 253.28 295.225 253.434 294.631C253.742 293.44 253.346 292.24 253.75 290.988C254.1 289.908 253.707 288.581 253.668 287.361C253.493 285.507 253.444 283.643 253.521 281.782C253.779 279.253 254.195 276.748 254.501 274.23C254.961 270.427 255.079 266.583 255.451 262.767C255.506 262.2 255.087 261.68 255.324 261.26C255.974 260.11 255.709 258.9 255.743 257.706C255.808 255.366 255.447 253.037 255.718 250.676C255.932 249.66 255.795 248.602 255.332 247.673L255.303 247.231C255.467 246.647 255.473 246.03 255.321 245.443C255.289 245.252 255.295 245.056 255.34 244.868C255.384 244.679 255.465 244.501 255.578 244.344C256.319 243.224 257.075 242.114 257.792 240.975C259.234 238.965 260.526 236.85 261.657 234.65C263.246 231.477 264.582 228.183 265.652 224.799C266.153 222.917 267.169 221.202 267.526 219.263C267.602 218.487 267.789 217.726 268.08 217.002C268.802 215.692 269.09 214.187 268.904 212.703C268.875 212.599 268.869 212.491 268.885 212.385C268.901 212.278 268.94 212.177 268.999 212.087C269.541 211.244 269.847 210.271 269.885 209.27C270.435 206.569 270.84 203.841 271.096 201.097C271.428 197.909 271.508 194.7 271.336 191.5C271.311 191.15 271.375 190.763 270.983 190.547L270.937 189.797C271.139 189.291 270.845 188.852 270.747 188.387C270.686 188.274 270.602 188.147 270.763 188.065C270.805 188.044 270.91 188.147 270.985 188.192C272.035 188.597 273.142 188.838 274.266 188.905C274.813 188.98 275.776 189.319 275.868 190.14C276.071 191.95 276.658 193.67 276.961 195.458C277.609 199.267 279.523 202.62 281.227 206.023C282.633 208.831 284.892 210.966 287.149 213.109C288.922 214.627 291.077 215.631 293.379 216.013C297.079 216.871 300.322 215.559 303.175 213.191C303.611 212.829 303.704 212.122 304.293 211.917C304.666 211.748 305 211.504 305.273 211.198C305.546 210.893 305.753 210.534 305.879 210.145C306.016 209.781 306.223 209.448 306.489 209.165C307.775 208.085 308.105 206.439 308.953 205.101C309.591 204.227 310.007 203.212 310.168 202.142C310.242 201.83 310.337 201.524 310.453 201.225C311.016 199.536 311.41 197.795 311.629 196.028L311.662 195.605C311.932 195.375 312.134 195.074 312.244 194.736C312.354 194.399 312.369 194.037 312.286 193.692C312.228 193.022 312.277 192.347 312.433 191.693C312.502 191.199 313.068 190.645 312.443 190.134L312.427 189.858C312.597 189.755 312.731 189.6 312.807 189.416C312.884 189.232 312.9 189.029 312.854 188.835C312.776 188.567 312.76 188.285 312.806 188.01C312.853 187.736 312.961 187.475 313.122 187.247C313.284 187.02 313.495 186.833 313.739 186.698C313.984 186.564 314.256 186.487 314.534 186.473C314.809 186.386 315.061 186.237 315.271 186.039C316.041 185.424 316.241 185.799 316.236 186.572C316.256 186.856 316.26 187.141 316.246 187.426C316.033 189.066 316.57 190.746 315.985 192.366C315.964 192.424 316 192.503 316.008 192.572C316.253 194.886 316.012 197.226 316.388 199.532C316.289 199.792 316.291 200.079 316.393 200.337C316.533 201.269 316.587 202.211 316.553 203.153C316.527 203.778 316.328 204.669 317.068 205.194L317.055 205.686C316.813 205.886 316.805 206.086 317.058 206.283L317.068 206.583C317.005 206.7 316.871 206.829 316.887 206.935C317.419 210.435 317.937 213.937 318.52 217.429C319.104 220.245 319.855 223.023 320.77 225.749C321.844 228.984 323.165 232.132 324.72 235.165C325.005 235.775 325.203 236.556 325.909 236.905C326.183 237.042 326.407 237.261 326.551 237.531C326.694 237.801 326.751 238.109 326.712 238.412C326.745 239.374 326.697 240.336 326.57 241.29C325.945 243.92 326.21 246.57 326.257 249.2C326.221 252.368 326.383 255.535 326.743 258.682C326.936 259.254 327.064 259.845 327.124 260.446C326.921 262.899 327.663 265.263 328.058 267.618C328.436 269.862 329.058 272.127 329.623 274.368C330.409 277.064 331.364 279.709 332.483 282.285C332.612 282.614 332.739 283.035 333.235 282.797C334.029 282.417 335.028 282.484 335.63 281.72C335.686 281.649 335.456 281.365 335.377 281.172C335.013 280.601 334.724 279.986 334.515 279.342C334.412 277.987 333.998 276.675 333.307 275.505C333.018 275.137 332.828 274.701 332.755 274.238C332.659 272.65 331.891 271.235 331.69 269.673C331.481 268.045 330.975 266.461 330.894 264.81C330.846 263.816 330.932 262.751 329.319 262.823C329.473 262.77 329.614 262.686 329.734 262.577C329.854 262.467 329.95 262.334 330.017 262.186C330.084 262.038 330.119 261.877 330.121 261.715C330.124 261.552 330.093 261.391 330.03 261.241C329.859 260.539 329.761 259.774 329.589 259.053C329.159 257.266 329.574 255.438 329.196 253.634C328.67 251.125 329.184 248.531 328.78 245.994C328.715 244.922 328.816 243.846 329.079 242.805C329.199 241.995 328.935 241.223 329.647 240.433C330.157 239.866 329.315 238.922 329.461 238.041C329.722 237.222 329.881 236.373 329.934 235.515C329.862 234.199 329.948 232.88 330.19 231.585C330.294 230.927 330.825 230.445 330.75 229.77C330.667 228.234 330.857 226.696 331.31 225.226C331.66 223.528 332.19 221.872 332.89 220.286C333.642 219.101 334.187 217.796 334.503 216.429C334.542 216.145 334.63 215.87 334.761 215.615C337.181 210.793 339.19 205.783 341.448 200.887C341.842 200.033 342.602 199.322 342.76 198.451C343.09 197.489 343.47 196.546 343.9 195.625C344.19 194.599 345.121 193.845 345.357 192.865C345.749 191.385 346.316 189.956 347.046 188.61C348.485 185.794 349.693 182.877 350.958 179.99C351.907 177.826 352.378 175.458 353.247 173.253C353.969 171.422 354.193 169.456 354.917 167.657C355.407 166.314 355.812 164.942 356.13 163.549C356.724 161.303 357.552 159.13 358.03 156.837C358.446 154.84 359.033 152.858 359.37 150.84C359.948 147.377 360.506 143.912 361.117 140.454C361.605 137.892 361.925 135.301 362.075 132.698C362.151 130.973 362.467 129.301 362.666 127.608C362.913 125.508 362.901 123.408 362.983 121.307L362.991 120.907C363.226 118.602 363.837 116.344 363.864 114.017C363.884 112.379 363.792 110.74 363.834 109.104C363.846 108.605 363.27 108.282 363.517 107.806C363.917 107.036 363.594 106.261 363.629 105.491C363.704 103.853 363.502 102.228 363.493 100.596C363.49 99.946 363.851 99.243 363.068 98.766C363.033 98.7365 363.005 98.7 362.986 98.6588C362.966 98.6177 362.956 98.5728 362.955 98.5273C362.954 98.4818 362.963 98.4366 362.981 98.3948C362.999 98.353 363.026 98.3156 363.06 98.285C363.503 97.865 363.34 97.484 363.068 97.043C362.955 96.8556 362.892 96.6419 362.887 96.4231C362.882 96.2042 362.933 95.9877 363.037 95.795C363.366 95.0774 363.435 94.2681 363.234 93.505C362.973 91.703 363.508 89.874 363.015 88.085L363.021 87.606C363.268 87.396 363.101 87.139 363.105 86.901C363.132 85.417 362.854 83.963 363.395 82.453C364.192 79.7533 365.501 77.2324 367.251 75.028C368.261 73.878 369.303 72.724 370.193 71.494C370.953 70.4185 371.823 69.4258 372.79 68.532C374.884 66.5093 376.446 64.0016 377.34 61.231C378.345 58.3272 379.072 55.3344 379.51 52.293C379.658 51.413 379.72 50.518 379.81 49.629C379.848 49.241 379.778 48.842 379.294 48.857C378.61 48.878 378.561 48.371 378.457 47.941C377.628 44.503 377.152 45.526 375.034 46.635C374.792 46.7874 374.569 46.9694 374.372 47.177C372.777 48.627 372.314 50.693 372.023 52.599C371.354 55.9331 370.195 59.1499 368.585 62.145C368.101 63.0823 367.323 63.8353 366.371 64.289C364.859 65.072 363.321 65.807 361.795 66.562C361.541 66.688 361.259 66.921 361.003 66.72C360.733 66.508 360.907 66.176 361.013 65.92C361.37 64.993 361.598 64.0212 361.69 63.032C361.801 62.088 361.31 61.402 360.45 61.632C358.902 61.9353 357.487 62.7146 356.403 63.861L355.366 64.805C354.456 65.2638 353.725 66.0115 353.286 66.931L352.566 67.641C352.246 67.569 352.131 67.809 351.982 68.011C350.218 70.1792 348.882 72.6625 348.045 75.329C347.448 77.546 346.645 79.724 347.079 82.06C347.261 83.2666 347.319 84.4885 347.254 85.707C347.193 87.5287 347.301 89.3521 347.576 91.154C347.746 92.1398 347.749 93.1473 347.583 94.134C347.157 96.6287 346.998 99.1616 347.108 101.69C347.234 106.395 347.02 111.103 346.468 115.777C346.354 116.803 346.654 117.872 346.335 118.802C345.695 120.666 346.358 122.696 345.458 124.499C345.007 125.405 345.532 126.511 345.211 127.302C344.422 129.245 344.421 131.288 344.042 133.277C343.421 136.547 342.896 139.832 341.959 143.038C341.549 144.44 341.205 145.863 340.809 147.267C340.624 148.253 340.369 149.226 340.046 150.176C338.784 152.977 337.987 155.941 336.905 158.802C335.894 161.474 334.574 163.972 333.348 166.524C332.319 168.495 331.046 170.328 329.56 171.981C328.317 173.459 326.858 174.754 325.573 176.2C324.614 177.215 323.547 178.121 322.39 178.902C321.673 179.422 320.968 180.02 320.276 180.584C319.696 181.134 319.032 181.588 318.31 181.93C317.308 182.288 316.37 182.805 315.534 183.463C315.422 183.458 315.311 183.482 315.212 183.534C315.112 183.586 315.028 183.662 314.968 183.757C313.988 184.267 312.971 184.718 312.034 185.299C310.112 186.491 308.188 187.483 305.873 186.381C305.734 186.345 305.589 186.333 305.446 186.347L305.442 186.341C305.589 185.897 305.328 185.61 305.09 185.278C304.803 184.875 304.35 184.603 304.19 184.104C303.673 182.504 302.863 181.039 302.396 179.385C301.923 177.366 301.728 175.292 301.818 173.221C301.863 172.574 302.109 171.957 302.522 171.457C303.308 170.334 304.535 169.608 305.203 168.391C305.231 168.388 305.258 168.375 305.277 168.355C305.297 168.334 305.308 168.307 305.31 168.279C306.968 166.903 308.216 165.098 308.918 163.061C309.06 162.539 309.361 162.653 309.739 162.691C310.408 162.677 311.064 162.5 311.65 162.177C312.236 161.855 312.735 161.395 313.105 160.837C313.173 160.63 313.284 160.439 313.432 160.278C313.579 160.117 313.759 159.989 313.959 159.902C314.16 159.816 314.376 159.773 314.594 159.777C314.813 159.78 315.028 159.83 315.225 159.923C316.075 160.24 317.743 158.911 317.775 157.999C317.789 157.596 317.869 157.331 318.42 157.44C318.895 157.52 319.384 157.423 319.792 157.167C320.201 156.911 320.501 156.515 320.637 156.052C320.886 154.72 321.063 153.377 321.167 152.026C321.262 151.222 321.186 150.408 320.945 149.635C320.704 148.863 320.302 148.15 319.767 147.543C319.447 147.225 319.207 146.835 319.067 146.406C318.927 145.977 318.891 145.521 318.962 145.075C319.174 144.319 319.265 143.534 319.232 142.75C319.018 140.449 318.614 138.171 318.024 135.937C317.13 132.719 315.8 129.638 314.069 126.782C312.664 124.484 311.163 122.23 308.807 120.906C307.092 119.744 305.239 118.8 303.29 118.098C302.36 117.846 302.274 117.424 302.905 116.673C303.705 115.577 304.289 114.339 304.625 113.024C305.41 110.664 304.762 108.238 305.005 105.855C305.015 105.758 304.937 105.653 304.905 105.55C304.468 104.051 303.827 102.619 303.001 101.294C301.291 98.646 298.71 97.453 295.698 96.987C294.788 96.974 293.879 97.0676 292.991 97.266C290.961 97.5413 289.052 98.389 287.486 99.71C285.715 101.134 284.277 102.927 283.271 104.965C282.288 106.709 281.769 108.676 281.765 110.678C281.71 112.358 282.01 114.031 282.646 115.587C283.099 116.93 283.728 118.208 284.518 119.385C285.198 120.268 286.121 121.002 284.697 121.978C284.672 121.995 284.666 122.042 284.654 122.076C284.477 122.602 284.126 123.051 283.66 123.352C283.194 123.653 282.64 123.787 282.088 123.732C281.083 123.763 280.076 123.817 279.073 123.775C278.286 123.712 277.496 123.858 276.783 124.198C276.071 124.538 275.461 125.061 275.015 125.713C273.476 127.726 272.432 130.072 271.967 132.563C271.334 135.514 271.253 138.556 271.727 141.537C271.9 142.417 271.699 142.731 270.875 142.95C269.785 143.252 268.793 143.836 268 144.642C267.206 145.448 266.639 146.449 266.354 147.544C266.112 148.023 265.994 148.555 266.011 149.092C266.29 150.443 266.686 151.767 267.195 153.05C267.693 154.425 268.672 155.574 269.952 156.283C271.232 156.992 272.725 157.214 274.155 156.907C274.507 156.843 274.629 156.942 274.665 157.233C274.839 158.662 276.03 159.175 277.064 159.735C277.428 159.915 277.722 160.212 277.899 160.578C278.599 161.883 278.673 163.386 279.279 164.727C279.993 166.307 280.499 167.96 281.987 169.102C282.414 169.414 282.74 169.845 282.923 170.341C283.107 170.838 283.139 171.377 283.017 171.892C282.592 173.775 282.832 175.739 282.15 177.616C281.816 178.407 281.618 179.249 281.563 180.106C281.476 181.789 280.908 183.412 279.925 184.781C279.497 185.375 278.949 185.872 278.315 186.239C277.681 186.606 276.977 186.834 276.249 186.909C274.983 187.05 273.701 186.915 272.491 186.514C271.282 186.113 270.173 185.455 269.242 184.586C267.712 183.182 266.013 181.973 264.185 180.988L264.16 180.958C264.145 180.773 264.078 180.596 263.965 180.449C263.853 180.302 263.7 180.19 263.526 180.127L263.502 180.099C263.437 179.596 263.062 179.523 262.658 179.49L262.626 179.456C262.638 179.35 262.617 179.243 262.565 179.15C262.513 179.057 262.433 178.983 262.337 178.938C261.229 178.238 260.266 177.332 259.499 176.27C259.359 176.005 259.164 175.773 258.928 175.589C258.691 175.405 258.418 175.274 258.126 175.204L257.878 174.907C257.272 173.921 256.592 172.984 255.842 172.103C254.722 170.383 253.702 168.597 252.661 166.827C252.171 166.125 251.77 165.364 251.469 164.562C250.98 163.119 250.395 161.71 249.719 160.345C248.683 158.086 247.805 155.759 247.089 153.38C246.571 152.113 246.125 150.818 245.756 149.5C245.636 148.75 245.502 147.986 245.336 147.237C244.97 145.921 244.718 144.576 244.583 143.217C244.518 141.639 244.157 140.107 244.103 138.524C244.056 137.107 243.976 135.668 243.786 134.241C243.639 133.339 243.589 132.423 243.637 131.51C243.754 130.314 243.646 129.106 243.317 127.95L243.316 127.656C243.387 127.538 243.519 127.421 243.522 127.301C243.592 124.443 243.648 121.586 243.706 118.728C243.853 118.321 243.86 117.877 243.726 117.466C243.896 116.275 244.001 115.076 244.039 113.874C244.171 112.984 244.616 112.102 244.214 111.174L244.276 110.514C244.682 110.229 244.669 109.806 244.7 109.368C244.83 107.538 244.938 105.705 245.16 103.886C245.47 102.294 245.597 100.671 245.539 99.05L245.585 98.638C246.134 97.771 245.838 96.758 246.075 95.836L246.103 94.812C246.378 94.552 246.55 94.266 246.333 93.884L246.353 93.327C246.65 93.0673 246.837 92.7044 246.876 92.312C246.916 90.285 247.602 88.349 247.706 86.316C247.72 85.5351 247.808 84.7573 247.968 83.993C248.294 82.738 248.747 81.485 249.056 80.211C249.677 77.9399 250.127 75.6254 250.402 73.287C250.502 71.5382 250.205 69.7895 249.533 68.172C249.157 66.6889 248.439 65.3146 247.436 64.159C246.912 63.6056 246.489 62.9645 246.187 62.265C245.784 61.3458 245.147 60.5486 244.339 59.953C241.889 58.22 239.405 56.533 236.935 54.828C236.604 54.5567 236.18 54.4264 235.754 54.4654C235.328 54.5043 234.934 54.7092 234.658 55.036L234.641 55.054C234.211 55.181 234.119 55.53 233.969 55.91C233.287 57.638 234.475 58.753 235.237 60.013C235.298 60.2193 235.407 60.4083 235.555 60.5649C235.702 60.7216 235.885 60.8414 236.087 60.915C236.081 60.9426 236.083 60.9716 236.095 60.9975C236.107 61.0234 236.127 61.0446 236.152 61.058C236.156 61.1921 236.2 61.322 236.277 61.4315C236.355 61.5411 236.463 61.6254 236.588 61.674L236.604 61.69C236.604 62.082 237.442 62.806 236.319 62.748C235.635 62.712 235.011 62.906 234.354 62.91L234.334 62.846L234.269 62.834C234.199 62.286 233.779 62.569 233.513 62.535C232.945 62.5106 232.378 62.4521 231.817 62.36C229.773 61.862 228.529 60.316 227.102 58.99C225.887 57.9409 224.881 56.6721 224.136 55.25C223.482 53.9033 222.549 52.711 221.4 51.752C220.875 51.3252 220.263 51.0199 219.607 50.8579C218.95 50.6959 218.266 50.6812 217.603 50.815C215.885 50.987 215.686 51.465 216.605 52.837C217.365 53.972 217.762 55.277 218.431 56.455C219.377 58.119 220.246 59.825 221.153 61.511C221.511 62.4206 222.132 63.2029 222.936 63.758C223.095 63.846 223.156 63.955 223.077 64.092C222.389 65.307 223.373 65.989 223.905 66.844C224.33 67.529 225.119 67.905 225.461 68.53C225.661 69.0112 225.977 69.4355 226.381 69.765C227.742 70.8144 229.338 71.5163 231.031 71.81C231.955 71.9876 232.807 72.4308 233.483 73.0853C234.159 73.7398 234.629 74.5772 234.836 75.495C235.24 78.0726 235.017 80.7098 234.186 83.183C233.117 86.6526 232.38 90.2159 231.985 93.825C231.682 95.979 231.027 98.048 230.735 100.202C230.571 101.408 230.335 102.709 230.139 103.93C229.542 106.736 229.239 109.597 229.233 112.466L229.175 112.843C228.689 113.983 228.51 115.23 228.655 116.461C228.635 118.185 228.027 119.817 227.997 121.538C227.959 123.625 227.81 125.709 227.551 127.78C227.302 129.762 227.149 131.755 227.091 133.752C227.008 135.582 227.073 137.415 227.286 139.234C227.459 140.51 227.056 141.744 227.294 142.983C227.731 145.25 227.084 147.531 227.464 149.821C227.634 150.856 227.428 152.011 227.589 153.076C227.934 155.342 228.214 157.619 228.565 159.884C229.078 163.192 229.74 166.479 230.179 169.807C230.574 172.273 231.153 174.706 231.912 177.085C232.152 178.375 232.629 179.61 233.318 180.727C233.329 180.792 233.35 180.856 233.38 180.915C233.366 181.056 233.371 181.198 233.395 181.337C234.101 183.689 234.981 185.985 236.03 188.205C236.922 189.993 237.523 191.931 238.47 193.685C239.502 195.593 240.274 197.605 241.114 199.585C242.412 202.836 244.067 205.932 246.049 208.818C246.079 209.124 246.219 209.409 246.443 209.62C246.922 211.446 247.568 213.224 248.373 214.931L248.595 215.239C248.478 215.861 249.157 216.151 249.227 216.634C249.563 218.953 250.226 221.197 250.684 223.485C251.228 226.205 251.631 228.954 252.094 231.69C252.006 232.7 252.117 233.718 252.42 234.686C252.154 234.893 252.182 235.048 252.504 235.151C252.787 236.131 252.209 237.169 252.701 238.136C252.645 238.809 252.656 239.485 252.733 240.156C253.27 242.696 252.81 245.276 253.107 247.814C253.28 249.297 252.654 250.78 252.971 252.171C253.531 254.624 252.971 257.069 253.257 259.512C253.484 261.436 252.987 263.376 253.067 265.332C253.224 269.14 252.685 272.934 252.687 276.742C252.687 278.133 252.221 279.522 252.491 280.895C252.695 282.121 252.62 283.376 252.271 284.569C251.987 285.865 251.847 287.189 251.854 288.516C251.831 289.497 251.729 290.474 251.549 291.438C251.334 292.58 250.941 293.787 251.483 294.97C251.099 295.125 250.782 295.41 250.589 295.776L249.962 295.78C249.943 295.738 249.915 295.701 249.88 295.672C249.845 295.643 249.803 295.623 249.758 295.612C249.713 295.602 249.667 295.603 249.623 295.614C249.578 295.625 249.537 295.646 249.502 295.676C249.238 295.548 248.936 295.525 248.656 295.613C248.221 295.367 247.714 295.282 247.223 295.371C245.899 295.443 244.575 295.543 243.251 295.632C243.117 295.575 242.972 295.546 242.826 295.546C242.68 295.546 242.535 295.576 242.401 295.634C237.319 295.474 232.239 296.004 227.299 297.208C224.526 297.743 221.809 298.535 219.183 299.574C217.635 300.229 216.138 300.999 214.706 301.878C213.956 302.351 212.994 302.665 212.573 303.588C211.235 303.982 210.499 305.092 209.639 306.055C209.626 306.053 209.613 306.054 209.6 306.057C209.587 306.06 209.575 306.066 209.565 306.075C209.555 306.083 209.546 306.093 209.54 306.105C209.534 306.117 209.531 306.13 209.53 306.143C208.718 306.553 208.532 307.374 208.227 308.118C208.214 308.118 208.202 308.122 208.19 308.128C208.179 308.134 208.169 308.142 208.162 308.152C208.154 308.163 208.149 308.174 208.146 308.187C208.144 308.2 208.144 308.213 208.147 308.225C207.986 308.276 207.845 308.376 207.743 308.511C207.642 308.647 207.585 308.81 207.58 308.979C207.374 309.174 207.249 309.44 207.23 309.724C206.14 311.039 205.314 312.553 204.797 314.181L204.649 314.479C204.592 314.498 204.54 314.531 204.497 314.573C204.454 314.616 204.421 314.668 204.401 314.725C204.381 314.782 204.375 314.843 204.382 314.903C204.389 314.964 204.41 315.021 204.443 315.072L204.346 315.478C204.084 315.685 204.124 315.912 204.303 316.148L204.253 316.432C203.846 316.827 203.315 317.16 203.541 317.869L203.361 318.359C202.952 319.241 202.771 320.211 202.834 321.181C202.897 322.151 203.203 323.09 203.723 323.911C203.696 324.217 203.786 324.521 203.976 324.763C203.852 325.054 203.969 325.233 204.242 325.341C204.796 326.861 205.97 328.029 206.598 329.506C206.397 330.521 207.028 330.956 207.829 331.272C208.216 331.531 208.668 331.678 209.133 331.695C209.161 331.753 209.202 331.805 209.253 331.846C209.303 331.887 209.362 331.917 209.425 331.933C209.487 331.95 209.553 331.952 209.617 331.94C209.681 331.929 209.742 331.903 209.795 331.866C210.692 332.218 211.629 332.459 212.584 332.586C213.243 332.999 213.994 333.243 214.77 333.296C216.085 333.539 217.282 334.231 218.644 334.259L219.708 334.552C221.485 335.312 223.317 335.939 225.187 336.427C226.157 336.693 227.072 337.29 228.153 337.047L228.561 337.15C228.666 337.002 228.745 336.938 228.808 336.933C228.745 336.938 228.666 337.003 228.561 337.15C228.572 337.196 228.595 337.239 228.628 337.273C228.661 337.308 228.702 337.333 228.748 337.347C228.793 337.36 228.842 337.361 228.888 337.35C228.934 337.338 228.977 337.315 229.011 337.282L229.425 337.382C230.23 337.827 231.131 338.069 232.051 338.087L232.451 338.217C233.395 338.692 234.426 338.969 235.481 339.033C235.735 339.202 236.035 339.29 236.34 339.283C237.64 339.909 239.033 340.32 240.464 340.5C240.789 340.677 241.149 340.78 241.518 340.8C242.51 341.357 243.631 341.641 244.768 341.624C245.077 341.75 245.407 341.814 245.741 341.812C246.074 341.809 246.404 341.742 246.711 341.612C246.823 341.669 246.951 341.683 247.072 341.652C247.193 341.62 247.299 341.546 247.369 341.442L247.791 341.396C248.673 341.402 249.551 341.272 250.394 341.013L250.807 340.941C250.859 340.977 250.918 341.003 250.98 341.016C251.042 341.029 251.106 341.03 251.169 341.018C251.231 341.007 251.291 340.982 251.343 340.947C251.396 340.912 251.442 340.867 251.477 340.814L252.968 340.73C253.628 340.74 254.276 340.631 253.99 339.763C253.685 338.838 253.217 337.967 252.82 337.072L252.745 336.657L252.565 335.148L252.771 334.944L253.855 334.88L254.693 334.99C254.8 335.206 254.957 335.223 255.148 335.106L256.421 335.208C257.2 335.648 257.598 335.498 257.397 334.54C257.326 334.208 257.328 333.864 257.402 333.533C257.476 333.202 257.62 332.89 257.826 332.62L258.377 332.335C258.641 332.448 258.874 332.445 259.033 332.161L259.44 332.069C259.783 332.112 260.131 332.078 260.458 331.967C260.785 331.857 261.084 331.674 261.33 331.432L262.062 331.066C263.498 330.686 264.706 329.79 266.085 329.28L266.579 329.084C266.774 329.114 266.973 329.087 267.153 329.008C267.334 328.928 267.487 328.798 267.596 328.634L268.521 328.214C268.953 328.304 269.265 328.014 269.604 327.844C272.669 326.308 275.729 324.76 278.783 323.2C279.307 322.93 279.945 322.83 280.317 322.295L280.609 322.15C282.149 321.581 283.648 320.908 285.097 320.136C285.455 319.978 285.6 319.596 285.09 319.468C283.127 318.817 281.121 318.301 279.087 317.924L278.68 317.844C278.555 317.559 278.272 317.594 278.04 317.534C274.053 316.503 270.027 315.644 265.992 314.827C264.414 314.409 262.801 314.132 261.174 313.999L260.754 313.959C260.352 313.499 259.764 313.591 259.262 313.513C257.332 313.061 255.37 312.757 253.394 312.603L252.332 312.442C252.059 312.117 251.665 312.276 251.332 312.204C250.022 311.92 249.777 311.482 250.292 310.272C250.403 310.01 250.516 309.746 250.602 309.475C250.717 309.106 250.594 308.767 250.199 308.77C249.457 308.775 248.747 308.381 247.996 308.615L246.93 308.57C246.811 308.462 246.668 308.383 246.513 308.338C246.358 308.294 246.195 308.286 246.037 308.315C243.789 308.317 241.541 308.333 239.294 308.362C239.026 308.366 238.71 308.305 238.51 308.587C237.941 308.517 237.364 308.54 236.802 308.654C236.515 308.46 236.258 308.659 235.99 308.714C235.752 308.764 235.448 308.905 235.32 308.622C235.154 308.252 235.525 308.165 235.76 308.024C236.148 307.791 236.706 307.98 237 307.518L237.833 307.4C238.72 307.475 239.612 307.363 240.453 307.072L241.731 307.017C241.994 307.187 242.287 307.096 242.568 307.112C245.694 307.286 248.845 307.243 251.889 308.158C252.257 308.662 252.005 309.154 251.856 309.647C250.994 310.841 251.044 311.013 252.336 311.282C253.427 311.508 254.513 311.775 255.613 311.939C257.314 312.341 259.04 312.628 260.779 312.796L261.189 312.865C261.202 312.91 261.225 312.952 261.257 312.986C261.289 313.021 261.329 313.047 261.374 313.062C261.418 313.078 261.465 313.083 261.512 313.076C261.559 313.069 261.603 313.051 261.641 313.024L262.478 313.117C263.071 313.454 263.758 313.59 264.435 313.504L264.853 313.549C264.881 313.608 264.922 313.66 264.972 313.702C265.023 313.743 265.082 313.773 265.145 313.789C265.208 313.805 265.274 313.807 265.339 313.794C265.403 313.782 265.463 313.756 265.516 313.717L265.933 313.765C266.791 314.185 267.724 314.427 268.678 314.478C270.954 314.862 273.148 315.632 275.449 315.882L275.862 315.954C275.961 316.048 276.076 316.126 276.2 316.183C279.401 317.033 282.603 317.878 285.806 318.717C286.218 318.889 286.666 318.96 287.111 318.922C287.557 318.885 287.987 318.742 288.365 318.504C290.379 317.554 292.339 316.491 294.355 315.552C299.858 312.987 305.265 310.232 310.614 307.367C316.6 304.16 322.534 300.855 328.454 297.528C332.928 295.014 337.384 292.466 341.716 289.711C341.879 289.829 342.109 289.891 342.087 290.161C341.105 290.88 340.145 291.631 339.137 292.311C328.723 299.312 317.446 304.791 306.458 310.775C298.815 314.937 290.968 318.712 283.046 322.315C277.144 325 271.623 328.488 265.48 330.654C264.406 331.032 264.304 331.486 264.775 332.451C267.74 338.515 270.347 344.742 273.103 350.901C274.393 353.782 275.619 356.691 276.865 359.591C277.047 360.014 277.178 360.421 277.776 360.091C280.357 358.668 283.036 357.398 285.503 355.799C287.735 354.286 290.048 352.898 292.432 351.639C299.8 347.942 307.394 344.752 315.064 341.749C322.262 338.93 329.544 336.339 336.951 334.115C339.801 333.26 342.732 332.645 345.401 331.258C346.096 330.88 346.877 330.687 347.669 330.7C348.46 330.713 349.235 330.93 349.917 331.331C351.747 332.264 352.275 332.041 353.587 330.458C354.871 328.908 355.915 327.171 357.333 325.724C357.733 325.224 358.282 324.864 358.901 324.696C359.519 324.528 360.175 324.56 360.773 324.789C359.346 325.12 358.087 325.955 357.227 327.14C356.35 328.186 355.526 329.274 354.757 330.402C353.225 332.638 352.295 332.97 349.702 332.375C348.537 332.107 347.486 331.305 346.131 332.023C344.087 332.995 341.954 333.766 339.761 334.326C331.778 336.738 323.878 339.404 316.111 342.453C315.405 342.709 314.816 343.212 314.454 343.87C312.615 347.037 310.751 350.188 308.861 353.325C306.241 357.695 303.482 361.985 301.264 366.586C300.74 367.282 301.404 367.234 301.75 367.318C304.988 368.111 308.228 368.894 311.471 369.668C313.251 370.091 313.251 370.08 313.542 368.299C313.605 367.916 313.696 367.282 314.127 367.456C315.277 367.921 316.654 367.83 317.594 368.803C318.416 369.654 319.256 370.493 320.02 371.393C321.882 373.59 323.924 375.358 327.106 374.801C327.392 374.776 327.68 374.778 327.966 374.809C330.803 374.884 333.639 374.961 336.475 375.039C337.14 375.058 337.139 375.069 337.204 375.526H338.067C337.866 374.782 338.474 375.104 338.709 375.094C347.266 374.75 355.823 374.422 364.382 374.109C365.027 374.088 365.651 373.877 366.175 373.502C366.922 372.994 367.448 372.178 368.183 371.774C369.26 371.137 370.27 370.392 371.197 369.55C374.101 367.151 376.753 364.463 379.112 361.526C380.192 360.15 381.247 358.749 380.504 356.846C380.177 355.855 380.05 354.808 380.132 353.767ZM374.378 50.021C374.578 49.0865 374.952 48.1976 375.478 47.4C375.742 47.03 376.055 46.679 376.522 46.898C376.919 47.084 376.742 47.517 376.69 47.861C376.685 47.896 376.661 47.935 376.67 47.965C376.762 48.2117 376.802 48.4747 376.787 48.7375C376.772 49.0003 376.704 49.2572 376.585 49.4923C376.467 49.7274 376.302 49.9356 376.099 50.1038C375.897 50.272 375.662 50.3967 375.409 50.47C375.087 50.457 374.939 50.693 374.779 50.91C374.171 50.833 374.295 50.346 374.378 50.021ZM359.428 63.38C359.895 63.503 359.847 63.784 359.783 64.193C359.623 65.203 358.699 65.878 358.649 66.919L358.461 67.199C357.086 68.348 355.359 68.449 353.713 68.785C353.433 68.841 353.378 68.589 353.32 68.382C355.436 66.812 357.158 64.762 359.428 63.38ZM319.437 183.534C320.898 183.056 322.254 182.304 323.433 181.318C325 180.22 326.453 178.968 327.771 177.581C329.077 176.192 330.434 174.859 331.738 173.483C332.57 172.602 333.197 171.547 333.574 170.395L333.577 170.391C333.841 170.322 334.041 170.181 333.984 169.881C333.946 169.681 333.766 169.623 333.571 169.641L333.583 169.281C334.607 169.318 334.699 168.393 335.214 167.858C336.061 166.978 336.086 165.798 336.748 164.902C336.81 164.819 336.741 164.64 336.733 164.505C336.986 164.032 337.379 163.615 337.327 163.019C337.32 162.433 337.938 162.259 338.128 161.786C338.974 160.066 339.668 158.276 340.203 156.435C340.657 155.132 341.046 153.807 341.366 152.465C341.593 152.346 341.766 152.145 341.848 151.902C342.923 150.389 342.818 148.487 343.501 146.843C343.527 146.78 343.417 146.659 343.37 146.565L343.474 146.162L344.199 143.102L344.316 142.701C344.693 142.016 344.898 141.25 344.912 140.469C345.351 138.208 345.861 135.957 346.275 133.702C346.704 131.723 346.964 129.712 347.053 127.689C347.149 126.882 347.349 126.09 347.647 125.334C347.727 125.055 347.874 124.794 347.576 124.562L347.586 124.134C347.312 124.072 347.172 123.969 347.12 123.847C347.172 123.969 347.312 124.072 347.587 124.134C348.644 122.589 348.383 120.859 348.082 119.218C347.892 118.181 348.703 117.486 348.59 116.541C348.549 116.199 348.72 115.837 348.61 115.479L348.683 115.066C348.792 114.999 348.87 114.892 348.899 114.767C348.929 114.643 348.909 114.512 348.842 114.403L348.835 112.911C349.148 112.106 348.603 111.349 348.7 110.556C348.85 110.468 348.968 110.334 349.034 110.173C349.1 110.012 349.111 109.834 349.066 109.666C348.831 107.196 349.406 104.761 349.374 102.3C349.369 101.921 349.497 101.501 349.075 101.239L349.085 100.59C349.411 100.573 349.499 100.392 349.474 100.086C349.383 99.2428 349.402 98.3913 349.53 97.553C349.896 95.9943 349.888 94.3712 349.508 92.816L349.106 90.227C349.286 90.12 349.367 89.981 349.256 89.777L349.252 89.158C349.362 87.6252 349.278 86.0848 349.003 84.573C348.553 82.233 348.173 79.793 348.959 77.49C349.565 75.3392 350.685 73.3684 352.224 71.748C352.236 71.7514 352.249 71.7521 352.262 71.7499C352.274 71.7477 352.286 71.7428 352.296 71.7354C352.307 71.728 352.315 71.7184 352.322 71.7072C352.328 71.6961 352.331 71.6837 352.332 71.671C352.902 71.5081 353.398 71.1508 353.732 70.661C353.745 70.6628 353.758 70.6619 353.77 70.6584C353.782 70.6548 353.794 70.6487 353.803 70.6403C353.813 70.632 353.821 70.6217 353.827 70.6101C353.832 70.5984 353.835 70.5858 353.835 70.573L356.21 69.927L357.052 69.855C357.799 69.9704 358.563 69.8424 359.232 69.49L359.652 69.451C360.708 69.3109 361.72 68.9405 362.617 68.366L362.919 68.225C364.729 67.8182 366.403 66.9513 367.779 65.708C367.792 65.7102 367.805 65.7096 367.817 65.7062C367.829 65.7028 367.841 65.6966 367.85 65.6881C367.86 65.6797 367.867 65.6691 367.872 65.6573C367.877 65.6455 367.88 65.6328 367.879 65.62C367.95 65.6332 368.024 65.6314 368.094 65.6147C368.165 65.5981 368.231 65.5668 368.289 65.5231C368.347 65.4793 368.395 65.424 368.43 65.3606C368.465 65.2972 368.486 65.2272 368.493 65.155C368.929 64.8011 369.312 64.3849 369.627 63.92C370.956 63.398 371.52 62.185 372.201 61.078C372.514 60.9651 372.78 60.7516 372.958 60.4711C373.136 60.1906 373.216 59.8588 373.185 59.528L373.351 59.229C373.547 59.1022 373.7 58.9191 373.791 58.7037C373.881 58.4883 373.903 58.2506 373.856 58.022C373.936 57.9219 373.993 57.8056 374.023 57.6812C374.053 57.5568 374.055 57.4274 374.03 57.302H374.031L374.295 56.76C374.614 56.3106 374.761 55.7617 374.71 55.213L374.772 54.801C374.965 54.5643 375.107 54.2903 375.189 53.9963C375.271 53.7022 375.291 53.3943 375.249 53.092C375.41 52.8988 375.491 52.6518 375.476 52.401L375.604 52.105C375.511 52.101 375.419 52.091 375.328 52.075C375.419 52.091 375.511 52.101 375.603 52.105L375.67 52.035C376.195 51.7958 376.638 51.406 376.941 50.915L377.998 50.612C378.666 51.287 378.078 51.912 377.832 52.469C377.508 52.973 377.363 53.5715 377.421 54.168L377.445 54.785C377.298 54.9384 377.177 55.1156 377.088 55.309C376.629 57.7132 375.879 60.0527 374.855 62.276C374.802 62.4433 374.777 62.6184 374.782 62.794C374.433 62.898 374.239 63.076 374.466 63.454C373.886 65.0066 373.016 66.4347 371.902 67.662C371.599 67.791 371.357 68.0316 371.226 68.334C370.267 69.1652 369.364 70.0595 368.523 71.011C367.612 71.5057 366.866 72.2567 366.378 73.171C366.303 73.2116 366.242 73.2733 366.201 73.3485C366.161 73.4237 366.144 73.5091 366.152 73.594C366.107 73.6019 366.064 73.6196 366.026 73.6459C365.989 73.6721 365.957 73.7062 365.934 73.7458C365.911 73.7854 365.897 73.8296 365.893 73.8752C365.889 73.9208 365.895 73.9668 365.91 74.01C365.434 74.2336 365.052 74.6163 364.828 75.092L364.329 75.64C364.162 75.7313 364.018 75.8601 363.909 76.0162C363.8 76.1724 363.728 76.3516 363.7 76.54L363.734 76.59L363.691 76.547C363.471 76.6376 363.295 76.8109 363.202 77.0297C363.108 77.2484 363.104 77.4952 363.19 77.717L363.13 78.13C363.023 78.2275 362.937 78.3459 362.878 78.4777C362.818 78.6096 362.786 78.7523 362.783 78.897C361.945 80.082 362.036 81.516 361.788 82.843C361.535 84.201 361.518 85.603 361.398 86.984C361.178 87.096 361.164 87.246 361.314 87.427L361.274 87.832C360.774 88.309 360.837 88.644 361.524 88.82C361.438 89.2126 361.457 89.621 361.579 90.004C361.419 90.3494 361.379 90.7379 361.463 91.109C361.316 91.5151 361.302 91.9572 361.422 92.372C361.366 92.627 361.36 92.867 361.618 93.029L361.614 93.464C361.533 93.5283 361.468 93.6097 361.422 93.7023C361.377 93.7949 361.352 93.8965 361.35 93.9997C361.349 94.1029 361.37 94.2053 361.412 94.2994C361.455 94.3934 361.517 94.477 361.596 94.544L361.712 95.827C361.696 95.859 361.678 95.89 361.663 95.922C361.417 96.458 362.848 96.439 362.073 97.136C361.489 97.66 361.767 98.336 361.763 98.933C361.759 99.53 361.755 100.123 361.737 100.721C361.633 101.553 361.727 102.399 362.011 103.188L362.066 103.604C361.898 104.752 361.884 105.918 362.026 107.07L362.109 107.696C361.973 108.053 361.962 108.445 362.077 108.809L362.03 110.307C361.839 110.423 361.727 110.555 361.938 110.753L361.981 111.533C361.657 111.696 361.708 111.997 361.693 112.283C361.503 115.838 361.133 119.379 360.833 122.922C360.475 125.383 360.265 127.863 360.203 130.349C360.205 131.506 359.994 132.653 359.581 133.734C359.264 135.055 359.115 136.411 359.139 137.77C358.923 139.833 358.313 141.809 358.123 143.872C357.888 146.438 356.89 148.905 356.726 151.454C356.563 152.73 356.319 153.994 355.994 155.239C355.795 156.282 355.376 157.407 355.124 158.479C354.594 160.736 353.518 162.791 353.02 165.076C352.612 167.166 351.949 169.198 351.044 171.126C350.988 171.219 350.95 171.321 350.932 171.428C350.78 173.715 349.502 175.666 349.019 177.868C348.645 179.246 348.103 180.573 347.404 181.818C347.095 182.431 346.993 183.109 346.641 183.692L346.443 183.886C345.719 184.096 345.879 184.72 345.81 185.237L345.743 185.669C344.723 186.771 344.536 188.304 343.747 189.535C343.327 190.168 343.125 190.921 343.171 191.679C343.055 191.735 342.953 191.817 342.875 191.919C342.796 192.022 342.743 192.141 342.719 192.268C342.509 192.379 342.342 192.556 342.243 192.771C342.145 192.987 342.12 193.229 342.173 193.46L342.063 193.985C341.587 194.428 341.204 194.963 340.939 195.557C340.674 196.152 340.532 196.793 340.521 197.444C340.509 197.441 340.497 197.442 340.485 197.444C340.473 197.447 340.462 197.452 340.453 197.46C340.443 197.467 340.436 197.477 340.43 197.487C340.425 197.498 340.421 197.51 340.421 197.522C339.902 197.53 339.833 197.975 339.676 198.314C338.956 199.872 338.17 201.406 337.566 203.008C337.153 204.104 336.448 205.124 336.48 206.368L336.168 206.926C335.891 207.021 335.848 207.292 335.751 207.511C335.009 209.176 334.327 210.871 333.513 212.501C333.136 213.05 332.97 213.716 333.044 214.378C333.02 214.386 333 214.402 332.989 214.424C332.977 214.446 332.974 214.472 332.981 214.496C332.463 215.161 332.142 215.958 332.056 216.797L331.331 218.289C330.581 219.574 330.032 220.967 329.705 222.419L329.595 223.039C329.399 223.176 329.352 223.325 329.557 223.496L329.565 224.109C329.008 225.658 328.61 227.26 328.376 228.889L328.336 229.309C328.294 229.325 328.255 229.35 328.223 229.382C328.191 229.414 328.166 229.452 328.151 229.494C328.135 229.537 328.128 229.582 328.131 229.627C328.135 229.672 328.147 229.716 328.169 229.756C327.896 231.167 327.648 232.583 327.428 234.003C327.367 234.421 327.292 234.837 327.222 235.263C326.795 235.238 326.686 234.911 326.592 234.616C326.168 233.292 325.348 232.144 324.885 230.849C324.255 229.084 323.719 227.284 323.192 225.485C322.494 223.097 321.843 220.695 321.172 218.299C321.214 218.147 321.212 217.986 321.166 217.836C321.12 217.685 321.032 217.551 320.912 217.448C320.937 216.201 320.757 214.959 320.377 213.771C319.977 212.021 319.992 210.199 319.538 208.499C319.184 206.717 318.934 204.917 318.79 203.106C318.601 201.824 318.48 200.532 318.429 199.237C318.326 196.642 318.457 194.024 318.161 191.454C318.008 190.123 317.103 188.95 318.307 187.603C318.783 187.07 318.519 186.043 318.339 185.308C318.281 185.119 318.264 184.92 318.29 184.724C318.315 184.528 318.382 184.34 318.486 184.172C318.59 184.004 318.729 183.86 318.893 183.75C319.057 183.64 319.242 183.566 319.437 183.534ZM375.098 52.013C375.114 52.019 375.134 52.021 375.151 52.027C375.134 52.022 375.114 52.019 375.098 52.013ZM285.794 140.087C286.785 140.043 287.786 140.024 288.394 139.033L289.257 138.813C289.994 139.068 290.444 138.595 290.909 138.161C291.277 138.021 291.709 138.094 292.036 137.82C292.32 138.036 292.138 138.265 292.054 138.491C291.412 138.67 290.822 138.999 290.333 139.452C289.536 139.747 288.776 140.131 288.067 140.599C286.336 141.351 284.62 142.137 282.92 142.957C282.643 143.089 282.101 143.188 282.265 143.648C282.357 143.829 282.512 143.97 282.701 144.045C282.89 144.12 283.1 144.124 283.291 144.055C284.695 143.799 286.08 143.449 287.437 143.005C289.306 142.147 291.111 141.154 292.837 140.035C294.287 138.834 295.843 137.895 296.865 136.081C298.097 133.895 298.288 131.429 299.398 129.266L299.858 129.226C299.782 129.612 299.857 130.012 300.066 130.345C300.276 130.678 300.604 130.918 300.985 131.017C302.688 131.676 303.402 133.581 305.091 134.254C305.135 134.272 305.165 134.376 305.166 134.441C305.346 135.897 305.958 137.265 306.924 138.369C307.836 139.92 308.943 141.348 310.218 142.618C310.745 143.076 311.381 143.639 310.823 144.548C310.5 145.073 311.076 145.253 311.415 145.455C310.395 146.109 310.51 147.207 310.299 148.039C309.342 151.794 308.3 155.526 307.175 159.234C306.828 160.386 305.854 161.294 305.938 162.591L305.839 162.935C305.137 164.471 304.292 165.937 303.315 167.315C302.941 167.655 302.707 168.123 302.659 168.626C302.88 168.438 303.089 168.244 303.286 168.043C303.089 168.244 302.88 168.438 302.66 168.626L302.389 168.991C300.861 169.749 299.414 170.66 298.07 171.711C295.873 173.351 293.416 173.171 290.958 173.047C290.24 173.011 289.667 172.347 289.008 172.001C286.809 170.898 284.943 169.229 283.604 167.165C282.172 165.07 281.109 162.745 280.461 160.292C280.209 159.33 279.869 158.394 279.445 157.495C278.876 156.183 278.726 154.715 278.181 153.458C277.661 152.256 277.943 151.112 277.682 149.981C277.489 149.143 277.398 148.287 277.207 147.465C276.77 145.588 277.829 144.538 279.015 143.43C280.21 142.394 281.578 141.578 283.057 141.019C283.252 140.932 283.448 140.846 283.644 140.761C283.873 140.814 284.112 140.811 284.339 140.753C284.567 140.694 284.778 140.582 284.953 140.426C285.109 140.434 285.265 140.407 285.411 140.349C285.556 140.29 285.686 140.2 285.793 140.086L285.794 140.087ZM312.15 150.273C312.29 150.379 312.206 150.477 312.109 150.565C312.061 150.532 312.016 150.495 311.974 150.455L312.15 150.273ZM310.021 161.178C310.109 161.38 310.141 161.561 309.987 161.636C310.142 161.561 310.109 161.381 310.021 161.178ZM315.605 157.81L314.772 157.933C313.854 158.045 313.169 157.429 312.37 157.169C312.369 157.156 312.366 157.144 312.361 157.133C312.355 157.121 312.348 157.111 312.338 157.103C312.329 157.094 312.318 157.088 312.306 157.084C312.294 157.08 312.282 157.078 312.269 157.079C311.79 156.295 310.679 155.869 311.068 154.587C311.306 154.114 311.457 153.603 311.516 153.077C311.539 153.068 311.559 153.051 311.57 153.029C311.582 153.007 311.585 152.981 311.578 152.957C312.045 152.746 312.282 152.274 312.608 151.932C313.168 151.345 313.331 151.542 313.499 152.145C313.855 152.878 314.167 153.631 314.434 154.401C314.504 154.831 314.86 154.964 315.218 155.018C315.56 155.07 315.721 154.809 315.82 154.526C315.929 154.042 315.91 153.538 315.765 153.064C315.621 152.589 315.355 152.161 314.994 151.82C314.477 151.523 314.733 151.129 314.719 150.832C314.704 150.48 315.162 150.524 315.417 150.575C315.647 150.614 315.883 150.595 316.104 150.52C316.325 150.445 316.524 150.316 316.683 150.146C317.023 149.844 317.057 149.518 316.54 149.356C315.502 149.031 314.49 148.766 313.51 149.603C313.159 149.988 312.671 150.221 312.151 150.25L312.006 149.583L312.419 149.045C313.481 148.367 314.623 147.825 315.819 147.43L316.475 147.426C316.86 147.672 317.326 147.756 317.773 147.661L317.98 147.89L319.084 149.83L319.14 150.248C319.18 151.805 319.129 153.362 318.988 154.913L318.959 154.941C318.894 154.948 318.777 154.941 318.77 154.964C318.315 156.582 316.896 157.124 315.605 157.81ZM269.427 153.409C268.67 152.285 268.163 151.012 267.94 149.675C267.457 146.682 270.588 144.345 273.016 144.776C273.641 144.931 274.208 145.266 274.646 145.738C275.084 146.211 275.375 146.801 275.483 147.436C275.524 147.754 275.601 148.066 275.714 148.366C275.832 148.632 276.051 148.856 275.748 149.122C275.511 149.33 275.245 149.204 275.042 149.099C274.396 148.766 273.85 148.119 272.997 148.535C272.963 148.538 272.928 148.531 272.897 148.517C272.865 148.502 272.838 148.48 272.818 148.452C272.378 146.9 271.226 147.77 270.352 147.745C270.223 147.752 270.101 147.807 270.011 147.899C269.921 147.992 269.869 148.115 269.865 148.244C269.86 148.567 270.195 148.608 270.425 148.636C271.107 148.646 271.781 148.794 272.405 149.07C272.79 149.286 272.995 149.435 272.709 149.966C272.209 150.846 272.032 151.874 272.209 152.871C272.315 153.419 272.419 154.136 273.179 154.061C273.892 153.992 273.675 153.313 273.706 152.841C273.751 152.163 273.757 151.482 273.832 150.809C273.849 150.705 273.891 150.607 273.953 150.522C274.015 150.437 274.096 150.367 274.189 150.319C274.485 150.229 274.418 150.587 274.535 150.725C274.967 151.233 275.145 152.002 275.841 152.227C276.395 152.407 275.779 152.919 276.174 153.085L276.077 153.705C275.936 153.688 275.793 153.728 275.681 153.816C275.569 153.903 275.495 154.031 275.476 154.172L274.342 154.988C273.789 154.836 273.599 155.48 273.112 155.531C271.98 155.65 270.078 154.407 269.427 153.409ZM278.355 188.985C281.193 188.255 282.685 186.049 283.941 183.682C284.312 182.747 284.453 181.737 284.352 180.736C284.352 180.454 284.189 180.125 284.453 179.926C284.787 179.676 285.041 179.996 285.313 180.154C285.61 180.329 285.83 180.67 286.245 180.604L286.671 180.637C288.526 181.12 290.48 181.065 292.305 180.479C294.29 179.816 296.11 178.737 297.645 177.315C298.242 176.793 298.566 175.949 299.583 175.778C299.666 176.83 299.787 177.876 299.823 178.925C299.861 180.526 300.271 182.095 301.021 183.51C301.08 183.62 301.231 183.679 301.341 183.761L301.451 184.145C301.698 185.118 302.189 186.012 302.879 186.742L302.889 186.752C303.31 187.513 303.855 188.379 304.597 188.596C306.142 189.048 307.666 190.15 309.424 189.156C310.125 188.759 310.544 188.919 310.382 189.893C309.85 193.722 308.999 197.5 307.839 201.188C306.936 203.428 305.843 205.586 304.572 207.639C303.365 209.685 301.6 211.344 299.484 212.422C296.227 214.276 293.201 213.886 290.124 212.037C287.605 210.468 285.508 208.307 284.016 205.742C282.771 203.739 281.743 201.641 280.701 199.556C280.06 198.41 279.62 197.163 279.398 195.869C279.268 194.988 279.003 194.133 278.612 193.333C278.208 192.261 277.908 191.151 277.719 190.021C277.677 189.911 277.661 189.793 277.672 189.676C277.682 189.559 277.72 189.446 277.781 189.346C277.843 189.246 277.927 189.161 278.026 189.099C278.126 189.036 278.238 188.997 278.355 188.985ZM312.155 324.026C311.412 325.29 310.672 326.557 309.911 327.811C309.794 328.005 309.628 328.321 309.337 328.162C308.964 327.958 309.342 327.72 309.424 327.548C310.027 326.288 310.656 325.042 311.295 323.8C311.441 323.516 311.643 323.208 312.034 323.313C312.159 323.346 312.234 323.566 312.314 323.675C312.244 323.832 312.209 323.935 312.155 324.026ZM352.531 355.302C352.948 357.788 352.997 360.322 352.677 362.822C352.693 363.76 352.476 364.688 352.045 365.522C351.609 363.52 351.295 361.492 351.105 359.452C350.885 358.179 350.829 356.878 350.691 355.59C350.621 354.944 350.621 354.264 351.404 354.133C352.211 353.998 352.426 354.689 352.531 355.303V355.302ZM281.375 303.478C281.865 303.263 282.37 303.082 282.885 302.937C283.325 302.831 283.907 302.183 284.187 302.782C284.421 303.282 283.605 303.509 283.221 303.734C282.163 304.357 281.036 304.864 279.71 305.531C279.787 305.074 279.981 304.645 280.273 304.286C280.564 303.926 280.944 303.648 281.375 303.478ZM235.34 56.781L235.476 56.094L235.478 56.092C235.813 55.955 236.186 55.9399 236.531 56.0492C236.876 56.1584 237.172 56.3852 237.367 56.69C238.882 58.49 241.129 59.313 242.807 60.882C243.047 61.141 243.095 61.586 243.543 61.644C243.742 62.011 243.906 62.407 244.333 62.581C244.323 63.135 244.028 63.221 243.563 63.06C242.902 62.8304 242.193 62.7705 241.503 62.886L240.66 62.826C240.525 62.607 240.385 62.576 240.237 62.814C239.727 62.869 239.48 62.498 239.25 62.157C239.052 61.865 238.919 61.534 238.505 61.5C238.263 61.294 238.295 60.863 237.909 60.776C237.079 59.428 236.039 58.214 235.34 56.781ZM243.658 200.733C242.976 199.497 242.6 198.039 242.001 196.716C241.368 195.316 240.711 193.926 240.065 192.531C240.061 192.499 240.047 192.47 240.024 192.447C240.002 192.424 239.973 192.409 239.941 192.404C239.919 192.121 239.971 191.812 239.669 191.628L239.572 191.305C239.049 189.507 238.351 187.764 237.487 186.103L237.383 185.699C237.009 184.709 237.17 183.532 236.343 182.699L236.145 182.222C236.199 181.567 236.038 180.912 235.686 180.357L235.483 179.852C235.546 179.316 235.187 178.905 235.018 178.451C234.372 176.713 234.218 174.849 233.49 173.118C233.037 171.827 232.697 170.499 232.473 169.15C232.024 167.156 231.774 165.09 231.428 163.058C231.405 162.277 231.194 161.514 230.814 160.832L230.785 160.422C230.831 158.982 230.246 157.651 230.055 156.245C229.731 153.855 229.272 151.477 229.172 149.066C229.108 147.506 229.302 145.937 229.353 144.371C229.373 143.788 229.633 143.169 229.181 142.631C228.997 142.413 229.175 142.245 229.228 142.045C229.38 141.483 229.958 140.898 229.178 140.349C229.127 140.313 229.168 140.082 229.222 139.969C229.972 138.431 229.588 136.891 229.223 135.356C229.177 135.163 228.958 135.023 229.028 134.773C229.888 131.687 229.464 128.452 230.135 125.324C230.481 124.114 230.494 122.834 230.174 121.617C229.803 120.52 230.57 119.628 230.694 118.617C230.823 117.582 230.888 116.548 230.955 115.512C230.94 114.643 231.09 113.778 231.398 112.965C231.845 111.965 231.488 110.728 231.588 109.587C231.769 107.517 231.943 105.438 232.115 103.371C232.3 101.965 232.599 100.577 233.009 99.219C233.125 98.763 233.402 98.276 233.062 97.787L233.092 97.347C233.466 96.7051 233.653 95.9715 233.632 95.229C234.099 91.4232 234.969 87.6776 236.225 84.055C236.966 82.0167 237.259 79.8427 237.085 77.681C237.05 77.331 237.165 76.97 237.159 76.614C237.116 74.061 235.406 72.511 233.578 71.212C232.691 70.6549 231.645 70.4073 230.603 70.508C230.304 70.5714 229.993 70.5361 229.716 70.4073C229.439 70.2786 229.211 70.0633 229.067 69.794C228.965 69.6456 228.828 69.5252 228.667 69.444C225.894 67.828 224.566 65.16 223.257 62.383C222.279 60.2739 221.191 58.2178 219.997 56.223C219.261 55.011 218.611 53.735 217.769 52.449C220.47 52.811 221.997 54.322 223.415 56.362C225.045 58.706 226.744 61.105 229.246 62.7C229.259 62.7318 229.28 62.7595 229.308 62.7798C229.336 62.8001 229.369 62.8123 229.403 62.815C229.698 63.1801 230.066 63.479 230.484 63.6923C230.901 63.9056 231.36 64.0285 231.828 64.053C233.04 64.2523 234.263 64.3715 235.491 64.41L236.351 64.49C236.582 64.6198 236.845 64.6834 237.11 64.6739C237.375 64.6644 237.633 64.5821 237.854 64.436L240.661 64.337C241.759 64.34 242.821 64.859 243.94 64.577L244.65 64.851C245.377 65.2318 246.014 65.7642 246.518 66.4121C247.022 67.06 247.382 67.8084 247.572 68.607C247.668 69.2107 247.96 69.766 248.403 70.187L248.549 70.973C248.511 71.0795 248.513 71.1966 248.557 71.3012C248.6 71.4059 248.681 71.4907 248.783 71.539V71.765C248.213 72.925 248.527 74.144 248.629 75.322C248.676 75.7582 248.634 76.1993 248.506 76.619C247.186 80.7859 246.19 85.0486 245.527 89.369L245.45 90.011C245.313 90.151 245.272 90.292 245.45 90.433L245.446 90.705C245.327 90.7865 245.226 90.8911 245.148 91.0125C245.071 91.134 245.018 91.2698 244.994 91.412C244.666 93.239 244.458 95.098 243.978 96.884C243.455 98.826 243.58 100.831 243.095 102.791C242.675 104.488 242.835 106.34 242.56 108.109C242.549 108.183 242.66 108.276 242.714 108.361L242.712 108.814C242.589 108.919 242.502 109.06 242.464 109.217C242.426 109.374 242.438 109.539 242.499 109.689L242.446 110.096C242.396 110.188 242.306 110.276 242.299 110.37C242.021 114.114 241.704 117.856 241.495 121.605C241.377 123.719 241.436 125.845 241.423 127.965C241.373 128.358 241.44 128.757 241.616 129.112L241.606 129.534C241.252 131.387 241.279 133.292 241.686 135.134C242.09 137.844 242.067 140.586 242.373 143.301C242.447 143.954 242.229 144.713 243.107 145.017C243.204 145.051 243.308 145.119 243.233 145.25C242.652 146.264 243.326 147.223 243.417 148.195C243.6 149.431 243.872 150.652 244.231 151.849C244.297 152.119 244.366 152.421 244.716 152.491C244.715 152.522 244.726 152.552 244.745 152.575C244.765 152.599 244.792 152.615 244.822 152.621C244.706 154.356 245.62 155.827 246.11 157.393C246.724 159.44 247.566 161.411 248.621 163.27L248.874 163.654C248.95 164.543 249.285 165.391 249.836 166.093C250.647 167.616 251.479 169.145 252.269 170.66C252.901 171.872 253.993 172.716 254.455 173.99C254.502 174.122 254.741 174.185 254.891 174.28C254.887 174.296 254.887 174.313 254.89 174.329C254.892 174.345 254.898 174.361 254.907 174.375C254.916 174.389 254.928 174.401 254.941 174.41C254.955 174.42 254.97 174.426 254.986 174.43C254.85 175.64 256.066 175.786 256.595 176.472C256.592 176.501 256.601 176.531 256.62 176.554C256.639 176.577 256.666 176.592 256.695 176.595C257.171 177.317 257.735 177.976 258.374 178.558C259.394 179.742 260.891 180.438 261.858 181.585C263.205 183.182 265.108 183.905 266.592 185.22C267.622 186.133 268.79 186.927 268.936 188.584C268.877 189.425 268.98 190.27 269.241 191.072L269.257 192.609C269.001 192.823 269.065 193.025 269.277 193.223L269.258 193.688C268.934 193.974 268.969 194.25 269.281 194.518L269.283 194.99C269.11 195.337 269.024 195.721 269.032 196.108C269.039 196.496 269.14 196.876 269.326 197.216L269.323 197.474C269.259 197.508 269.202 197.554 269.157 197.611C269.111 197.667 269.078 197.732 269.058 197.802C269.039 197.872 269.034 197.945 269.044 198.017C269.054 198.089 269.079 198.158 269.117 198.22L269.079 198.53C269.104 198.66 269.138 198.787 269.179 198.913C269.138 198.788 269.105 198.66 269.079 198.531C268.917 198.73 268.812 198.969 268.776 199.222C268.739 199.476 268.773 199.735 268.872 199.971C268.809 200.095 268.773 200.231 268.766 200.369C268.76 200.508 268.782 200.647 268.833 200.776L268.884 201.486L268.79 201.889C268.356 203.286 268.176 204.749 268.259 206.21L268.224 206.528C267.996 206.816 267.834 207.152 267.751 207.51C267.668 207.869 267.665 208.241 267.743 208.601L267.693 209.444C267.252 210.71 266.986 212.03 266.903 213.368C266.902 214.527 266.146 215.668 265.846 216.848C265.335 218.864 264.368 220.754 264.19 222.859C264.188 222.931 264.166 223.001 264.127 223.062C262.612 225.042 262.483 227.58 261.452 229.779C260.593 231.289 259.849 232.862 259.226 234.484C258.159 236.509 256.881 238.415 255.414 240.171C255.378 240.261 255.32 240.364 255.224 240.27C255.18 240.226 255.221 240.095 255.223 240.003C255.044 237.849 255.07 235.687 254.691 233.539C254.281 231.222 254.078 228.868 253.832 226.525C253.597 225.148 253.244 223.794 252.777 222.478C252.284 220.732 252.271 218.86 251.497 217.21C250.437 214.95 249.899 212.439 248.283 210.445C248.217 210.169 248.21 209.865 247.93 209.691C247.881 209.26 247.684 208.859 247.373 208.557L247.033 207.94C245.868 205.559 244.948 203.07 243.658 200.733ZM347.407 354.61C348.028 354.54 347.971 355.124 348.062 355.525C348.324 357.23 348.461 358.951 348.472 360.676C348.472 361.896 348.486 363.118 348.461 364.338C348.455 364.624 348.531 365.085 348.073 365.088C347.745 365.091 347.669 364.711 347.641 364.428C347.351 361.499 346.936 358.582 346.878 355.635C346.87 355.197 346.847 354.671 347.407 354.61ZM342.457 355.602C342.5 355.299 342.377 354.859 342.808 354.817C343.325 354.765 343.311 355.261 343.34 355.591C343.506 357.486 343.508 359.391 343.347 361.286C343.385 362.445 343.29 363.604 343.064 364.741C342.68 364.007 342.463 363.198 342.427 362.371C342.241 360.118 342.251 357.853 342.457 355.602ZM314.687 364.455C315.323 362.936 316.037 361.451 316.826 360.006C317.715 358.479 318.25 356.804 319.066 355.251C320.202 353.264 321.113 351.156 321.784 348.968C321.974 348.265 322.527 348.382 323.107 348.528C325.05 349.016 326.819 350.056 328.855 350.264C329.656 350.437 330.39 350.837 330.97 351.416C332.365 352.603 333.83 353.929 333.644 356.656C333.549 360.146 331.283 362.901 328.215 365.2C326.666 366.443 324.763 367.161 322.779 367.252C321.993 367.244 321.211 367.141 320.449 366.945C318.645 366.574 316.938 365.819 315.024 365.837C314.254 365.844 314.456 364.969 314.687 364.455Z" fill="#3C4048"/>
<path d="M266.195 338.298C265.263 336.228 264.307 334.168 263.362 332.102C262.526 331.522 262.069 332.309 261.482 332.624L261.181 332.758C260.622 332.69 260.152 333.025 259.621 333.097C258.136 333.296 257.939 333.491 258.22 334.913C258.425 335.95 257.97 336.252 257.094 336.205C256.167 336.155 255.244 336.035 254.319 335.933C253.744 335.87 253.46 336.114 253.639 336.671C253.86 337.605 254.267 338.484 254.837 339.257L255.167 340.095C255.049 340.823 254.58 341.103 253.894 341.289C253.136 341.357 252.388 341.514 251.667 341.756L251.265 341.884C250.523 341.77 249.763 341.868 249.074 342.166C248.628 342.174 248.188 342.275 247.784 342.464C247.132 342.683 246.444 342.771 245.758 342.722C245.072 342.673 244.403 342.488 243.789 342.178C243.555 342.016 243.29 341.904 243.011 341.851C242.732 341.797 242.444 341.802 242.167 341.865L241.758 341.739C240.588 341.222 239.345 340.891 238.073 340.759L237.005 340.474C235.845 339.921 234.592 339.589 233.31 339.496C232.916 339.295 232.482 339.182 232.04 339.166C232.029 339.121 232.006 339.079 231.974 339.045C231.942 339.011 231.902 338.986 231.857 338.972C231.813 338.958 231.765 338.955 231.72 338.964C231.674 338.974 231.631 338.995 231.596 339.025L231.176 338.932C231.046 338.82 230.9 338.727 230.744 338.657C225.667 337.221 220.596 335.767 215.504 334.383C213.99 333.856 212.427 333.484 210.839 333.271L210.432 333.188C210.366 332.984 210.186 332.948 210.012 332.909C207.823 332.416 205.752 331.529 203.593 330.959C203.016 330.807 202.323 330.095 201.643 330.843L201.142 331.029C201.05 330.945 200.931 330.896 200.806 330.892C200.681 330.887 200.559 330.927 200.461 331.004C199.348 331.606 198.481 332.581 198.013 333.757C197.982 333.768 197.956 333.789 197.939 333.817C197.921 333.845 197.914 333.878 197.918 333.911C197.303 334.392 197.168 335.167 196.819 335.803C196.756 335.901 196.714 336.011 196.696 336.127C196.678 336.242 196.684 336.36 196.714 336.472C196.743 336.585 196.796 336.69 196.869 336.782C196.941 336.873 197.032 336.948 197.135 337.003C197.802 337.629 197.849 338.635 198.516 339.261C198.601 340.908 199.782 341.991 200.58 343.271C200.577 343.283 200.576 343.296 200.578 343.308C200.58 343.32 200.585 343.332 200.592 343.342C200.6 343.353 200.609 343.361 200.62 343.368C200.63 343.374 200.643 343.378 200.655 343.379C201.369 345.958 203.005 348.021 204.465 350.182C204.462 350.194 204.461 350.207 204.464 350.22C204.466 350.232 204.471 350.244 204.478 350.254C204.486 350.265 204.496 350.273 204.507 350.279C204.518 350.286 204.53 350.289 204.543 350.29C204.659 351.051 205.039 351.746 205.618 352.253L205.675 352.212L205.622 352.258C205.788 352.821 206.148 353.308 206.638 353.632C206.644 353.738 206.672 353.841 206.721 353.935C206.77 354.029 206.838 354.111 206.922 354.176C207.232 355.027 207.726 355.798 208.37 356.435L208.485 356.738L208.12 357.403L207.832 357.409C207.446 357.146 206.989 357.01 206.522 357.019C205.105 356.799 203.684 356.961 202.235 356.62C200.161 356.133 197.952 356.346 195.822 356.003C193.51 355.632 191.164 355.812 188.832 355.601C186.818 355.418 184.783 355.287 182.756 355.15C179.786 354.948 176.826 355.483 173.853 355.376C173.712 355.347 173.565 355.354 173.427 355.395C173.289 355.436 173.163 355.511 173.06 355.612L172.646 355.603C172.614 355.542 172.567 355.49 172.508 355.454C172.45 355.418 172.383 355.398 172.314 355.397C172.245 355.396 172.177 355.414 172.118 355.448C172.058 355.483 172.009 355.533 171.976 355.593L169.84 355.688C169.694 355.626 169.535 355.606 169.378 355.631C169.222 355.655 169.076 355.723 168.956 355.826L168.531 355.866C167.811 355.653 167.038 355.721 166.367 356.058L165.743 356.14C165.531 356.041 165.297 356.001 165.064 356.025C164.832 356.049 164.611 356.136 164.424 356.277L164.003 356.317C162.905 356.236 161.801 356.36 160.748 356.682L160.335 356.687C160.245 356.64 160.148 356.543 160.067 356.555C156.64 357.106 153.251 357.868 149.918 358.837C149.219 359.034 148.706 360.246 149.153 360.442C149.908 360.775 150.513 361.501 151.483 361.359C152.013 361.255 152.56 361.279 153.079 361.429C154.934 362.114 156.886 361.886 158.769 361.967C161.16 362.071 163.559 361.94 165.96 362.197C168.074 362.423 170.241 362.284 172.329 362.57C174.429 362.857 176.543 362.962 178.628 363.058C181.772 363.202 184.902 363.593 188.065 363.576C190.505 363.563 192.928 364.056 195.414 364.042C197.822 364.028 200.263 364.275 202.694 364.368C205.59 364.478 208.484 364.672 211.376 364.886C215.009 365.154 218.656 364.98 222.289 365.398C225.556 365.773 228.874 365.546 232.145 365.971C234.315 366.252 236.53 365.666 238.675 366.351C239.066 366.44 239.477 366.376 239.822 366.17L240.244 366.177C244.124 366.704 248.044 366.372 251.935 366.704C252.306 366.782 252.689 366.787 253.061 366.717C253.434 366.647 253.789 366.504 254.106 366.296C255.335 365.306 256.549 364.299 257.749 363.274C258.095 362.977 258.326 362.574 258.811 362.414C260.784 361.77 262.747 361.093 264.711 360.421C264.968 360.333 265.285 360.264 265.386 360.525C265.843 361.696 267.056 362.387 267.296 363.713C267.331 363.975 267.432 364.224 267.59 364.436C267.748 364.649 267.958 364.817 268.199 364.926C268.44 365.035 268.705 365.081 268.968 365.06C269.232 365.038 269.486 364.95 269.706 364.803C271.616 363.726 273.512 362.621 275.422 361.541C275.981 361.225 276.299 360.886 275.749 360.297C272.956 352.794 269.477 345.589 266.195 338.297V338.298ZM263.241 358.607C261.66 359.056 260.108 359.6 258.593 360.237C258.208 360.429 257.774 360.5 257.348 360.439C255.292 360.139 253.258 359.705 251.259 359.138C249.738 358.585 248.303 357.821 246.995 356.868C246.235 356.314 245.631 355.574 245.241 354.718C244.851 353.863 244.688 352.922 244.767 351.985C245.066 351.103 244.475 349.821 245.089 348.617C245.309 348.161 245.394 347.651 245.332 347.148C245.181 346.031 245.818 345.625 246.699 345.301C248.29 344.715 249.978 344.548 251.603 344.114C252.915 343.655 254.257 343.284 255.619 343.004C255.95 342.893 256.31 342.91 256.63 343.052C256.949 343.193 257.203 343.449 257.343 343.769C258.681 346.15 259.773 348.646 261.018 351.069C262.065 353.105 262.823 355.269 263.91 357.281C264.357 358.109 264.209 358.367 263.241 358.607ZM232.045 345.287C232.179 345.53 232.259 345.799 232.281 346.075C232.303 346.352 232.265 346.63 232.171 346.891C231.592 349.191 231.005 351.488 230.408 353.781C230.298 354.199 230.296 354.873 229.642 354.713C229.068 354.573 229.212 353.986 229.277 353.515C229.624 351.276 230.224 349.084 231.065 346.981C231.245 346.344 231.582 345.762 232.045 345.288V345.287ZM225.498 353.823C225.393 353.791 225.296 353.739 225.212 353.668C225.128 353.598 225.059 353.511 225.009 353.413C224.96 353.316 224.931 353.209 224.924 353.099C224.917 352.99 224.932 352.88 224.969 352.777C225.447 350.457 226.169 348.202 226.824 345.929C226.914 345.615 227.108 345.403 227.455 345.524C227.81 345.648 227.755 345.964 227.788 346.269C227.281 348.54 226.783 350.813 226.261 353.081C226.172 353.465 225.966 353.931 225.498 353.823ZM220.608 351.33C220.82 349.397 221.331 347.508 222.125 345.733C222.212 345.536 222.317 345.347 222.439 345.17C222.584 344.964 222.759 344.735 223.052 344.875C223.292 344.989 223.202 345.25 223.23 345.56C222.954 346.721 222.636 347.973 222.36 349.234C222.085 350.498 221.859 351.772 221.596 353.039C221.534 353.34 221.528 353.731 221.062 353.715C220.632 353.7 220.596 353.323 220.487 353.03C220.386 352.462 220.427 351.878 220.607 351.33H220.608ZM313.62 343.446C313.03 343.66 312.76 343.746 312.499 343.856C309.814 344.981 307.139 346.129 304.447 347.234C299.241 349.319 294.223 351.843 289.446 354.78C286.323 356.736 283.3 358.85 280.116 360.711C279.736 360.933 279.286 361.127 279.364 361.646C279.449 362.222 280.006 362.316 280.444 362.359C281.194 362.388 281.942 362.475 282.679 362.617C284.734 363.134 286.796 363.624 288.865 364.087C290.565 364.469 292.283 364.812 293.973 365.182C295.683 365.557 297.411 366.077 299.121 366.57C299.529 366.688 299.801 366.705 300.069 366.219C303.249 360.435 306.786 354.862 310.239 349.241C311.351 347.431 312.383 345.571 313.62 343.446ZM284.821 150.778C286.181 150.23 287.67 150.084 289.111 150.358C289.291 150.392 289.478 150.358 289.635 150.262C289.792 150.167 289.908 150.017 289.961 149.841C289.995 149.678 289.979 149.508 289.915 149.354C288.978 149.291 288.392 148.29 286.914 148.474C286.045 148.545 285.22 148.884 284.552 149.444C284.11 149.864 284.452 150.238 284.412 150.624C284.386 150.871 284.664 150.837 284.821 150.778ZM300.638 152.545C301.187 152.234 301.8 152.054 302.43 152.018C303.06 151.981 303.69 152.09 304.271 152.336C304.816 152.243 305.343 152.422 305.569 151.951C305.725 151.624 305.402 151.353 305.159 151.159C304.411 150.643 303.517 150.384 302.609 150.42C301.702 150.456 300.83 150.786 300.126 151.359C299.842 151.604 299.469 151.799 299.704 152.199C299.793 152.359 299.935 152.482 300.107 152.545C300.278 152.609 300.467 152.609 300.638 152.545ZM295.623 158.924C296.903 158.178 296.701 156.846 296.997 155.694C296.889 155.162 297.061 154.42 296.291 154.321C295.471 154.215 295.641 154.986 295.531 155.454C295.329 156.309 295.453 157.25 294.496 157.836C293.983 158.15 294.327 158.613 294.662 159C295.066 159.468 295.28 159.125 295.623 158.924ZM292.523 164.415C292.771 164.443 293.015 164.501 293.396 164.57C293.951 164.398 294.636 164.2 295.31 163.969C295.418 163.94 295.51 163.869 295.567 163.773C295.624 163.677 295.641 163.563 295.615 163.454C295.589 163.345 295.522 163.251 295.428 163.191C295.333 163.131 295.219 163.11 295.11 163.133C294.254 163.143 293.396 163.15 292.541 163.198C292.376 163.201 292.219 163.268 292.101 163.383C291.983 163.499 291.914 163.655 291.908 163.82C291.881 164.217 292.158 164.373 292.523 164.415Z" fill="#3C4048"/>
</svg>
