<svg width="600" height="400" viewBox="0 0 600 400" fill="none" xmlns="http://www.w3.org/2000/svg">
<path d="M522.183 321.772C521.475 320.727 520.557 319.842 519.488 319.171C518.964 318.891 518.802 318.476 519.055 318.051C519.433 317.305 519.709 316.512 519.875 315.693C520.196 314.487 520.4 313.252 520.485 312.007C520.535 311.361 519.979 310.963 519.345 310.831C518.964 310.771 518.58 310.732 518.195 310.713C517.053 310.767 515.915 310.893 514.788 311.089C514.088 311.105 513.811 310.957 513.815 310.151C513.823 308.274 514.27 306.436 514.187 304.548C514.157 303.849 513.985 303.616 513.35 303.415C511.478 302.823 509.56 303.626 507.697 303.128C507.349 303.091 506.999 303.095 506.652 303.14C505.202 303.496 503.534 303.3 502.601 304.937C502.238 305.516 502.025 306.175 501.982 306.857C501.938 307.538 502.065 308.22 502.351 308.84C502.63 309.772 502.827 310.727 502.94 311.694C502.97 311.817 502.974 311.944 502.952 312.069C502.93 312.193 502.882 312.312 502.812 312.417C502.741 312.522 502.649 312.611 502.543 312.678C502.436 312.746 502.316 312.79 502.191 312.809C501.221 312.922 500.294 313.27 499.489 313.822C498.162 314.639 496.043 314.366 495.619 316.493C495.61 316.539 495.437 316.582 495.343 316.576C494.738 316.539 494.685 317 494.774 317.358C495.146 318.848 494.482 320.268 494.535 321.743C494.562 322.487 494.491 323.547 493.307 323.548C492.1 323.55 490.934 323.8 489.75 323.918C488.992 324.134 488.211 324.256 487.424 324.282C486.009 324.014 484.761 324.543 483.441 324.688C482.875 324.75 482.348 324.958 482.336 325.611C482.323 326.302 482.77 326.633 483.444 326.804C485.439 327.314 487.506 327.309 489.52 327.759C491.908 328.293 494.381 328.437 496.8 328.854C497.384 328.84 497.967 328.897 498.537 329.025C500.691 329.975 503.031 329.903 505.29 330.204C507.538 330.503 509.826 330.49 512.095 330.637C514.831 330.814 517.367 330.353 519.333 328.258C520.259 327.272 521.103 326.203 521.933 325.132C522.742 324.087 523.113 322.949 522.183 321.772ZM505.185 305.579C507.065 304.789 508.961 305.339 510.852 305.333C511.796 305.33 511.804 305.964 511.834 306.608C511.836 306.681 511.816 306.752 511.776 306.813C511.88 308.297 511.236 309.439 511.132 310.683C511.069 310.973 511.066 311.272 511.123 311.563C511.179 311.854 511.295 312.131 511.463 312.375C511.631 312.62 511.847 312.828 512.097 312.986C512.348 313.144 512.629 313.249 512.922 313.295C513.952 313.601 515.045 313.62 516.085 313.35C517.261 313.032 517.899 313.762 517.572 314.983C517.154 316.063 516.89 317.196 516.787 318.349C516.792 318.77 516.512 318.902 516.182 318.942C514.704 319.151 513.197 319.015 511.78 318.546C510.022 317.933 508.4 316.969 506.585 316.497C506.52 316.48 506.468 316.417 506.403 316.395C505.81 316.199 504.857 316.593 504.689 315.755C504.631 314.93 504.808 314.105 505.199 313.376C505.372 313.07 505.417 312.708 505.325 312.369C504.555 310.766 504.949 308.928 504.227 307.306C503.842 306.44 504.309 305.947 505.185 305.579ZM508.13 321.289C507.494 321.946 507.004 322.731 506.695 323.592C506.385 324.452 506.263 325.369 506.335 326.281C506.371 327.028 505.993 327.237 505.268 327.019C504.565 326.802 503.828 326.718 503.094 326.771C502.567 326.842 502.031 326.739 501.567 326.477C501.104 326.215 500.739 325.809 500.528 325.321C499.838 323.436 498.896 323.158 496.898 323.216C496.098 323.239 495.708 323.23 495.973 322.214C496.311 320.93 496.52 319.616 496.595 318.291C496.614 317.889 496.753 317.502 496.994 317.179C497.234 316.857 497.566 316.614 497.946 316.481C499.197 315.873 500.488 315.343 501.784 314.837C502.724 314.47 502.296 315.21 502.334 315.706C502.319 315.977 502.283 316.246 502.227 316.512C501.765 318.246 502.157 318.854 503.983 319.169C505.316 319.388 506.617 319.77 507.857 320.307C508.457 320.572 508.558 320.842 508.13 321.289ZM519.38 324.289C518.683 325.244 517.763 325.987 517.044 326.907C516.092 328.124 514.682 327.898 513.362 328.207C512.069 327.868 510.802 327.44 509.568 326.927C508.922 326.722 508.892 325.241 509.518 324.28C510.22 323.27 510.76 322.156 511.119 320.979C511.199 320.692 511.322 320.664 511.563 320.723C513.333 321.099 515.145 321.246 516.953 321.16C517.727 321.205 518.47 321.474 519.094 321.934C520.278 322.681 520.243 323.107 519.38 324.289Z" fill="#3C4048"/>
<path d="M511.776 306.813V306.796C511.769 306.815 511.771 306.818 511.776 306.813ZM459.711 322.925C459.486 322.8 459.288 322.63 459.13 322.426C458.972 322.223 458.857 321.989 458.791 321.74C458.516 320.827 457.97 320.018 457.225 319.423C456.233 318.742 456.31 318.136 456.878 317.225C457.961 315.488 457.665 314.805 455.863 313.825C455.044 313.523 454.264 313.125 453.539 312.639C451.957 311.241 450.284 309.952 448.583 308.695C447.379 307.92 446.229 307.064 445.141 306.133C444.782 305.779 444.318 305.55 443.818 305.482C443.319 305.413 442.81 305.508 442.369 305.752C440.905 306.62 438.902 306.581 437.954 308.329C437.919 308.393 437.768 308.402 437.669 308.424C436.97 308.599 436.314 308.918 435.744 309.359C435.174 309.8 434.701 310.355 434.356 310.988C433.941 311.716 433.694 312.528 433.634 313.364C433.574 314.2 433.702 315.039 434.009 315.819C434.668 317.546 435.444 319.225 436.332 320.846C436.482 321.163 436.66 321.482 436.369 321.828C435.493 322.866 434.664 323.987 433.019 323.394C432.873 323.342 432.679 323.441 432.509 323.432C431.098 323.375 429.686 323.534 428.322 323.901C426.808 323.456 425.466 324.277 424.032 324.44C423.316 324.619 422.658 324.979 422.122 325.487C421.95 325.616 421.823 325.795 421.758 326C421.694 326.205 421.697 326.425 421.765 326.629C421.878 326.868 422.048 327.077 422.259 327.236C422.471 327.395 422.718 327.501 422.979 327.543C423.823 327.758 424.831 327.289 425.511 327.871C426.659 328.851 428.171 328.844 429.408 329.568C430.886 330.433 432.668 330.212 434.293 330.676C435.993 331.073 437.723 331.321 439.466 331.418C442.783 331.753 446.086 332.164 449.376 332.697C449.839 332.842 450.33 332.876 450.808 332.797C451.287 332.718 451.74 332.527 452.132 332.241C452.831 331.634 453.555 331.056 454.302 330.508C456.209 329.108 458.229 327.869 460.342 326.805C460.594 326.725 460.811 326.561 460.957 326.341C461.103 326.121 461.17 325.858 461.146 325.595C461.14 325.067 461.007 324.548 460.757 324.083C460.507 323.618 460.148 323.221 459.711 322.925ZM443.858 328.893C444.672 328.609 444.672 328.609 444.95 329.345L443.858 328.893ZM456.808 325.782C456.183 326.166 455.524 326.492 454.839 326.756C454.647 326.793 454.381 326.886 454.309 327.032C453.683 328.297 452.318 328.54 451.282 329.22C450.545 329.704 449.701 329.21 449.082 328.852C448.696 328.596 448.282 328.385 447.848 328.224C446.992 327.932 446.247 327.382 445.715 326.65C445.277 326.082 444.847 325.796 444.273 326.334C443.334 327.011 442.311 327.563 441.23 327.976C439.918 328.696 438.595 327.916 437.28 327.728C437.144 327.693 437.016 327.635 436.9 327.556C436.491 327.332 435.69 327.675 435.663 327.313C435.684 326.697 435.896 326.103 436.271 325.614C436.778 324.61 437.422 323.682 438.187 322.857C439.486 321.766 438.775 320.597 438.102 319.612C437.249 318.364 436.874 316.907 436.109 315.632C435.346 314.359 435.797 312.948 435.744 311.6C435.736 311.412 436.344 311.304 436.639 311.16C437.567 310.562 438.445 309.89 439.265 309.15C440.267 308.45 441.409 308.14 442.433 307.551C442.715 307.373 443.054 307.311 443.381 307.376C443.707 307.442 443.996 307.632 444.186 307.905C445.396 309.233 447.067 309.911 448.444 310.996C449.59 311.899 450.664 312.892 451.774 313.841C452.464 314.489 453.251 315.027 454.105 315.436C454.747 315.707 454.857 315.889 454.702 316.702C454.225 318.789 453.578 320.833 452.769 322.815C452.487 323.591 452.237 324.387 451.189 323.575C451.062 323.513 450.92 323.488 450.779 323.503C449.053 323.455 447.411 322.762 445.674 322.825C445.163 322.843 445.332 322.514 445.307 322.267C445.202 321.236 445.773 320.339 445.897 319.337C446.026 318.307 446.098 317.265 446.253 316.235C446.463 314.845 444.66 313.158 443.293 313.336C443.106 313.399 442.936 313.502 442.793 313.638C442.65 313.774 442.538 313.94 442.465 314.123C442.393 314.306 442.361 314.503 442.372 314.7C442.383 314.897 442.436 315.089 442.529 315.263C442.713 315.521 442.939 315.747 443.197 315.931C443.461 316.071 443.658 316.309 443.747 316.594C443.836 316.879 443.81 317.188 443.673 317.453C443.206 318.889 443.283 320.438 442.839 321.892C442.737 322.26 442.518 322.586 442.215 322.819C442.058 322.936 441.925 323.084 441.827 323.253C441.728 323.422 441.665 323.61 441.641 323.805C441.616 323.999 441.632 324.197 441.686 324.385C441.741 324.574 441.833 324.749 441.957 324.901C442.276 325.477 443.027 325.003 443.537 325.244C445.675 325.312 447.807 325.515 449.92 325.851C450.661 326.008 451.382 326.247 452.07 326.562C452.199 326.637 452.344 326.681 452.493 326.692C452.642 326.704 452.791 326.681 452.93 326.627C453.07 326.573 453.195 326.488 453.297 326.379C453.399 326.27 453.475 326.139 453.52 325.997C454.013 324.977 454.086 323.786 454.912 322.894C455.477 322.284 456.011 322.219 456.363 322.994C456.563 323.481 456.84 323.933 457.183 324.333C457.843 325.046 457.37 325.563 456.808 325.781V325.782ZM475.728 290.544C475.396 290.438 474.77 290.38 475.166 289.763C475.234 288.734 474.822 288.135 473.858 288.006C473.483 287.93 473.118 287.811 472.77 287.653C470.035 286.657 467.841 287.858 467.242 290.701C467.221 291.013 467.08 291.305 466.847 291.514C466.614 291.724 466.309 291.834 465.996 291.821C463.789 292.004 462.861 293.275 463.105 295.552C463.125 295.751 463.202 296.081 462.916 296.022C461.946 295.982 460.974 296.061 460.023 296.258C458.983 296.25 457.947 296.387 456.945 296.666C456.301 296.87 455.7 297.139 455.765 297.913C455.795 298.251 455.944 298.568 456.185 298.807C456.426 299.045 456.744 299.192 457.082 299.219C459.431 299.613 461.779 300.004 464.121 300.441C466.048 300.724 467.994 300.848 469.941 300.81C470.476 300.82 470.841 301.4 471.428 301.081C472.579 300.457 473.938 300.458 475.119 299.917C476.463 299.302 477.611 298.6 477.731 296.842C477.822 295.514 477.491 294.242 477.516 292.943C477.566 292.393 477.411 291.844 477.081 291.401C476.751 290.958 476.269 290.653 475.728 290.543V290.544ZM467.184 294.274C466.969 294.191 466.731 294.191 466.515 294.274C466.3 294.357 466.124 294.518 466.021 294.724C465.806 295.131 465.478 295.594 465.967 296.056C466.375 296.442 466.407 297.183 467.129 297.28C467.164 297.281 467.199 297.292 467.229 297.311C467.258 297.331 467.282 297.357 467.298 297.389C467.314 297.421 467.322 297.456 467.32 297.491C467.317 297.527 467.306 297.561 467.286 297.59C467.206 297.696 467.09 297.769 466.96 297.796C466.647 297.837 466.329 297.81 466.027 297.715C465.726 297.62 465.449 297.461 465.216 297.248C464.983 297.034 464.8 296.773 464.678 296.482C464.557 296.19 464.501 295.875 464.514 295.56C464.737 293.798 464.978 293.579 467.634 293.103C467.989 293.071 468.319 292.908 468.56 292.644C468.8 292.381 468.933 292.037 468.932 291.681C469.092 289.546 469.565 289.163 471.623 289.651C471.961 289.731 472.287 289.856 472.673 289.978C472.267 290.713 472.057 291.412 472.763 292.083C472.811 292.125 472.846 292.181 472.862 292.244C472.878 292.306 472.875 292.371 472.854 292.432C472.832 292.492 472.793 292.545 472.741 292.583C472.689 292.621 472.627 292.643 472.563 292.645C470.96 292.653 469.954 294.101 468.43 294.315C468.016 294.383 467.593 294.369 467.185 294.275L467.184 294.274ZM473.948 298.328C473.335 298.566 472.681 298.681 472.024 298.665C471.385 298.483 470.799 298.151 470.315 297.695C469.945 297.417 469.234 297.355 469.265 296.773C469.305 296.069 470.109 296.596 470.445 296.213C471.459 295.055 472.919 294.933 474.297 294.67C474.68 294.597 474.867 294.29 475.315 294.113C475.398 294.864 475.522 295.516 475.531 296.17C475.551 297.649 475.364 297.792 473.948 298.328Z" fill="#3C4048"/>
<path d="M272.382 177.838C272.315 177.835 272.249 177.828 272.183 177.816C272.158 177.808 272.131 177.809 272.106 177.818C272.081 177.826 272.059 177.842 272.044 177.864C272.062 177.878 272.078 177.902 272.096 177.909C272.144 177.933 272.2 177.939 272.252 177.926C272.304 177.913 272.35 177.882 272.382 177.838Z" fill="#3C4048"/>
<path d="M408.511 160.623C410.874 159.328 413.087 157.792 415.448 156.487C418.554 154.772 421.507 152.784 424.574 150.996C425.506 150.272 426.495 149.622 427.53 149.054C428.058 148.852 428.006 148.727 427.864 148.357C427.541 147.514 426.876 146.787 426.637 145.987C426.153 144.498 425.594 143.034 424.961 141.602C424.205 140.095 423.557 138.536 423.021 136.937C422.837 136.331 422.561 135.757 422.203 135.234C421.161 133.679 420.328 131.994 419.726 130.222C419.099 128.164 418.113 126.287 417.342 124.312C416.335 121.738 415.11 119.245 413.884 116.762C413.304 115.588 413.212 114.202 412.428 113.168C411.911 112.384 411.479 111.548 411.138 110.674C409.77 107.794 408.656 104.8 407.209 101.951C406.72 101.18 406.336 100.347 406.068 99.474C405.77 98.057 405.448 97.838 403.97 97.9C403.725 97.9295 403.479 97.9422 403.232 97.938C399.007 97.524 394.784 97.091 390.559 96.685C388.464 96.483 386.34 96.469 384.273 96.114C381.637 95.662 378.97 95.653 376.33 95.311C374.174 95.031 372.01 94.815 369.84 94.636C366.806 94.385 363.789 93.886 360.752 93.698C359.069 93.594 357.431 93.231 355.755 93.137C353.545 93.014 351.355 92.689 349.145 92.533C346.671 92.359 344.218 91.898 341.745 91.715C339.671 91.561 337.6 91.311 335.552 91.044C333.504 90.777 331.44 90.689 329.396 90.494C327.306 90.294 325.19 90.101 323.096 89.919C319.753 89.629 316.402 89.325 313.066 88.886C308.701 88.31 304.296 88.035 299.914 87.587C296.399 87.227 292.891 86.793 289.378 86.41C284.976 85.929 280.551 85.707 276.161 85.067C273.598 84.693 270.995 84.649 268.419 84.261C266.064 83.907 263.654 83.95 261.279 83.599C259.508 83.337 257.679 83.455 255.913 83.169C252.016 82.536 248.071 82.379 244.165 81.85C242.499 81.625 240.805 81.605 239.127 81.459C236.91 81.265 236.95 81.252 236.87 83.484C236.744 86.994 237.219 90.468 237.432 93.958C237.452 94.28 237.376 94.709 238.007 94.512C240.174 93.8583 242.428 93.539 244.692 93.565C247.167 93.566 249.614 92.828 252.088 93.258C252.477 93.3251 252.876 93.3122 253.26 93.2203C253.644 93.1283 254.005 92.9591 254.322 92.723C255.768 91.7451 257.405 91.0843 259.125 90.7839C260.845 90.4835 262.609 90.5503 264.301 90.98C268.348 91.97 271.997 93.905 275.766 95.525C278.083 96.4391 280.145 97.8975 281.779 99.777C282.891 100.999 284.223 102 285.706 102.728C290.026 105.25 294.261 107.914 298.366 110.783C302.319 113.528 305.888 116.789 308.976 120.48C312.667 125.023 315.647 130.1 317.813 135.538C317.934 135.831 318.019 136.115 318.458 136.103C319.964 136.159 321.465 136.3 322.954 136.527C324.216 136.637 325.477 136.754 326.74 136.862C327.52 136.929 327.953 137.237 327.892 138.129C327.734 140.429 327.672 142.738 327.504 145.039C327.311 147.704 327.034 150.363 326.818 153.028C326.608 155.606 326.503 158.194 326.221 160.763C325.904 163.651 325.825 166.556 325.431 169.443C325.069 172.106 325.175 174.833 324.836 177.503C324.358 181.311 324.037 185.137 323.873 188.971C323.745 191.849 323.528 194.711 323.196 197.571C322.972 199.504 322.903 201.456 322.77 203.399C322.68 204.72 322.666 206.051 322.5 207.363C322.196 209.767 322.055 212.188 321.771 214.596C321.529 216.653 321.478 218.767 321.438 220.861C321.407 222.449 320.952 222.713 319.358 222.521C317.918 222.345 316.446 222.408 315.018 222.181C313.866 221.999 312.716 222.151 311.563 221.927C309.507 221.528 307.396 221.476 305.315 221.261C303.065 221.028 300.79 220.824 298.519 220.738C296.314 220.655 294.136 220.326 291.943 220.131C289.698 219.931 287.409 220.165 285.208 219.487C285.004 219.441 284.793 219.437 284.588 219.475C282.811 219.697 281.061 219.263 279.299 219.265C277.916 219.266 276.594 218.892 275.224 218.831C272.5 218.709 269.774 218.544 267.058 218.305C265.508 218.168 265.407 217.917 265.803 216.359C265.82 216.291 265.865 216.23 265.88 216.162C266.439 214.025 266.89 211.861 267.23 209.679C267.567 206.634 268.177 203.639 268.625 200.616C268.886 198.851 269.382 197.119 269.632 195.352C270.044 192.441 270.195 189.497 270.832 186.61C271.156 185.14 271.456 183.66 271.644 182.154C271.8 180.912 271.516 179.648 271.914 178.434C271.968 178.268 271.954 177.981 272.044 177.864C271.955 177.802 271.894 177.707 271.872 177.601C271.847 177.286 271.877 176.968 271.879 176.651C272.072 172.58 272.622 168.534 273.521 164.559C274.071 161.573 274.401 158.567 274.778 155.567C275.178 152.375 275.405 149.161 275.671 145.953C276.011 141.848 276.141 137.72 277.557 133.771C277.696 133.254 278.016 132.805 278.458 132.504C278.9 132.203 279.436 132.071 279.967 132.131C281.949 132.134 283.815 132.845 285.824 132.792C287.204 132.756 288.637 133.116 290.063 133.198C292.338 133.328 294.62 133.548 296.867 133.852C299.985 134.274 303.133 134.412 306.231 134.942C307.163 135.102 308.072 134.962 308.985 135.052C311.345 135.285 313.682 135.768 316.066 135.802C316.008 134.305 315.59 132.843 314.848 131.542C313.197 127.717 310.983 124.16 308.28 120.989C304.705 116.976 300.653 113.416 296.212 110.389C293.769 108.688 291.207 107.199 288.702 105.613C287.029 104.38 285.226 103.332 283.326 102.489C282.569 102.19 281.892 101.717 281.351 101.109C280.387 100.122 279.305 99.2579 278.13 98.535C273.625 95.6269 268.679 93.4689 263.483 92.145C261.949 91.711 260.33 91.667 258.775 92.0167C257.219 92.3665 255.775 93.0991 254.574 94.148C253.966 94.7006 253.17 95.0009 252.348 94.988C251.182 94.96 250.016 94.92 248.848 94.896C245.271 94.823 241.664 94.816 238.283 96.108C235.363 97.224 232.391 98.203 229.497 99.386C222.734 102.15 217.393 106.781 212.782 112.32C210.308 115.442 208.243 118.869 206.638 122.515C206.022 123.737 205.478 124.994 205.008 126.279C204.72 127.137 204.681 128.106 204.343 128.834C203.863 129.854 203.491 130.921 203.233 132.018C202.68 134.851 202.457 137.738 202.568 140.622C202.673 141.982 202.548 143.349 202.198 144.667C201.907 145.945 201.979 147.278 202.405 148.517C202.483 148.866 202.51 149.224 202.484 149.581L202.497 149.578C202.889 149.576 202.835 149.948 202.829 150.208C202.821 150.558 202.711 150.912 202.739 151.257C202.877 152.897 202.803 154.549 202.519 156.17C202.237 157.723 202.749 159.315 202.199 160.848C201.939 161.572 202.486 162.38 202.214 163.035C201.508 164.737 201.89 166.542 201.57 168.288C201.327 170.272 201.271 172.275 201.401 174.27C201.416 176.2 201.354 178.125 201.299 180.053C201.249 181.801 200.732 183.5 200.849 185.245C200.943 186.677 200.425 187.273 199.029 187.052C198.133 186.912 197.225 186.86 196.319 186.897C194.912 186.952 194.392 187.717 194.781 189.032C194.921 189.469 194.99 189.925 194.986 190.384C195.022 190.722 194.93 191.062 194.728 191.336C194.526 191.61 194.229 191.798 193.895 191.864C192.91 192.042 191.92 192.23 190.935 192.368C188.055 192.772 185.257 193.569 182.409 194.12C179.689 194.645 176.966 195.223 174.263 195.863C171.92 196.418 169.513 196.681 167.183 197.324C166.031 197.642 164.717 197.434 163.76 198.386C162.765 197.626 161.866 198.557 161.015 198.723C158.832 199.055 156.668 199.499 154.53 200.051C152.887 200.549 152.779 200.488 152.833 198.825C152.906 196.588 153.145 194.356 153.296 192.121C153.479 190.447 153.564 188.764 153.552 187.08C153.489 185.777 153.553 184.471 153.745 183.18C153.869 182.487 153.956 181.788 154.005 181.086C154.095 178.59 153.98 176.076 154.245 173.602C154.756 168.822 154.914 164.021 155.285 159.234C155.68 154.162 156.095 149.09 156.477 144.016C156.681 141.306 156.967 138.589 156.933 135.878C156.877 131.427 157.172 126.993 157.313 122.551C157.335 121.854 156.958 121.187 157.249 120.468C157.366 120.178 157.372 119.981 157.776 120.009C159.45 120.126 161.139 120.267 162.779 120.503C165.099 120.837 167.424 121.119 169.75 121.386C171.132 121.546 172.558 121.394 173.921 121.63C176.988 122.16 180.094 122.268 183.174 122.644C185.303 122.904 187.459 122.956 189.577 123.276C192.67 123.743 195.794 123.835 198.896 124.189C200.266 124.345 201.582 124.789 202.975 124.815C203.26 124.871 203.556 124.816 203.802 124.661C204.048 124.506 204.226 124.263 204.299 123.982C204.607 123.132 205.059 122.336 205.439 121.512C207.206 117.613 209.508 113.981 212.28 110.719C215.458 106.914 219.197 103.615 223.367 100.934C226.424 99.1748 229.6 97.6311 232.872 96.314C233.72 95.933 234.728 95.937 235.602 95.52C235.959 95.35 236.206 95.19 236.182 94.758C236.095 93.105 236.269 91.448 236.064 89.795C235.834 88.2583 235.701 86.7085 235.667 85.155C235.67 83.955 235.536 82.755 235.49 81.555C235.471 81.075 235.222 80.891 234.817 81.022C233.653 81.4 232.511 81.847 231.347 82.225C229.924 82.685 228.804 83.693 227.329 84.159C224.795 85.0206 222.33 86.0712 219.954 87.302C217.125 88.69 214.25 89.973 211.396 91.303C208.975 92.432 206.563 93.582 204.12 94.663C203.565 94.907 203.363 95.665 202.903 95.685C202.016 95.7648 201.158 96.0426 200.392 96.498C199.753 96.9003 199.062 97.2138 198.339 97.43C196.849 97.676 195.708 98.596 194.381 99.123C191.758 100.165 189.314 101.649 186.718 102.771C184.115 103.897 181.508 105.011 178.931 106.195C177.119 107.027 175.38 107.991 173.514 108.741C171.781 109.438 170.079 110.306 168.398 111.18C165.318 112.78 162.139 114.195 158.982 115.647C157.964 116.188 156.904 116.648 155.814 117.022C155.494 117.07 155.195 117.21 154.954 117.426C154.712 117.641 154.539 117.922 154.454 118.234C153.87 120.2 153.704 122.254 153.084 124.231C152.477 126.163 152.397 128.254 151.894 130.226C151.022 133.638 150.313 137.086 149.58 140.526C149.046 143.032 148.538 145.555 147.93 148.034C147.123 151.333 146.37 154.65 145.558 157.949C144.666 161.579 144.083 165.289 143.146 168.919C142.672 170.754 142.494 172.679 141.885 174.462C141.291 176.198 141.809 178.186 140.585 179.75C140.495 179.867 140.555 180.096 140.526 180.27C140.331 181.484 140.228 182.723 139.915 183.906C139.022 186.867 138.294 189.875 137.733 192.916C137.647 193.492 137.685 194.028 138.205 194.293C138.469 194.413 138.769 194.424 139.041 194.324C139.313 194.223 139.534 194.02 139.657 193.758C139.868 193.418 140.107 193.132 140.445 193.196C141.125 193.323 141.545 192.906 142.017 192.6C144.499 190.996 147.411 190.253 149.897 188.657C150.241 188.437 150.774 188.047 151.038 188.363C151.189 188.574 151.287 188.818 151.324 189.075C151.361 189.332 151.335 189.594 151.25 189.839C150.991 190.602 150.858 191.402 150.856 192.207C150.966 194.957 150.533 197.675 150.493 200.414C150.487 200.874 150.247 201.134 149.739 201.279C148.366 201.564 146.974 201.746 145.574 201.823C145.155 201.92 144.72 201.922 144.3 201.827C143.881 201.733 143.488 201.546 143.151 201.279C142.965 201.134 142.748 201.033 142.516 200.985C142.285 200.936 142.046 200.942 141.817 201C141.588 201.059 141.376 201.169 141.196 201.322C141.017 201.476 140.875 201.668 140.781 201.885C140.137 203.055 139.885 203.131 138.601 202.538C137.21 201.897 136.627 202.243 136.617 203.759C136.614 204.251 136.607 204.527 135.988 204.721C134.929 204.923 133.842 204.933 132.779 204.752C130.137 204.653 127.502 204.334 124.868 204.065C123.668 203.942 122.468 203.772 121.282 203.548C119.283 203.175 117.325 202.609 115.435 201.86C113.052 200.913 110.518 200.352 108.07 199.56C106.682 199.099 105.246 198.797 103.79 198.662C103.567 198.641 103.343 198.685 103.144 198.788C102.946 198.89 102.781 199.048 102.669 199.242C102.154 199.898 102.243 200.719 101.922 201.417C100.987 203.455 100.31 205.598 99.298 207.611C98.296 209.603 97.592 211.733 96.616 213.746C95.362 216.328 93.981 218.839 92.6 221.352C91.456 223.434 90.188 225.452 89.124 227.572C87.928 229.958 86.369 232.123 85.09 234.458C84.84 234.915 85.013 235.537 84.453 235.868C83.266 236.57 83.201 237.942 82.699 239.045C82.489 239.505 82.966 239.836 83.242 240.108C83.561 240.421 83.802 239.992 84.038 239.825C85.9769 238.459 87.7041 236.816 89.164 234.947C90.077 233.773 91.848 233.502 92.254 231.857C92.267 231.809 92.442 231.783 92.544 231.778C93.1942 231.647 93.7906 231.325 94.257 230.853C96.7095 229.149 99.2856 227.631 101.964 226.311C102.6 225.995 102.794 225.616 102.587 224.994C102.232 223.925 101.845 222.867 101.495 221.797C101.387 221.469 100.935 221.059 101.425 220.787C101.938 220.503 102.148 221.052 102.355 221.39C102.897 222.455 103.304 223.583 103.566 224.748C103.646 225.003 103.583 225.338 104.024 225.312C104.264 225.304 104.499 225.24 104.711 225.128C104.923 225.015 105.107 224.855 105.248 224.661C105.389 224.466 105.485 224.242 105.526 224.006C105.568 223.769 105.555 223.526 105.489 223.295C105.169 222.148 104.799 221.015 104.432 219.881C104.34 219.597 104.226 219.244 104.497 219.116C104.837 218.956 105.001 219.302 105.157 219.586C105.679 220.618 106.081 221.705 106.357 222.828C106.452 223.166 106.127 224.158 107.211 223.823C108.6 223.393 108.851 223.111 108.59 222.143C108.229 221.005 107.799 219.889 107.302 218.803C107.17 218.477 106.775 218.04 107.348 217.826C107.84 217.642 107.974 218.159 108.109 218.502C108.594 219.553 108.99 220.642 109.292 221.759C109.464 222.567 109.808 222.815 110.66 222.495C112.447 221.818 114.285 221.283 116.157 220.896C116.678 220.79 117.067 220.335 117.634 220.372C121.148 220.605 124.671 220.639 128.185 220.932C129.507 221.145 130.849 221.214 132.186 221.137C132.992 221.037 133.81 221.139 134.566 221.435C135.219 221.702 134.47 222.473 134.742 222.981C134.784 223.038 134.815 223.103 134.835 223.171C135.093 225.409 136.445 227.149 137.535 228.997C138.075 229.909 138.775 229.891 139.57 229.211C140.009 228.755 140.412 228.265 140.775 227.747C141.643 226.745 141.939 226.694 143.021 227.357C143.351 227.559 143.678 227.765 144.013 227.957C145.066 228.559 145.671 228.522 146.313 227.493C146.601 226.937 147.047 226.479 147.595 226.178C148.144 225.876 148.77 225.744 149.393 225.799C150.907 225.873 152.408 225.473 153.931 225.575C154.343 225.603 154.671 225.615 154.676 226.195C154.694 228.826 154.87 231.463 154.759 234.088C154.649 236.688 155.078 239.262 154.902 241.867C154.755 244.026 155.019 246.225 154.931 248.369C154.828 250.897 154.895 253.419 154.91 255.936C154.922 257.885 154.959 259.863 154.91 261.79C154.849 264.148 154.797 266.523 154.85 268.871C154.91 271.608 154.976 274.346 154.963 277.083C154.79 278.121 154.855 279.185 155.153 280.194C155.236 280.377 155.425 280.518 155.296 280.763C154.726 281.849 155.026 283.058 154.968 284.18C154.806 287.333 154.924 290.502 154.962 293.664C155.118 294.425 155.171 295.203 155.122 295.978C154.889 297.251 154.86 298.554 155.036 299.836C155.076 301.496 154.578 301.601 153.263 301.66C150.481 301.786 147.699 301.9 144.93 302.177C143.968 302.273 143.033 302.031 142.07 302.207C139.921 302.561 137.753 302.796 135.578 302.912C132.936 303.099 130.294 303.325 127.648 303.433C125.871 303.517 124.101 303.719 122.35 304.037C120.668 304.331 118.997 304.034 117.317 304.331C115.271 304.721 113.19 304.902 111.107 304.873C108.603 304.916 106.17 305.712 104.124 307.157C104.315 307.395 104.586 307.555 104.887 307.608C107.501 308.105 110.146 308.425 112.803 308.564C113.105 308.585 113.36 308.322 113.711 308.54C114.562 308.962 115.508 309.158 116.457 309.11C119.555 309.242 122.629 309.576 125.697 309.955C128.753 310.332 131.828 310.494 134.882 310.932C137.929 311.369 141.02 311.492 144.086 311.802C146.026 311.997 147.954 312.444 149.894 312.496C153.952 312.604 157.992 312.836 162.02 313.336C164.249 313.612 166.515 313.75 168.71 314.108C171.954 314.638 175.233 314.778 178.472 315.333C181.827 315.907 185.239 316.17 188.635 316.46C189.595 316.542 190.483 316.866 191.423 316.956C193.539 317.16 195.655 317.348 197.772 317.542C197.988 317.562 198.272 317.606 198.308 317.798C198.366 318.094 198.063 318.142 197.835 318.253C196.877 318.716 195.776 318.727 194.834 319.189C193.545 319.742 192.187 320.115 190.796 320.296C188.835 320.655 186.938 321.278 185.034 321.784C182.694 322.407 180.359 323.144 178.029 323.852C175.033 324.76 171.969 325.429 168.992 326.424C166.805 327.156 164.552 327.692 162.335 328.333C160.079 328.985 157.805 329.601 155.538 330.233C152.808 330.993 150.104 331.86 147.353 332.541C144.503 333.247 141.759 334.336 138.86 334.843C138.218 334.955 138.137 335.421 137.982 335.875C137.795 336.423 138.248 336.699 138.574 336.861C139.32 337.232 139.109 337.554 138.604 337.877C137.548 338.61 136.448 339.279 135.31 339.878C135.097 339.943 134.9 340.051 134.731 340.195C134.562 340.339 134.424 340.517 134.327 340.717C134.229 340.917 134.174 341.134 134.164 341.357C134.154 341.579 134.19 341.8 134.27 342.008C134.708 343.041 134.188 344.295 135.111 345.163C135.155 345.205 135.135 345.365 135.093 345.441C134.895 345.927 134.797 346.448 134.806 346.972C134.815 347.497 134.93 348.014 135.145 348.493C135.748 350.216 136.114 352.013 136.234 353.835C136.238 354.367 136.352 354.891 136.571 355.376C136.789 355.861 137.106 356.294 137.502 356.649C137.818 356.937 138.235 356.928 138.237 356.59C138.242 355.55 139.108 354.897 139.273 353.96C139.641 351.862 139.699 349.718 140.546 347.696C141.192 346.156 141.422 344.44 142.267 342.976C142.503 342.427 142.851 341.934 143.289 341.528C143.727 341.123 144.245 340.813 144.81 340.62C148.328 339.694 151.82 338.669 155.345 337.77C156.874 337.38 158.38 336.872 159.909 336.555C161.759 336.173 163.584 335.683 165.377 335.158C167.423 334.559 169.505 334.055 171.557 333.524C173.05 333.138 174.575 332.709 176.121 332.428C178.315 332.028 180.423 331.182 182.608 330.71C184.752 330.246 186.856 329.622 188.954 329.034C192.887 327.931 196.838 326.892 200.77 325.788C202.726 325.239 204.711 324.795 206.67 324.255C208.353 323.791 210.01 323.233 211.69 322.76C213.723 322.188 215.764 321.656 217.767 320.968C218.599 320.592 219.49 320.361 220.4 320.284C222.86 320.307 225.237 321.22 227.727 320.984C227.831 320.983 227.933 321.006 228.026 321.053C228.119 321.1 228.199 321.168 228.26 321.252C228.383 321.526 228.106 321.681 227.904 321.822C226.925 322.437 225.98 323.105 225.074 323.823C224.437 324.406 223.766 324.949 223.064 325.452C221.872 326.269 220.544 326.811 219.342 327.568C217.717 328.592 215.972 329.377 214.279 330.246C211.991 331.42 209.803 332.766 207.581 334.042C206.499 334.664 205.377 335.226 204.279 335.803C201.793 336.96 199.399 338.306 197.119 339.829C195.47 341.049 195.539 341.805 197.187 342.906C199.657 344.647 201.892 346.7 203.837 349.014C205.294 350.658 207.195 351.811 208.767 353.344C209.47 354.029 210.447 353.416 210.653 352.45C210.973 350.953 210.198 349.7 209.745 348.448C208.973 346.572 208.067 344.754 207.035 343.008C206.76 342.497 206.827 342.368 207.343 342.087C208.033 341.711 208.821 341.641 209.473 341.284C211.542 340.152 213.773 339.39 215.883 338.367C217.833 337.422 219.941 336.865 221.792 335.633C223.128 334.897 224.549 334.328 226.024 333.94C227.284 333.402 228.493 332.753 229.638 332.001C230.058 331.766 230.518 331.923 230.937 331.666C232.468 330.726 234.22 330.25 235.777 329.314C237.18 328.552 238.662 327.945 240.197 327.505C241.503 327.071 242.591 326.237 243.848 325.7C245.012 325.329 246.115 324.791 247.124 324.102C247.409 323.877 247.738 323.714 248.089 323.623C248.441 323.532 248.807 323.514 249.166 323.572C252.262 323.885 255.341 324.366 258.433 324.732C261.273 325.068 264.118 325.341 266.955 325.72C268.792 325.966 270.653 326.164 272.521 326.248C274.895 326.355 277.221 326.95 279.599 327.14C280.096 327.18 280.347 326.749 280.849 326.914C283.627 327.824 286.55 327.926 289.419 328.264C292.34 328.609 295.259 329 298.21 329.173C301.494 329.365 304.759 329.926 308.021 330.399C309.269 330.58 310.543 330.521 311.751 330.714C313.111 331.046 314.497 331.255 315.894 331.338C318.892 331.268 321.764 332.164 324.747 332.25C327.091 332.318 329.431 333.124 331.711 331.939C332.495 331.554 333.277 331.167 334.063 330.785C334.615 330.517 335.155 330.245 334.796 329.107C335.951 330.385 336.636 329.478 337.388 329.159C339.003 328.332 340.658 327.587 342.348 326.928L342.34 326.87L342.4 326.867C344.2 325.752 346.219 324.997 347.958 323.837C349.6 322.744 351.682 322.586 353.105 321.143C353.227 321.04 353.37 320.966 353.525 320.928C353.68 320.889 353.841 320.887 353.997 320.921C354.065 320.835 354.153 320.767 354.254 320.722C354.355 320.678 354.464 320.659 354.574 320.667C354.852 320.416 355.024 320.012 355.491 320.035C355.62 319.853 355.788 319.915 355.953 319.962C356.342 319.074 357.336 319.243 358.011 318.852C359.337 318.082 360.727 317.382 362.121 316.715C362.751 316.413 363.374 315.958 364.062 315.674C364.184 315.624 364.354 315.504 364.366 315.401C364.441 314.716 364.665 314.578 365.161 315.126C365.201 315.171 365.361 315.106 365.464 315.093C366.996 314.284 368.499 313.415 370.065 312.681C372.421 311.575 374.769 310.461 377.023 309.161C378.627 308.237 380.303 307.451 381.91 306.525C383.613 305.544 385.505 304.869 387.28 303.983C388.526 303.266 389.812 302.622 391.132 302.054C392.561 301.48 393.934 300.776 395.234 299.951C396.86 299.007 398.556 298.159 400.209 297.311C402.613 295.897 405.112 294.648 407.686 293.574C407.935 293.492 408.153 293.338 408.313 293.131C408.474 292.924 408.568 292.674 408.585 292.413C408.669 291.452 408.702 290.487 408.685 289.523C408.799 287.471 408.568 285.403 408.617 283.344C408.665 281.354 408.587 279.361 408.518 277.386C408.438 275.044 408.444 272.696 408.35 270.354C408.216 267.024 408.32 263.686 408.318 260.351C408.315 258.143 408.335 255.935 408.286 253.729C408.23 251.195 408.176 248.652 408.192 246.128C408.202 244.633 408.072 243.132 408.105 241.631C408.164 238.874 407.863 236.101 407.903 233.35C407.937 231.014 407.898 228.67 407.999 226.328C408.115 223.603 407.868 220.865 407.823 218.132C407.784 215.762 407.772 213.388 407.688 211.026C407.645 209.806 407.905 208.621 407.766 207.392C407.455 204.627 407.73 201.836 407.544 199.052C407.38 196.582 407.509 194.093 407.481 191.614C407.436 187.521 407.319 183.431 407.263 179.339C407.228 176.786 407.326 174.231 407.298 171.679C407.266 168.811 407.251 165.937 407.044 163.079C406.989 162.566 407.102 162.049 407.366 161.605C407.631 161.162 408.033 160.817 408.511 160.623ZM312.253 91.362C311.628 94.242 311.904 97.232 311.165 100.098C310.994 100.56 310.733 100.982 310.397 101.342C310.061 101.702 309.657 101.991 309.208 102.193C309.139 102.247 309.058 102.285 308.972 102.305C308.886 102.324 308.797 102.324 308.711 102.304C308.625 102.285 308.545 102.246 308.475 102.192C308.406 102.137 308.35 102.068 308.311 101.989C307.653 101.122 306.911 100.319 306.26 99.448C305.782 98.808 305.387 98.97 305.004 99.478C304.629 99.978 304.417 100.326 303.598 99.914C302.951 99.588 302.231 100.384 301.601 100.788C301.302 100.976 301.043 101.222 300.841 101.511C300.219 102.442 299.718 101.994 299.208 101.414C299.161 101.361 299.124 101.301 299.081 101.244C297.691 99.381 297.537 99.331 295.449 100.304C295.261 100.434 295.041 100.511 294.813 100.527C294.585 100.542 294.357 100.496 294.153 100.392C293.758 100.122 294.033 99.687 294.088 99.321C294.498 96.609 294.295 93.856 294.656 91.137C294.74 90.51 295.081 89.891 294.778 89.185C294.626 88.832 295.055 88.825 295.354 88.859C297.511 89.109 299.684 89.449 301.83 89.519C304.292 89.597 306.665 90.257 309.117 90.261C309.99 90.263 310.86 90.464 311.734 90.533C312.332 90.58 312.258 90.967 312.253 91.362ZM136.168 207.655C135.876 210.485 135.528 213.31 135.235 216.139C135.137 217.084 135.262 218.164 134.483 218.8C133.509 219.431 132.36 219.737 131.202 219.673C129.504 219.769 127.849 219.299 126.155 219.281C124.754 219.266 123.351 219.079 121.952 219.113C121.091 219.112 120.237 218.953 119.433 218.643C118.723 218.385 118.684 217.249 118.675 216.426C118.637 212.972 120.729 210.602 122.769 208.131C123.101 207.611 123.567 207.189 124.118 206.91C124.669 206.632 125.284 206.506 125.9 206.546C129.116 206.682 131.913 206.269 134.725 206.21C135.83 206.187 136.283 206.543 136.168 207.655ZM151.845 178.362C151.636 180.279 151.535 182.206 151.543 184.134C151.609 184.519 151.524 184.914 151.306 185.237C151.088 185.561 150.754 185.788 150.373 185.872C149.388 186.252 148.448 186.738 147.569 187.324C145.766 188.314 143.905 189.206 142.029 190.051C141.422 190.324 140.874 191.285 140.229 190.783C139.766 190.423 140.436 189.641 140.565 189.04C141.182 186.166 141.827 183.298 142.459 180.427C143.244 176.861 144.049 173.299 144.8 169.727C145.084 168.377 145.632 167.085 145.83 165.741C146.182 163.351 147.123 161.102 147.286 158.66C147.516 157.171 147.862 155.703 148.322 154.269C148.826 152.086 149.294 149.894 149.79 147.709C150.007 146.572 150.304 145.452 150.678 144.357C150.844 143.919 151.123 143.427 150.449 143.12C150.415 143.109 150.385 143.088 150.363 143.06C150.341 143.032 150.327 142.999 150.323 142.963C150.32 142.927 150.326 142.892 150.343 142.86C150.359 142.828 150.384 142.802 150.415 142.784C151.809 141.926 151.568 140.364 151.841 139.117C152.531 135.957 153.297 132.816 154.011 129.662L154.196 128.85C153.866 131.698 154.581 134.548 154.377 137.43C154.191 140.056 154.183 142.707 154.037 145.341C153.828 149.07 153.428 152.788 153.252 156.517C153.03 158.965 152.933 161.422 152.959 163.88C152.935 164.76 152.834 165.635 152.656 166.497C152.462 167.144 152.483 167.837 152.716 168.471C152.774 168.561 152.799 168.668 152.786 168.774C151.776 171.897 152.054 175.167 151.845 178.362ZM260.205 93.822C262.695 92.795 264.699 94.234 266.901 94.778C270.703 95.717 273.759 98.057 277.029 100.053C275.006 99.76 272.801 99.819 271.625 97.647C271.491 97.3786 271.274 97.1609 271.006 97.0271C270.737 96.8932 270.433 96.8503 270.138 96.905C267.875 97.146 265.62 96.75 263.355 96.788C262.448 96.723 261.558 96.5165 260.715 96.176C259.48 95.753 258.12 96.073 256.708 95.603C257.834 94.9346 259.002 94.3397 260.205 93.822ZM240.215 97.975C241.833 97.6413 243.471 97.4148 245.119 97.297C247.03 97.4006 248.947 97.3471 250.849 97.137C252.319 96.944 253.765 97.424 255.245 97.466C256.913 97.512 258.59 97.726 260.265 97.854C261.65 97.959 262.914 98.659 264.342 98.655C265.989 98.651 267.636 98.774 269.282 98.866C269.693 98.8525 270.1 98.9496 270.461 99.1471C270.822 99.3446 271.123 99.6354 271.333 99.989C271.594 100.498 271.979 100.932 272.452 101.253C272.925 101.574 273.472 101.77 274.041 101.824C276.391 102.394 278.683 103.182 280.886 104.18C284.784 105.8 288.429 107.925 292.153 109.896C294.339 111.054 296.16 112.735 298.276 113.993C298.906 114.377 299.405 114.943 299.707 115.616C300.062 116.475 300.887 116.811 301.462 117.2C303.252 118.265 304.77 119.731 305.896 121.482C306.761 122.755 307.803 123.904 308.62 125.228C309.403 126.416 310.118 127.648 310.76 128.918C311.294 130.055 311.732 131.236 312.234 132.388C312.528 133.063 312.296 133.308 311.609 133.238C308.813 132.95 306.022 132.597 303.219 132.402C302.144 132.327 301.104 132.038 300.027 132.044C299.359 132.048 298.913 131.858 298.781 131.074C298.487 129.894 297.948 128.788 297.199 127.83C297.06 127.62 296.863 127.2 296.497 127.386C296.172 127.552 296.227 127.956 296.3 128.254C296.437 128.809 296.668 129.34 296.806 129.894C297.181 131.406 296.876 131.699 295.371 131.547C293.104 131.32 290.821 131.233 288.556 131.035C287.057 130.904 285.524 130.579 284.021 130.495C283.459 130.452 282.912 130.293 282.415 130.026C281.919 129.76 281.483 129.393 281.136 128.949C279.876 127.589 278.32 126.499 277.108 125.182C274.675 122.538 271.828 120.347 269.434 117.676C267.462 115.476 265.348 113.406 263.182 111.381C260.941 109.286 258.509 107.423 256.242 105.359C254.421 103.743 252.301 102.498 250.002 101.697C248.953 101.143 247.869 100.657 246.757 100.244C245.533 99.973 244.379 99.399 243.162 99.085C242.232 98.8915 241.29 98.7621 240.342 98.698C240.084 98.668 239.808 98.655 239.741 98.376C239.651 98.006 240.007 98.013 240.216 97.975H240.215ZM262.302 130.443C260.494 131.373 257.179 131.186 255.572 129.753C257.797 130.135 260.046 130.366 262.302 130.443ZM246.324 260.875C245.253 262.912 244.538 265.119 243.313 267.079C243.148 267.463 242.86 267.781 242.494 267.982C242.128 268.183 241.705 268.256 241.293 268.189C239.674 268.129 238.099 267.654 236.717 266.809C235.785 266.336 234.755 266.059 233.855 265.489C233.388 265.249 233.026 264.846 232.839 264.355C232.652 263.865 232.653 263.323 232.842 262.833C233.234 261.722 233.662 260.605 234.034 259.506C234.499 258.464 234.887 257.389 235.194 256.29C235.274 255.854 235.403 255.693 235.971 255.81C238.915 256.463 241.795 257.38 244.574 258.552C244.868 258.67 245.141 258.844 245.439 258.948C246.944 259.473 247.039 259.516 246.324 260.875ZM229.22 192.763C230.125 188.868 231.059 184.981 232.095 181.117C233.06 177.517 233.793 173.857 234.624 170.221C235.186 167.762 235.924 165.354 236.635 162.935C237.245 160.865 237.594 158.667 238.232 156.648C239.175 153.666 238.765 150.94 238.107 148.111C237.117 143.857 236.097 139.611 235.107 135.357C234.837 134.197 233.672 133.799 233.105 132.9C232.925 132.614 232.493 132.519 232.475 131.828C233.538 132.374 234.532 133.046 235.434 133.831C235.79 134.111 235.334 134.587 235.474 135.028C236.915 139.599 238.11 144.245 239.052 148.944C239.486 151.064 240.129 153.228 239.809 155.406C239.521 157.366 240.064 159.244 240.004 161.154C239.904 164.345 240.604 167.488 240.464 170.683C240.308 171.483 240.462 172.312 240.895 173.002C241.008 173.255 241.031 173.539 240.96 173.807C240.405 177.933 240.756 182.077 240.684 186.213C240.639 188.839 240.601 191.463 240.453 194.088C240.343 196.012 240.493 197.956 240.305 199.87C240.142 201.524 240.455 203.17 240.185 204.821C240.084 205.174 240.094 205.55 240.213 205.897C240.332 206.244 240.555 206.547 240.851 206.764C240.973 206.844 241.111 207.109 241.066 207.204C240.963 207.521 240.924 207.856 240.952 208.189C240.98 208.521 241.073 208.845 241.227 209.141C241.61 210.393 241.38 211.723 241.806 212.959C242.2 214.102 241.249 215.023 241.266 216.117C241.27 216.397 240.869 216.291 240.629 216.272C237.097 215.986 233.555 215.816 230.046 215.281C229.874 215.237 229.695 215.23 229.52 215.261C227.561 215.866 225.688 214.675 223.717 214.999C223.117 215.098 222.649 214.521 223.12 213.765C224.344 211.79 225.224 209.621 225.723 207.352C226.155 205.434 227.153 203.672 227.337 201.686C227.761 198.672 228.39 195.691 229.22 192.763ZM221.861 111.687C221.898 111.46 221.974 111.271 222.236 111.255C222.446 111.243 222.521 111.385 222.596 111.565C222.963 112.422 223.509 113.19 224.197 113.82C224.884 114.449 225.698 114.925 226.584 115.215C226.67 115.246 226.734 115.335 226.955 115.518C226.612 115.607 226.255 115.622 225.906 115.562C225.557 115.502 225.225 115.369 224.931 115.171C223.836 114.661 222.899 113.866 222.218 112.868C222.08 112.706 221.977 112.518 221.916 112.315C221.855 112.112 221.836 111.898 221.861 111.687ZM204.647 258.835C204.964 258.821 205.278 258.763 205.579 258.663C205.369 259.016 204.964 258.876 204.647 258.835ZM217.141 220.992C217.035 221.008 216.934 221.047 216.844 221.105C214.322 222.796 211.392 222.54 208.576 222.891C206.432 223.158 204.282 223.203 202.136 223.361C201.309 223.423 200.837 223.584 201.073 224.732C201.59 227.24 201.742 229.822 202.238 232.335C202.675 234.547 202.425 236.775 202.685 238.975C202.71 240.341 202.897 241.698 203.242 243.02C203.358 243.335 203.152 243.554 203.12 243.814C203.084 243.959 203.081 244.11 203.112 244.256C203.143 244.402 203.207 244.539 203.299 244.657C203.391 244.775 203.508 244.87 203.642 244.936C203.776 245.001 203.924 245.036 204.073 245.036C203.093 245.013 203.143 245.673 203.22 246.232C203.449 247.904 203.465 249.592 203.61 251.255C203.603 252.293 203.678 253.331 203.836 254.357C203.973 255.473 204.036 256.596 204.026 257.72C204.106 258.465 204.207 258.777 204.556 258.83C204.393 258.822 204.263 258.858 204.219 259.046C204.02 259.87 204.009 260.728 204.189 261.556C204.373 262.694 204.427 263.849 204.349 264.999C204.391 267.794 204.574 270.582 204.647 273.375C204.692 275.095 204.564 276.818 204.561 278.54C204.48 280.142 204.533 281.747 204.719 283.34C204.742 284.248 204.703 285.157 204.6 286.06C204.658 288.276 204.55 290.495 204.508 292.712C204.382 294.593 204.37 296.48 204.471 298.362C204.557 299.202 204.181 299.883 204.245 300.665C204.285 301.152 203.791 301.372 203.423 301.532C201.18 302.509 201.65 303.162 201.68 305.252C201.722 306.995 202.429 308.655 203.656 309.893C203.761 310.005 204.061 310.126 203.908 310.286C203.33 310.892 203.363 311.842 202.809 312.381C202.535 312.647 202.319 312.966 202.175 313.319C202.031 313.672 201.961 314.052 201.971 314.433C201.94 315.212 201.939 315.774 200.674 315.658C197.347 315.352 194.046 314.875 190.732 314.504C188.828 314.29 186.908 314.073 184.989 313.918C182.231 313.696 179.486 313.305 176.735 312.997C174.785 312.778 172.834 312.578 170.883 312.369C168.567 312.122 166.253 311.855 163.933 311.634C162.537 311.5 161.191 311.072 159.781 311.011C158.747 310.965 157.089 309.855 157.138 309.195C157.225 308.05 157.136 306.908 157.205 305.77C157.352 304.255 157.39 302.731 157.317 301.211C157.02 297.822 157.244 294.44 157.253 291.069C157.262 287.975 157.11 284.892 157.089 281.803C157.073 279.301 157.261 276.793 157.144 274.297C157.057 272.426 157.228 270.564 157.104 268.69C156.967 266.644 157.256 264.573 157.183 262.52C157.103 260.279 156.95 258.005 157.058 255.802C157.174 253.446 156.798 251.112 157.069 248.767C157.22 246.672 157.255 244.571 157.174 242.472C157.183 240.519 157.145 238.522 157.08 236.556C157.012 234.85 157.058 233.142 157.22 231.442C157.314 229.736 157.245 228.025 157.012 226.332C156.952 225.679 156.992 225.388 157.714 225.252C159.925 224.839 162.169 224.812 164.397 224.602C168.13 224.252 171.9 224.519 175.625 224.042C179.397 223.561 183.202 223.454 186.972 222.936C188.886 222.673 190.847 222.888 192.772 222.586C195.618 222.141 198.501 222.369 201.361 222.136C205.13 221.926 208.88 221.453 212.584 220.721C215.106 220.176 217.499 219.147 219.629 217.691C219.852 217.467 220.124 217.296 220.422 217.192C220.721 217.087 221.04 217.052 221.354 217.088C221.78 217.184 222.412 216.973 222.563 217.458C222.687 217.857 222.129 218.143 221.807 218.382C220.367 219.452 219.017 220.698 217.141 220.992ZM328.481 327.966C328.001 329.556 326.805 330.119 325.118 330.01C322.523 329.842 319.986 329.182 317.392 329.138C315.344 329.103 313.37 328.589 311.339 328.421C306.445 328.015 301.594 327.183 296.696 326.723C293.952 326.465 291.192 326.195 288.448 325.773C286.052 325.284 283.615 325.022 281.17 324.99C279.784 325.038 278.425 324.412 277 324.477C275.115 324.563 273.342 323.771 271.42 323.862C269.88 323.768 268.346 323.586 266.827 323.316C265.054 323.19 263.32 322.813 261.56 322.623C259.82 322.435 258.052 322.389 256.347 322.036C254.95 321.746 253.538 321.836 252.153 321.584C251.843 321.528 251.507 321.596 251.204 321.522C250.552 321.365 249.996 321.22 250.139 320.236C250.394 318.818 250.463 317.373 250.344 315.937C250.136 314.208 250.854 312.631 250.792 310.927C250.728 309.191 251.178 307.44 251.194 305.694C251.209 304.098 251.74 302.554 251.474 300.92C251.5 300.058 251.585 299.198 251.726 298.347C251.742 298.183 251.7 298.019 251.608 297.883C251.516 297.747 251.379 297.647 251.221 297.601C247.591 295.861 243.905 294.244 240.187 292.702C237.721 291.674 235.264 290.625 232.817 289.554C232.267 289.314 232.156 289.276 232.157 290.011C232.16 291.685 231.927 293.359 231.865 295.035C231.785 297.213 231.736 299.395 231.748 301.575C231.766 304.604 231.256 307.602 231.264 310.626C231.268 312.346 230.838 314.021 230.792 315.72C230.767 316.624 230.552 317.498 230.562 318.38C230.569 319.206 230.142 319.243 229.574 319.175C227.175 318.714 224.749 318.402 222.311 318.241C221.819 318.243 221.835 317.917 221.856 317.599C221.959 315.99 222.043 314.38 222.191 312.776C222.356 309.173 222.738 305.584 223.337 302.027C223.971 299.113 224.094 296.112 225.031 293.239C225.455 291.862 225.715 290.441 225.806 289.003C225.814 288.898 225.759 288.765 225.805 288.688C226.6 287.355 225.558 286.996 224.691 286.476C223.32 285.653 221.768 285.253 220.353 284.543C219.099 283.913 219.038 283.678 219.895 282.606C220.696 281.604 221.054 280.349 221.773 279.316C224.17 275.869 226.246 272.224 228.393 268.627C229.945 266.026 231.262 263.271 230.39 260.052C230.202 259.36 230.566 258.695 230.547 257.985C230.48 255.181 230.467 252.377 230.508 249.573C230.526 248.077 230.693 246.561 230.627 245.087C230.515 242.594 230.521 240.104 230.476 237.612C230.557 236.414 230.539 235.211 230.422 234.016C230.328 232.732 230.335 231.443 230.444 230.161C230.395 228.79 230.565 227.403 230.425 226.058C230.247 224.344 230.54 222.64 230.316 220.941C230.28 220.669 230.192 220.304 230.542 220.231C230.95 220.147 230.928 220.589 230.97 220.819C231.259 222.389 231.515 223.962 231.688 225.551C231.895 227.456 232.212 229.347 232.468 231.246C232.891 234.401 233.378 237.545 234.033 240.661C234.051 240.746 234.139 240.815 234.257 240.978C234.856 239.974 235.305 238.887 235.59 237.753C237.352 232.589 238.619 227.269 239.375 221.865C239.486 220.922 239.685 219.99 239.815 219.049C239.866 218.669 239.993 218.475 240.413 218.502C240.87 218.532 240.887 218.792 240.865 219.15C240.7 221.437 240.349 223.706 239.816 225.936C238.735 230.661 237.972 235.473 236.176 240.012C235.502 241.714 234.764 243.391 234.038 245.072C233.646 245.94 233.07 246.712 232.351 247.336C232.19 247.436 232.057 247.576 231.964 247.742C231.872 247.907 231.823 248.094 231.822 248.284C231.821 248.474 231.868 248.66 231.959 248.827C232.05 248.994 232.181 249.135 232.341 249.237C233.123 249.831 232.946 250.404 232.533 251.089C231.437 252.909 231.417 252.938 232.718 254.563C233.066 255.055 233.265 255.638 233.291 256.24C233.317 256.842 233.169 257.439 232.865 257.96C232.19 259.725 231.699 261.554 231.399 263.42C230.825 266.198 229.201 268.49 227.921 270.937C225.811 274.971 223.341 278.794 220.873 282.614C220.528 283.148 220.835 283.286 221.213 283.45C223.69 284.526 225.89 286.16 228.49 286.999C236.298 289.519 243.524 293.455 251.171 296.371C252.58 296.801 253.898 297.485 255.061 298.39C255.832 299.106 256.8 299.574 257.84 299.734C257.963 299.749 258.081 299.789 258.188 299.852C258.295 299.915 258.387 299.999 258.46 300.099C258.806 300.516 259.243 300.787 259.725 300.394C259.981 300.226 260.165 299.968 260.241 299.671C260.317 299.375 260.279 299.06 260.135 298.79C259.754 298.035 259.415 297.252 258.967 296.539C257.212 293.743 255.385 290.994 253.431 288.331C252.64 287.264 251.882 286.174 251.158 285.061C250.814 284.526 250.589 284.481 250.002 284.806C248.544 285.47 247.01 285.953 245.434 286.244C245.759 285.571 246.331 285.049 247.031 284.787C247.653 284.457 248.298 284.173 248.961 283.937C250.478 283.333 250.497 283.242 249.538 281.921C249.498 281.837 249.441 281.762 249.37 281.702C249.299 281.641 249.216 281.597 249.126 281.572C249.037 281.547 248.942 281.541 248.85 281.556C248.758 281.57 248.671 281.604 248.593 281.656C247.262 282.188 245.893 282.63 244.532 283.083C244.176 283.177 243.814 283.246 243.448 283.29C243.335 282.835 243.608 282.784 243.821 282.68C245.148 282.026 246.459 281.336 247.807 280.73C248.441 280.446 248.644 280.11 248.224 279.549C247.868 279.074 247.876 278.049 246.768 278.632C245.765 279.132 244.735 279.577 243.683 279.965C243.437 280.062 243.079 280.489 242.878 280.06C242.717 279.716 243.189 279.58 243.449 279.426C244.388 278.871 245.311 278.284 246.283 277.796C246.81 277.531 247.035 277.312 246.759 276.71C245.879 274.674 245.424 272.481 245.422 270.263C245.389 269.168 245.608 268.08 246.063 267.083C246.816 265.338 247.654 263.63 248.458 261.907C248.518 261.779 248.65 261.651 248.642 261.531C248.528 259.937 249.566 260.159 250.566 260.278C250.953 260.32 251.343 260.328 251.732 260.3C252.626 260.244 253.19 259.857 253.159 258.857C253.124 257.726 253.146 256.592 253.099 255.462C253.057 255.254 253.084 255.038 253.175 254.846C253.266 254.655 253.417 254.498 253.605 254.399C254.966 253.711 255.445 252.403 255.863 251.089C257.056 247.345 258.309 243.614 259.346 239.825C260.229 236.595 261.704 233.562 262.396 230.284C263.073 227.079 264.525 224.106 265.121 220.875C265.259 220.132 266.245 220.228 266.623 220.392C267.424 220.637 268.26 220.747 269.097 220.719C273.146 221.118 277.209 221.353 281.263 221.679C284.126 221.91 287.009 221.901 289.86 222.37C291.223 222.541 292.598 222.596 293.971 222.536C294.967 222.53 295.931 222.73 296.911 222.811C299.506 223.028 302.121 223.047 304.701 223.365C306.995 223.672 309.308 223.809 311.622 223.773C313.252 223.834 314.876 224.009 316.482 224.297C317.823 224.519 319.188 224.555 320.539 224.404C321.194 224.246 321.872 224.206 322.541 224.284C323.713 224.52 323.765 223.844 323.573 223.107C323.219 221.749 323.963 220.509 323.867 219.187C323.84 218.816 324.139 218.615 324.527 218.723C325.452 218.944 326.403 219.035 327.353 218.993C327.936 218.99 328.125 219.285 328.016 219.795C327.947 220.032 327.934 220.283 327.98 220.526C328.025 220.769 328.127 220.998 328.277 221.195C328.335 221.268 328.511 221.355 328.367 221.523C327.611 222.405 327.999 223.481 328.025 224.423C328.136 228.496 328.029 232.57 328.087 236.643C328.121 239.015 328.121 241.415 328.05 243.801C327.97 246.488 327.998 249.206 328.12 251.909C328.193 253.554 328.031 255.209 328.101 256.854C328.248 260.323 328.101 263.792 328.191 267.262C328.241 269.174 328.283 271.1 328.259 273.021C328.23 275.264 328.355 277.51 328.307 279.752C328.224 283.608 328.431 287.464 328.228 291.32C328.148 292.848 328.448 294.37 328.377 295.916C328.201 299.761 328.572 303.606 328.372 307.459C328.278 309.289 328.432 311.142 328.434 312.979C328.436 315.113 328.403 317.247 328.558 319.374C328.54 320.518 328.583 321.662 328.688 322.801C328.758 323.808 328.659 324.819 328.394 325.793C328.251 326.55 328.697 327.248 328.481 327.966ZM406.173 290.96C406.162 291.281 406.046 291.59 405.842 291.839C405.638 292.087 405.357 292.261 405.044 292.334C403.349 292.637 402.168 293.939 400.604 294.474C399.266 294.931 398.117 295.774 396.808 296.33C395.456 296.882 394.156 297.554 392.924 298.338C391.291 299.41 389.372 299.971 387.704 301.021C386.874 301.543 386.529 301.296 386.498 300.337C386.395 297.153 386.419 293.957 386.143 290.789C385.95 288.579 385.791 286.369 385.628 284.157C385.605 283.846 385.655 283.459 385.244 283.383C384.904 283.32 384.799 283.685 384.626 283.889C384.173 284.421 383.996 285.119 383.436 285.614C382.085 286.805 381.004 286.646 380.414 284.929C379.999 283.724 379.01 282.821 378.799 281.531C378.729 281.292 378.572 281.089 378.359 280.96C378.106 280.797 377.909 280.433 377.554 280.539C377.15 280.659 377.299 281.07 377.24 281.361C377.005 283.277 376.621 285.172 376.092 287.029C375.692 288.106 375.324 288.249 374.442 287.523C374.026 287.192 373.709 286.754 373.525 286.256C373.481 286.118 373.389 286.001 373.265 285.925C373.142 285.849 372.996 285.82 372.853 285.843C372.711 285.856 372.576 285.915 372.47 286.01C372.364 286.106 372.292 286.234 372.265 286.374C371.835 288.071 370.472 289.176 369.567 290.57C369.208 291.121 367.919 291.116 367.345 290.693C367.123 290.529 366.905 290.273 366.6 290.439C366.304 290.602 366.364 290.945 366.367 291.211C366.39 293.132 366.426 295.052 366.475 296.973C366.546 299.713 366.549 302.458 366.744 305.188C366.713 307.091 366.861 308.993 367.185 310.868C367.226 311.024 367.213 311.336 367.155 311.354C366.234 311.647 365.627 312.538 364.613 312.662C364.308 312.735 364.018 312.859 363.755 313.028C360.831 314.526 357.945 316.093 354.958 317.476C352.873 318.434 350.85 319.52 348.9 320.728C348.136 321.204 347.28 321.271 346.544 321.726C345.709 322.24 344.821 322.666 343.956 323.13C343.922 323.14 343.888 323.148 343.853 323.153C342.935 323.485 342.422 324.397 341.192 324.48C340.41 324.532 339.392 325.4 338.48 325.892C337.06 326.658 335.518 327.214 334.163 328.071C333.788 328.341 333.35 328.51 332.891 328.563C332.432 328.615 331.967 328.549 331.541 328.371C331.261 328.267 330.96 328.135 330.928 327.848C330.663 326.654 330.565 325.429 330.637 324.208C330.743 322.882 330.768 321.551 330.711 320.222C330.788 317.907 330.714 315.572 330.603 313.269C330.49 310.926 330.532 308.583 330.578 306.259C330.625 303.97 330.335 301.694 330.493 299.409C330.619 298.832 330.541 298.229 330.273 297.703C330.183 297.562 330.614 296.878 330.581 296.39C330.412 294.956 330.422 293.507 330.613 292.076C330.647 291.975 330.652 291.867 330.627 291.763C329.983 290.461 330.663 289.12 330.507 287.789C330.383 286.43 330.38 285.063 330.499 283.704C330.658 280.696 330.653 277.682 330.486 274.674C330.266 269.726 330.649 264.786 330.463 259.85C330.263 254.534 330.517 249.218 330.267 243.902C330.137 241.114 330.452 238.302 330.279 235.52C330.166 233.691 330.465 231.897 330.346 230.08C330.222 228.186 330.24 226.283 330.222 224.384C330.187 220.689 330.309 216.995 330.219 213.299C330.133 209.789 330.323 206.269 330.152 202.767C329.995 199.57 330.011 196.372 330.076 193.188C330.151 189.474 329.997 185.763 330.078 182.048C330.166 179.42 330.106 176.79 329.899 174.169C329.835 173.469 330.07 172.788 329.963 172.084C330.733 172.74 330.577 173.654 330.841 174.428C331.469 176.272 331.928 178.172 332.501 180.036C333.15 182.151 333.838 184.25 334.394 186.398C334.966 188.376 335.667 190.315 336.494 192.201C336.604 192.447 336.764 192.667 336.963 192.849C337.161 193.031 337.395 193.17 337.65 193.258C337.904 193.346 338.174 193.381 338.443 193.361C338.712 193.342 338.973 193.267 339.212 193.142C340.222 192.645 341.202 192.088 342.192 191.554C342.377 191.455 342.546 191.327 342.735 191.237C344.221 190.527 344.567 190.683 345.003 192.242C345.183 192.885 345.361 193.528 345.553 194.168C345.745 194.696 346.042 195.18 346.427 195.59C346.811 195.999 347.276 196.326 347.791 196.55C348.771 197.068 349.541 196.154 350.239 195.678C352.185 194.351 354.302 193.323 356.265 192.035C358.019 190.883 359.911 189.967 361.665 188.807C363.263 187.751 365.039 186.917 366.592 185.841C368.047 184.833 369.649 184.147 371.096 183.177C373.161 181.792 375.393 180.688 377.485 179.359C380.432 177.487 383.437 175.718 386.439 173.939C388.013 173.007 389.54 172.004 391.151 171.123C392.212 170.543 393.519 170.133 394.136 168.895C396.097 168.832 397.115 167.02 398.783 166.388C400.329 165.631 401.827 164.782 403.271 163.845C404.381 163.265 404.307 163.399 404.501 164.588C404.811 166.483 404.023 168.371 404.6 170.218C405.05 171.661 404.489 173.063 404.554 174.498C404.648 176.545 404.577 178.619 404.654 180.664C404.77 183.67 404.624 186.669 404.714 189.67C404.8 192.51 404.866 195.35 404.954 198.19C405.079 202.23 404.894 206.27 405.06 210.31C405.153 212.557 404.934 214.82 405.107 217.057C405.244 218.447 405.289 219.844 405.24 221.24C405.111 223.48 405.583 225.703 405.269 227.946C405.186 228.961 405.207 229.982 405.333 230.992C405.554 234.214 405.275 237.438 405.463 240.671C405.6 243.038 405.553 245.446 405.579 247.831C405.596 249.461 405.633 251.122 405.705 252.758C405.863 254.707 405.854 256.665 405.677 258.612C405.502 259.962 405.96 261.259 405.813 262.589C405.592 264.592 406.013 266.594 405.802 268.605C405.765 269.626 405.79 270.648 405.878 271.665C405.932 274.402 406 277.14 406.015 279.878C406.031 282.733 406.371 285.583 406.105 288.445C406.029 289.273 406.303 290.101 406.173 290.96ZM406.46 159.285C406.358 159.448 406.213 159.58 406.041 159.667C405.869 159.753 405.677 159.792 405.485 159.777C404.716 159.3 404.437 159.909 404.014 160.488C403.458 161.25 403.072 161.098 402.691 160.245C401.296 157.118 400.271 153.81 398 151.113C397.513 150.323 397.131 149.473 396.864 148.584C396.393 147.539 396.014 147.457 395.304 148.344C394.75 149.04 394.333 149.844 393.516 148.612C393.324 148.322 393.012 148.41 392.774 148.619C392.512 148.849 392.58 149.101 392.739 149.374C393.247 150.245 394.249 150.164 395.012 150.532C395.268 150.655 395.37 150.167 395.512 149.938C395.62 149.764 395.654 149.483 395.917 149.521C396.135 149.551 396.231 149.781 396.306 149.985C397.153 152.31 398.576 154.342 399.626 156.557C400.09 157.533 400.349 158.627 400.867 159.604C400.993 159.854 401.138 160.094 401.3 160.322C401.97 161.227 401.904 161.712 400.977 162.289C397.173 164.655 393.395 167.067 389.537 169.344C388.307 170.071 387.106 170.854 385.85 171.544C385.168 171.92 384.975 171.684 384.678 171.031C384.2 169.614 383.648 168.223 383.024 166.864C382.707 166.104 382.455 165.317 382.272 164.514C381.614 162.629 381.019 160.724 380.387 158.83C380.254 158.354 379.996 157.922 379.639 157.58C379.392 157.36 379.363 157.064 379.73 156.911C379.955 156.817 380.25 156.566 380.398 157.043C380.573 157.615 381.18 157.709 381.57 158.043C381.645 158.131 381.74 158.2 381.846 158.244C381.953 158.288 382.068 158.307 382.183 158.298C382.298 158.289 382.41 158.254 382.509 158.194C382.607 158.134 382.69 158.051 382.751 157.953C383.009 157.57 383.036 157.196 382.395 157.061C382.177 157.015 381.954 156.531 382.27 156.421C383.124 156.13 383.002 155.396 383.107 154.799C383.355 153.383 383.56 151.958 383.711 150.529C383.784 149.832 384.038 149.778 384.599 150.034C385.225 150.424 385.823 150.857 386.389 151.33C386.803 151.59 387.084 152.194 387.745 151.761C387.972 151.613 388.025 151.897 388.013 152.05C387.905 153.376 389.089 153.094 389.735 153.32C390.388 153.549 390.761 152.898 390.849 152.325C391.011 151.259 391.912 150.275 391.185 149.088C391.02 148.818 391.428 148.871 391.606 148.838C391.678 148.836 391.749 148.816 391.812 148.779C391.874 148.742 391.926 148.69 391.962 148.627C391.999 148.564 392.019 148.493 392.02 148.421C392.021 148.349 392.004 148.277 391.97 148.213C391.789 147.785 391.516 148.073 391.286 148.203C391.106 148.316 390.953 148.467 390.837 148.644C390.72 148.822 390.644 149.023 390.612 149.233C390.467 149.85 390.263 150.452 390.004 151.031C389.468 152.332 389.507 152.287 388.37 151.426C387.08 150.448 386.025 149.132 384.372 148.655C383.51 148.406 383.042 148.603 383.192 149.46C383.33 150.244 382.637 150.526 382.514 151.152C382.195 152.766 382.061 154.4 381.832 156.022C381.736 156.703 381.483 156.682 381.012 156.465C380.855 156.386 380.693 156.318 380.526 156.262C379.361 155.921 379.113 156.17 379.317 157.328C379.423 157.928 379.739 158.53 379.449 159.171C379.395 159.29 379.366 159.528 379.427 159.574C380.745 160.553 379.797 162.114 380.423 163.347C381.055 164.589 381.093 166.122 381.499 167.497C381.942 169.006 382.46 170.493 383.051 171.95C383.325 172.622 383.341 173.06 382.696 173.45C381.826 173.975 380.971 174.529 380.1 175.056C377.605 176.565 375.172 178.182 372.686 179.69C369.303 181.741 365.951 183.86 362.497 185.787C359.777 187.307 357.215 189.077 354.492 190.574C352.552 191.64 350.7 192.844 348.803 193.976C348.198 194.337 347.938 194.151 347.776 193.56C347.221 191.528 346.646 189.49 345.957 187.512C345.253 185.486 344.807 183.39 344.075 181.369C343.578 179.98 343.165 178.563 342.839 177.124C342.464 175.491 341.762 173.936 341.299 172.335C340.861 170.82 340.391 169.308 339.959 167.788C339.203 165.128 338.423 162.475 337.651 159.819C337.174 158.175 336.645 156.543 336.231 154.882C336.018 154.025 335.672 153.224 335.416 152.39C334.841 150.521 334.307 148.639 333.813 146.746C333.214 144.471 332.359 142.281 331.679 140.035C331.349 138.848 330.919 137.69 330.395 136.575C330.166 136.115 330.185 135.807 330.642 135.517C332.066 134.5 333.541 133.556 335.06 132.687C336.796 131.81 338.586 131.002 340.33 130.149C341.975 129.344 343.731 128.697 345.43 127.962C346.562 127.661 347.613 127.109 348.504 126.348C348.851 125.973 349.826 125.941 350.478 125.638C352.282 124.801 354.14 124.094 355.936 123.227C359.306 121.602 362.822 120.281 366.176 118.63C369.093 117.195 372.074 115.902 375.046 114.612C377.976 113.342 380.913 112.092 383.776 110.684C387.299 108.951 390.972 107.556 394.493 105.831C397.033 104.587 399.814 103.874 402.191 102.291C403.191 101.625 403.915 102.057 404.563 102.835C405.855 104.182 406.89 105.753 407.617 107.471C407.801 108.001 407.95 108.545 408.171 109.059C409.451 112.045 410.82 114.995 411.841 118.086C411.862 118.153 411.861 118.253 411.907 118.283C413.471 119.329 413.076 121.208 413.77 122.616C414.152 123.391 414.485 124.196 414.88 124.949C415.768 126.642 416.222 128.519 417.117 130.172C417.969 131.746 418.575 133.412 419.312 135.023C420.676 138.003 421.887 141.053 423.088 144.103C423.548 145.272 424.478 146.19 424.707 147.492C424.793 147.981 424.755 148.169 424.364 148.388C422 149.712 419.782 151.278 417.319 152.447C415.908 153.2 414.542 154.034 413.228 154.947C411.538 156.008 409.898 157.152 408.108 158.044C407.445 158.279 406.87 158.712 406.46 159.284V159.285Z" fill="#3C4048"/>
<path d="M202.118 150.13C202.08 150.351 202.099 150.577 202.175 150.788C202.251 150.999 202.381 151.186 202.551 151.331C202.44 150.754 202.418 150.164 202.484 149.581C202.231 149.593 202.101 149.859 202.118 150.129V150.13ZM273.24 176.589C272.955 176.924 272.549 177.177 272.462 177.661C272.451 177.726 272.423 177.787 272.382 177.838C273.319 177.937 273.047 177.076 273.24 176.588V176.589ZM260.145 243.734C259.872 244.38 259.633 245.043 259.415 245.71C258.632 248.1 257.146 250.162 256.247 252.488C255.978 253.438 255.374 254.259 254.547 254.799C254.293 254.923 254.092 255.133 253.978 255.392C253.865 255.651 253.847 255.941 253.928 256.212C254.119 257.183 254.189 258.173 254.136 259.161C254.137 259.624 253.974 260.071 253.677 260.426C253.379 260.78 252.966 261.017 252.51 261.096C251.815 261.186 251.116 261.24 250.415 261.256C250.042 261.316 249.838 261.362 249.655 261.776C248.855 263.577 247.954 265.333 247.129 267.123C246.716 267.776 246.423 268.498 246.266 269.254C246.083 271.794 246.562 274.338 247.656 276.638C249.775 281.048 252.289 285.257 255.166 289.214C255.391 289.531 255.443 290.033 256.015 290.137C256.135 289.075 256.323 288.054 256.348 286.999C256.305 286.051 256.423 285.103 256.695 284.194C257.295 282.515 256.692 280.639 257.258 278.869C258 276.549 257.661 274.069 258.093 271.681C258.325 270.396 258.225 269.011 258.453 267.739C258.803 265.792 258.929 263.824 259.238 261.876C259.661 259.216 259.666 256.492 260.044 253.824C260.498 250.621 260.638 247.389 261.096 244.189C261.116 243.733 261.092 243.277 261.024 242.826C260.407 242.906 260.301 243.365 260.145 243.734ZM258.446 261.687C258.055 261.596 257.949 261.208 258.009 260.811C258.045 260.573 257.849 260.251 258.225 260.117C258.771 260.282 258.588 260.818 258.777 261.149C258.861 261.298 258.681 261.741 258.446 261.687ZM280.007 116.852C280.247 116.071 280.867 115.392 280.687 114.495C280.602 114.072 280.247 113.948 279.995 114.218C279.645 114.657 279.335 115.125 279.067 115.618C279.062 115.842 279.105 116.064 279.194 116.27C279.282 116.476 279.414 116.66 279.58 116.811C279.726 116.942 279.945 117.054 280.007 116.852Z" fill="#3C4048"/>
</svg>
