<svg width="391" height="391" viewBox="0 0 391 391" fill="none" xmlns="http://www.w3.org/2000/svg">
<g clip-path="url(#clip0_263_15)">
<rect width="391" height="391" fill="#E8E8E8"/>
<path fill-rule="evenodd" clip-rule="evenodd" d="M62.5255 384.217C53.5127 394.755 54.309 397.687 59.1108 408.329C69.7218 433.02 84.9349 458.121 102.205 481.016C101.065 429.649 100.084 378.001 98.398 326.164C88.1299 346.193 77.193 364.285 62.5255 384.217ZM60.8266 1019.09C55.152 1018.54 15.2215 1020.01 25.9076 1008.37C22.6091 1001.22 31.8245 995.175 37.5034 989.729C42.8167 984.661 48.0521 979.03 53.5085 972.515C58.5894 966.475 64.3164 959.335 68.0187 951.004C68.8391 949.698 69.6708 948.784 70.4954 948.284L70.9715 947.996L71.2676 947.526C74.3933 942.54 76.9734 937.386 79.8128 932.307C72.8673 929.799 66.5579 927.28 58.6914 923.799C69.7912 858.448 86.4268 794.779 97.1824 729.237C103.73 672.202 107.244 614.63 122.226 558.459L124.141 558.606L125.21 554.925C123.637 554.886 120.449 554.779 118.871 554.717L119.24 556.6C112.098 555.774 105.1 553.739 98.1572 552.014C94.6136 551.529 91.0614 548.996 92.3366 544.773C92.7461 538.647 94.0142 532.672 94.6107 526.547C92.2693 524.936 89.993 523.232 87.787 521.44C81.8829 524.223 74.7475 533.212 68.2908 530.925C53.2038 510.677 40.5426 486.34 29.0843 466.896C1.4098 421.93 -7.37486 393.822 21.1682 346.936C45.846 307.658 72.4649 245.229 121.935 235.371C127.489 234.335 133.31 234.291 138.647 231.76C138.922 228.133 140.734 226.049 142.062 226.019C145.285 225.312 148.825 224.173 151.973 224.145C153.083 223.681 154.437 224.063 155.504 224.271C158.676 217.905 158.393 209.776 161.869 203.808C161.995 199.286 163.373 194.29 177.314 193.38C186.803 192.589 200.242 191.826 207.827 195.971C213.134 200.243 213.188 209.813 212.523 216.556C211.792 221.508 212.118 227.268 215.998 233.084C227.054 229.672 234.763 236.885 241.683 250.34C270.655 254.285 276.902 256.523 288.142 285.215C293.502 297.657 299.085 310.95 303.263 324.572C308.859 341.223 309.35 358.653 314.791 375.422C329.568 412.381 344.594 436.232 349.326 479.26C351.636 498.257 350.308 507.677 348.113 510.53C341.868 508.725 333.813 507.344 327.254 506.574L334.272 511.91C328.325 538.868 345.452 615.746 299.014 609.841C298.602 608.836 299.36 603.317 299.558 601.028C298.289 601.117 295.941 601.201 294.691 601.043C292.477 607.432 289.151 613.172 287.053 619.671C286.016 623.631 284.704 627.617 283.421 631.468C254.177 729.941 248.385 824.74 261.436 923.6L260.846 923.814L260.607 924.239L260.248 924.374C259.327 925.604 258.022 925.656 255.939 925.66C243.148 926.11 231.908 926.686 221.485 926.977C222.592 932.511 221.883 938.336 221.396 943.965C227.462 943.539 233.027 946 238.571 948.957C249.167 954.157 259.718 959.619 269.978 965.589C280.162 972.106 296.632 977.678 288.455 989.39L290.82 990.318C290.876 990.339 290.929 990.365 290.98 990.395C291.259 991.391 288.056 995.508 287.108 995.463C264.71 996.509 245.609 991.279 216.96 985.801C210.401 983.422 177.365 979.376 177.226 973.13C177.331 971.183 179.343 971.316 180.747 971.073C176.539 949.822 190.766 948.107 192.803 928.824C189.987 929.361 186.94 929.82 184.056 929.03C181.524 887.881 185.591 845.758 181.093 804.207L176.521 803.701C161.15 848.915 145.213 895.176 132.973 942.14C132.74 943.162 131.596 942.463 131.073 942.091C123.073 941.901 115.07 941.046 107.227 939.7C107.038 944.319 106.84 949.023 106.644 953.638L107.854 954.287C108.634 955.372 108.305 960.452 108.165 962.638C108.021 964.874 107.904 966.492 108.102 968.008C110.624 972.981 101.998 983.758 97.4346 989.752C87.4937 1002.62 79.2603 1021.67 60.8266 1019.09Z" fill="#E8E8E8"/>
<path fill-rule="evenodd" clip-rule="evenodd" d="M159.521 203.95C162.228 202.118 158.373 218.022 158.366 219.553L158.298 219.886C157.622 223.126 156.435 226.895 153.699 228.972C154.951 239.285 156.54 249.555 158.464 259.764L159.6 259.912C176.465 262.144 193.442 265.213 210.589 263.615C219.829 263.687 225.944 257.375 229.669 249.544C229.418 248.621 229.163 247.699 228.905 246.778C217.172 239.601 208.288 225.04 213.575 211.295C213.8 210.707 214.5 210.667 214.86 210.973C214.918 210.978 214.972 211.026 214.968 211.09L214.781 213.997C214.422 219.779 214.302 225.756 217.434 230.957C230.2 228.05 238.138 238.679 243.475 248.739L247.311 249.306C261.98 251.481 276.127 254.058 283.37 269.065L284.363 271.172C294.484 292.739 303.916 314.914 309.438 338.136C312.218 350.491 313.224 363.221 317.302 375.271C325.768 397.644 337.699 418.671 344.167 441.836C348.181 450.194 359.478 513.107 348.334 513.585C344.326 512.378 340.247 511.424 336.119 510.727C336.755 511.212 336.986 512.033 336.866 512.874C335.426 522.958 335.317 533.173 335.324 543.342C336.085 567.97 335.404 620.953 298.263 612.449C295.551 611.453 297.312 607.11 297.203 604.078C296.989 604.087 296.775 604.085 296.561 604.071C294.429 609.817 291.439 615.118 289.565 620.959C287.977 625.976 286.867 631.373 284.653 636.178C261.203 719.458 251.523 807.05 260.69 893.248C261.205 898.408 261.784 903.564 262.43 908.709C262.34 912.004 266.185 925.269 262.741 926.298C262.606 926.559 262.144 926.858 261.868 926.95C259.788 929.193 256.328 928.361 253.58 928.658C243.873 929.091 234.166 929.489 224.454 929.81C225.035 933.926 224.566 938.103 224.221 942.212C231.304 942.27 237.813 946.576 244.077 949.499C253.383 954.085 262.534 958.981 271.512 964.178C279.803 969.972 298.323 975.566 291.951 988.703C296.702 990.628 290.099 998.681 286.489 998.771C262.991 998.654 239.641 993.329 216.676 988.656C203.63 985.213 189.391 983.905 177.321 977.966C173.894 976.419 174.612 970.25 178.381 969.676C175.583 949.107 186.939 949.389 190.138 932.253C188.279 932.556 186.225 932.385 184.36 932.007C180.043 935.995 181.628 904.607 181.042 901.542C180.926 869.356 182.453 837.104 179.02 805.029L173.185 822.186C159.583 862.225 146.185 902.37 135.522 943.305C134.883 945.776 132.284 946.072 130.626 944.994C123.628 944.79 116.651 944.129 109.739 943.016C109.606 946.289 109.467 949.563 109.329 952.837C112.309 954.44 110.291 964.545 110.671 967.963C113.916 975.347 100.781 989.727 96.5249 995.789C88.8624 1006.48 81.2495 1021.44 66.4304 1021.94L65.9784 1021.95C54.8826 1022.23 43.7835 1021.57 32.7965 1020L31.4632 1019.78C28.339 1019.26 24.8804 1018.5 23.0824 1015.72C21.5408 1013.34 21.7293 1010.27 23.5995 1008.46C21.1299 999.501 30.7463 994.079 36.1177 988.625C46.152 978.956 55.2725 968.323 63.1588 956.837L63.6122 955.765C65.073 952.32 66.82 948.496 69.5419 946.847C72.1362 942.731 74.3564 938.398 76.6985 934.143C70.2985 931.795 63.9962 929.173 57.7648 926.413C56.5236 925.86 56.1297 924.251 56.3465 923.052L56.362 922.971C68.5288 859.858 83.1156 797.195 94.4605 733.938C101.706 675.639 104.678 616.599 119.912 559.582C112.521 558.815 105.165 556.693 97.912 554.88C92.0972 553.644 89.1571 550.693 90.3034 544.541C90.6973 539.073 91.794 533.693 92.3862 528.247C90.8419 527.164 89.3312 526.035 87.8564 524.859C85.1313 526.891 82.319 528.803 79.4274 530.59C72.5074 535.569 67.1643 536.346 62.8896 528.183C50.5061 508.641 38.5646 488.814 27.2948 468.61C16.841 449.227 3.88506 429.887 1.23125 407.571C-2.62266 367.411 44.5453 303.143 68.176 270.505C81.2056 254.785 97.0761 238.604 117.714 234.033C124.063 233.094 130.755 232.965 136.807 230.665C137.298 227.727 138.68 225.02 141.801 224.301C145.083 223.575 148.602 222.454 151.909 222.374C152.656 222.162 153.539 222.029 154.328 222.175C156.591 216.304 156.924 209.688 159.521 203.95ZM33.0898 1013.1C33.6565 1013.38 34.2403 1013.62 34.8396 1013.83C35.5764 1013.93 36.3104 1014.03 37.0429 1014.11C35.7152 1013.81 34.3969 1013.48 33.0898 1013.1ZM106.525 956.021C95.6847 959.953 92.7064 941.497 71.3852 948.965C63.054 964.42 52.2658 978.459 39.9362 990.939C35.5537 996.381 22.5822 1002.56 29.5717 1010.54L30.6428 1010.74C42.7827 1012.95 55.1039 1014.7 67.4746 1013.7C76.8232 1011.13 83.8325 1003.64 89.4986 996.091C93.5976 988.832 98.3924 982 103.288 975.264C105.978 971.914 106.252 967.651 106.239 963.529C106.33 961.024 106.425 958.523 106.525 956.021ZM228.3 946.962C223.698 945.276 218.977 946.861 214.79 948.93C207.638 952.128 192.149 955.957 185.532 950.861C182.287 956.222 181.2 962.182 182.09 968.366L182.097 968.654C182.167 971.195 182.487 973.255 185.562 973.433L194.186 975.601C223.28 982.898 252.659 989.954 282.608 991.984C290.601 986.997 290.824 980.442 282.329 975.877L280.155 974.547C263.474 964.351 246.405 954.331 228.3 946.962ZM291.594 989.367C291.513 989.505 291.435 989.644 291.356 989.777C291.481 989.838 291.594 989.926 291.702 990.019C291.702 989.794 291.669 989.573 291.594 989.367ZM78.3138 934.728C78.4257 936.994 77.3106 939.553 76.5271 941.587C76.0666 942.79 75.5919 944.506 74.858 945.883C93.0847 940.511 98.6332 956.254 105.205 952.981L105.405 952.876V952.871C104.063 949.81 105.526 945.498 106.427 942.445C96.8565 940.715 87.4583 938.024 78.3138 934.728ZM222.351 929.881L217.096 930.044C208.922 930.291 200.746 930.507 192.565 930.496C193.421 936.37 191.746 946.06 187.942 950.624C187.935 950.629 187.928 950.629 187.925 950.631C198.693 952.261 208.891 947.331 218.481 943.186C218.885 938.684 220.655 934.091 222.351 929.881ZM187.187 947.776C186.861 948.388 186.531 948.999 186.201 949.611C186.345 949.769 186.507 949.913 186.68 950.038C186.579 949.274 186.851 948.52 187.187 947.776ZM202.323 448.169C208.327 478.477 213.065 509.163 214.71 540.068L214.724 540.374C214.884 543.501 215.352 546.988 213.259 549.598C211.09 552.308 207.707 552.651 204.501 553.144C177.604 557.233 150.33 558.615 123.14 557.792C113.102 607.439 106.964 657.703 103.22 708.186C95.0854 780.321 76.6192 850.835 62.789 922.003C84.2377 931.379 106.483 938.033 129.99 938.955C163.264 816.072 225.557 686.385 228.876 563.458C229.054 563.259 229.482 563.306 229.529 563.605C230.626 570.331 230.158 577.35 229.916 584.13C228.996 604.993 226.672 625.847 223.246 646.437C214.55 697.572 198.485 747.047 182.028 796.126C181.477 798.33 182.311 800.781 182.338 803.031C185.776 840.565 186.128 878.291 187.235 915.942C187.001 920.105 188.312 924.817 186.868 928.726C199.297 927.062 211.788 926.163 224.279 925.123L224.373 925.062C224.89 924.734 225.715 924.388 226.191 924.972C236.744 924.143 247.308 923.383 257.868 922.675C242.893 815.529 253.243 703.838 293.759 603.181C291.193 600.832 292.311 595.598 291.723 592.327C291.182 578.978 291.211 565.324 293.837 552.181L293.168 552.22C285.102 552.681 249.609 554.103 248.635 548.083C247.285 537.884 250.547 527.774 251.213 517.649C252.409 494.772 252.12 471.804 251.962 448.897C244.939 449.837 238.203 448.547 231.257 448.282C221.603 448.199 211.967 448.445 202.323 448.169ZM77.1392 934.307C76.9534 935.102 76.7469 935.891 76.52 936.675C76.8317 935.97 77.1831 935.292 77.6011 934.696L77.7272 934.52L77.1392 934.307ZM191.999 930.5L191.423 930.506L191.42 930.836C191.555 931.06 191.578 931.336 191.411 931.557C191.392 932.575 191.345 933.592 191.269 934.606C191.491 933.236 191.714 931.866 191.999 930.5ZM184.687 930.165L184.717 930.675C185.454 930.648 186.198 930.677 186.932 930.641C187.317 930.621 187.715 930.553 188.115 930.482C186.966 930.454 185.821 930.348 184.687 930.165ZM315.647 509.283C315.284 509.71 314.887 509.969 314.482 510.099C314.486 519.795 312.528 529.329 307.161 537.724C304.928 540.683 303.667 544.051 302.589 547.56C296.913 563.623 295.859 580.88 297.927 597.701C303.504 589.525 305.72 579.77 307.279 570.15C307.362 569.666 308.164 569.674 308.251 570.15C310.135 580.446 306.896 590.558 303.022 600.075C300.602 601.803 301.179 606.331 300.889 608.993C342.005 614.981 327.707 536.098 332.974 511.802C333.072 511.134 333.64 510.648 334.286 510.442C328.118 509.501 321.87 509.433 315.647 509.283ZM122.02 557.745C122.071 558.004 122.115 558.262 122.149 558.521L122.37 557.759C122.257 557.755 122.139 557.752 122.02 557.745ZM149.808 224.075L149.088 224.264C141.491 226.223 139.033 225.954 138.602 235.121C136.735 247.561 129.841 258.413 126.743 270.443C125.502 274.69 126.814 282.52 132.691 281.37C134.595 280.786 136.08 283.35 134.639 284.711C130.383 288.733 126.251 292.88 122.094 297.002C138.782 353.285 160.46 408.105 186.867 460.554C187.914 462.635 184.774 464.466 183.734 462.383C157.482 409.767 135.649 354.965 118.703 298.667L118.19 296.961C117.442 294.89 127.012 287.461 128.753 285.037C111.28 276.623 135.675 247.16 136.338 232.972C131.338 235.169 125.669 234.38 120.385 235.266C110.25 237.041 101.355 242.891 93.4475 249.208C61.3296 277.547 40.8047 316.783 20.2741 353.765C6.29093 377.893 -0.449167 407.391 13.5822 433.058C29.8621 465.966 48.7492 497.686 68.7172 528.479C70.9092 531.329 74.2842 528.053 76.5937 526.857C89.8741 518.883 101.39 508.032 110.246 495.347C88.776 469.021 70.0732 440.251 56.8466 408.904L56.6624 408.542C53.6955 402.581 51.3491 395.37 56.2997 389.757C73.8789 367.257 89.5142 343.371 104.227 318.927C104.379 318.682 104.717 318.897 104.607 319.152C103.092 322.576 101.505 325.968 99.8461 329.324C103.197 379.024 102.63 429.696 104.078 479.712C107.988 484.877 112.003 489.961 116.122 494.961C129.472 485.769 145.175 479.772 161.303 477.915L162.346 477.81C169.197 477.106 180.51 475.778 181.409 484.666C180.298 495.599 157.687 489.453 150.457 495.653C162.309 500.425 175.889 501.77 186.769 508.964C190.259 510.999 197.101 517.481 190.416 519.962C187.5 520.212 184.488 519.08 181.573 518.832C184.853 519.935 187.87 521.806 189.791 524.739C191.174 526.749 192.183 530.923 188.879 531.783C181.345 531.996 173.844 529.542 166.424 528.32L167.083 528.588C172.492 530.801 180.9 534.776 173.615 540.636C166.322 544.408 157.493 537.991 150.229 536.279C130.663 531.729 116.188 544.197 96.131 530.698C95.5614 535.209 94.7071 539.69 94.3642 544.225L94.3203 544.481C93.626 548.622 94.2211 550.116 98.6885 550.908C104.075 552.534 109.717 553.044 115.314 553.345C142.287 554.771 169.333 553.756 196.123 550.31C199.973 549.279 209.017 550.252 210.626 546.019C207.61 437.058 162.175 334.53 149.664 226.984C149.458 225.95 149.445 224.896 149.808 224.075ZM225.753 233.388C223.603 233.476 221.603 233.942 219.466 234.158C220.649 236.673 226.896 240.232 226.328 241.482C226.779 241.83 227.236 242.166 227.701 242.492C227.055 240.222 226.402 237.955 225.747 235.685C249.484 293.488 252.744 361.877 255.898 424.934C256.938 456.728 257.504 488.621 255.966 520.396C255.111 528.835 252.849 537.364 253.466 545.887C267.396 547.892 281.53 548.063 295.517 546.58C295.931 545.494 296.398 544.426 296.928 543.379C317.868 517.857 306.764 485.872 296.682 458.226C290.585 458.484 284.451 458.097 278.349 458.172C280.235 464.007 280.721 470.18 281.724 476.213C282.417 480.509 283.27 484.778 284.281 489.011L284.551 490.14C284.929 491.7 285.429 493.386 284.881 494.935C284.342 496.462 282.485 497.08 281.253 495.891C279.033 493.36 279.271 489.59 278.554 486.452L278.423 485.464C277.2 476.454 275.59 467.108 277.825 458.169C275.633 457.699 269.638 459.426 269.323 456.48C269.417 451.613 265.885 441.069 269.816 437.863C272.154 436.08 276.175 436.644 278.918 436.534C282.088 436.405 285.255 436.287 288.42 436.308C262.974 374.826 270.05 355.9 272.633 294.712L272.71 292.845C272.703 292.441 273.353 292.341 273.424 292.747C277.313 317.81 272.127 343.187 274.584 368.329C278.948 416.099 309.225 457.115 314.287 504.656C325.204 503.39 336.248 504.943 346.83 507.682C347.051 505.751 347.223 503.815 347.344 501.876C349.353 466.39 336.899 431.926 322.367 400.1C313.659 383.206 308.276 365.175 306.023 346.324C301.648 321.768 291.832 298.637 282.047 275.827C275.861 258.77 262.49 254.749 245.908 252.769C251.497 262.039 257.064 271.323 262.609 280.62C263.846 283.431 260.051 285.439 258.395 287.169C278.765 298.276 266.871 332.571 267.293 351.79C265.78 369.449 265.21 387.208 262.545 404.744C262.349 405.96 260.485 405.605 260.468 404.465C260.713 378.191 263.847 352.021 265.223 325.787L265.39 323.875C266.461 311.454 267.511 293.536 252.574 290.127C250.558 289.799 250.404 286.803 252.022 285.904C254.139 284.726 256.071 283.241 257.753 281.497C252.038 271.926 246.354 262.336 240.702 252.727L240.437 252.281C236.428 245.477 232.701 237.561 225.753 233.388ZM177.28 483.999C175.632 479.148 159.64 482.307 155.371 482.834C139.629 485.807 123.787 492.771 111.797 503.498C111.058 504.16 110.184 504.148 109.494 503.79C104.124 510.649 97.922 516.865 91.1209 522.327C92.3709 523.313 93.651 524.261 94.9593 525.168C95.5898 525.234 96.1579 525.56 96.4144 526.144C115.127 539.701 128.892 529.127 148.332 531.569C155.589 533.032 162.272 537.648 169.752 537.842C175.241 536.594 170.408 534.3 167.845 533.411C162.04 530.641 156.122 528.116 150.192 525.626L145.447 523.636C143.116 522.659 143.917 519.136 146.521 519.751C151.08 520.825 155.654 521.847 160.229 522.851C169.031 524.645 178.041 526.948 186.935 527.82C184.957 522.327 163.983 516.395 157.884 514.21C155.58 513.123 149.012 513.33 149.761 509.761C150.368 506.438 157.357 510.243 159.688 510.513C169.201 512.926 178.912 514.388 188.607 515.859C178.194 505.414 162.053 504.513 148.755 499.622L148.465 499.556C146.093 499.009 142.765 497.979 144.707 495.263C151.541 485.192 178.423 490.29 177.28 483.999ZM157.605 427.923C162.455 423.943 165.054 432.116 164.746 435.914C164.974 439.068 165.221 442.221 165.426 445.375C165.126 447.84 167.753 456.828 164.238 456.91C148.872 456.13 133.532 456.327 118.162 455.402C118.142 458.502 117.991 461.598 118.149 464.701C118.064 468.581 119.413 472.457 118.627 476.293C118.145 478.057 115.746 478.295 114.81 476.79C112.001 470.186 113.933 461.668 115.921 454.99C108.394 453.598 107.356 446.525 109.339 440.213L109.318 439.872C109.207 437.925 109.216 435.836 110.086 434.262C112.411 431.526 117.231 433.305 120.433 433.098C130.248 432.086 140.244 431.807 149.944 430.005C152.455 429.354 155.015 428.045 157.605 427.923ZM96.5929 335.718C88.9517 350.301 80.16 364.176 70.8 377.688C68.7904 380.571 66.7381 383.425 64.6437 386.247L64.2555 386.743C60.0757 392.052 55.7315 396.456 59.6832 403.502C70.0349 428.639 83.8949 452.245 99.9538 474.155C98.9364 428.007 98.0396 381.849 96.5929 335.718ZM288.703 437.046C269.505 441.069 269.145 433.537 272.35 454.855C280.049 454.908 287.744 454.733 295.446 454.858C293.246 448.904 290.965 442.978 288.703 437.046ZM159.833 431.025C149.805 434.509 139.159 434.012 128.687 434.441C128.708 436.691 117.993 434.602 115.938 434.911L115.147 434.843C113.445 434.706 111.309 434.685 111.29 436.767C111.836 440.414 109.783 444.407 111.055 447.99C112.771 452.816 120.113 452.319 124.164 452.414C130.843 452.564 137.524 452.726 144.203 452.9C150.202 453.059 156.222 453.358 162.228 453.4C161.687 449.13 161.538 444.75 161.213 440.482C160.802 437.413 161.394 433.775 159.833 431.025ZM201.995 446.544L202.029 446.708C202.146 446.674 202.278 446.656 202.393 446.625C202.26 446.6 202.127 446.573 201.995 446.544Z" fill="#3C4048"/>
<path fill-rule="evenodd" clip-rule="evenodd" d="M255.366 151.134C254.089 130.247 247.298 106.564 227.309 96.3081C183.242 78.6581 125.303 123.106 122.236 168.512C121.166 184.054 129.813 201.038 145.616 205.36C149.129 210.006 154.441 212.842 159.687 215.305C222.148 247.645 262.497 221.356 255.366 151.134Z" fill="#E8E8E8"/>
<path fill-rule="evenodd" clip-rule="evenodd" d="M269.595 138.14C267.387 132.022 265.056 125.95 262.603 119.926C260.214 114.063 258.055 108.072 255.089 102.487C237.368 69.1281 205.146 69.1281 188.49 73.4864C179.852 69.7728 163.674 70.8198 154.679 74.1708C140.118 79.5974 122.369 100.941 116.3 110.531C102.901 131.703 94.5385 159.883 103.439 184.35C104.603 187.548 106.086 190.509 107.757 193.363C106.704 194.787 105.494 196.134 104.152 197.459C100.165 201.395 96.1778 205.202 92.7334 209.641C89.3116 214.054 86.4736 218.746 84.3624 223.919C80.3796 233.676 80.1869 244.722 85.4534 254.031C90.0342 262.131 98.1487 268.163 107.292 268.738C107.762 268.803 108.231 268.863 108.704 268.911C109.916 270.904 111.387 272.728 113.078 274.333C118.243 279.237 130.556 281.752 137.578 281.914C137.939 282.201 138.302 282.49 138.666 282.777C142.962 286.152 147.472 289.556 152.404 291.958C155.746 293.586 160.127 294.946 163.613 293.77C165.194 294.826 167.788 294.603 169.357 293.74C171.934 292.323 174.031 289.772 175.306 287.159C178.398 280.816 177.654 273.874 176.861 267.097C175.986 259.612 175.145 252.122 174.29 244.638C173.62 238.784 172.92 232.834 171.136 227.195C170.215 224.274 169.007 221.467 167.445 218.827C167.488 218.611 167.478 218.387 167.416 218.175C166.904 216.516 165.847 215.646 164.596 214.518C164.433 214.373 164.273 214.225 164.114 214.075C163.504 213.37 162.831 212.722 162.102 212.141C161.826 211.862 161.554 211.58 161.281 211.298C159.016 208.93 156.876 206.442 154.975 203.776C153.131 201.19 151.466 198.491 149.88 195.74C148.269 192.942 147.202 189.856 145.593 187.079C145.558 187.023 145.512 186.975 145.456 186.939C145.401 186.903 145.338 186.88 145.272 186.872C145.207 186.863 145.14 186.87 145.078 186.89C145.015 186.911 144.958 186.945 144.91 186.991C144.413 187.506 144.092 188.077 144.153 188.677L143.904 188.714C143.81 187.807 142.972 187.069 141.835 187.268C140.132 187.562 138.732 187.674 137.259 187.109C137.518 185.393 137.756 183.674 137.993 181.951C138.423 178.78 138.823 175.601 139.166 172.421C140.012 172.625 140.837 172.908 141.63 173.267C142.788 173.779 143.857 174.473 144.797 175.322C145.712 176.162 146.344 177.294 147.462 177.878C148.747 178.547 150.298 177.441 149.921 175.991C149.156 173.059 144.833 171.38 142.158 170.826C141.239 170.637 140.3 170.552 139.361 170.574C139.678 167.568 139.932 164.556 140.122 161.54C142.217 160.906 144.424 160.729 146.593 161.02C147.306 161.588 148.02 162.148 148.71 162.716C151.1 164.68 153.469 166.67 155.816 168.687C157.095 169.785 158.691 168.696 158.475 167.142C156.718 154.402 164.538 144.267 173.694 136.414C183.829 127.72 202.255 126.709 214.309 111.647C219.86 112.776 232.255 116.125 237.368 124.257C244.529 135.656 243.594 145.868 244.14 158.797C244.684 171.736 246.071 185.231 243.127 197.989C240.411 209.753 233.058 219.805 221.651 224.425C221.369 224.539 221.083 224.65 220.797 224.758C214.898 226.977 208.461 227.605 202.255 226.437C195.388 225.141 189.654 222.004 183.941 218.146C183.611 217.927 183.129 218.377 183.378 218.707C190.909 228.666 205.701 231.994 217.434 229.364C217.984 229.241 218.528 229.107 219.071 228.959C216.445 236.491 216.974 244.759 220.393 252.093C222.449 256.505 225.584 260.323 229.404 263.336C233.614 266.654 238.836 269.333 241.757 273.992C244.432 278.26 243.638 283.054 239.059 285.52C237.904 286.144 237.459 288.162 238.604 289.049C239.042 289.385 239.478 289.728 239.926 290.064C242.49 291.995 249.534 295.621 250.674 295.755C260.802 296.954 267.613 289.532 271.977 280.779C277.102 270.502 275.77 257.98 270.124 248.193C265.594 240.342 256.673 232.605 260.22 222.668C261.485 219.119 264.072 216.094 266.587 213.359C269.454 210.246 272.535 207.332 275.286 204.109C278.017 200.908 280.44 197.425 281.793 193.41C283.768 187.54 282.785 181.192 281.302 175.332C278.122 162.753 273.993 150.341 269.595 138.14Z" fill="#3C4048"/>
<path fill-rule="evenodd" clip-rule="evenodd" d="M212.861 203.815C210.58 202.887 208.592 201.36 207.105 199.396C206.592 198.713 206.459 197.993 206.567 197.335C206.687 196.594 207.127 195.922 207.726 195.471C208.327 195.019 209.079 194.797 209.805 194.91C210.436 195.01 211.066 195.354 211.563 196.069L211.666 196.212C212.532 197.395 213.673 198.35 214.989 198.995C216.264 199.62 217.69 199.871 219.102 199.718C221.869 199.405 223.776 197.911 225.804 195.884C226.055 195.627 226.305 195.364 226.559 195.095C226.707 194.867 226.928 194.697 227.185 194.613C227.467 194.523 227.771 194.527 228.05 194.626C228.326 194.72 228.564 194.9 228.731 195.14C228.886 195.368 228.973 195.65 228.945 195.973C228.76 198.076 227.659 199.952 226.094 201.424C224.357 203.06 222.055 204.191 219.887 204.589C217.498 205.025 215.065 204.712 212.861 203.815ZM221.013 171.389C223.555 172.93 227.426 176.525 224.693 180.346C221.475 183.716 216.842 179.852 214.56 178.105C212.443 176.752 210.064 180.234 212.029 181.816C228.524 194.004 235.219 171.793 222.299 169.577C220.876 169.333 220.348 170.913 221.013 171.389ZM191.452 157.211C191.734 153.733 197.04 152.944 197.568 156.384C198.042 159.467 197.485 162.299 196.093 165.075C194.764 167.726 191.422 166.489 191.17 164.075C190.831 160.839 191.277 159.374 191.452 157.211ZM231.853 155.671C232.594 154.704 233.662 154.043 234.941 154.417C238.941 155.583 237.762 161.249 236.357 164.007C235.595 165.504 233.128 165.884 232.013 164.566C230.195 162.416 229.325 158.121 231.636 156.003C231.698 155.892 231.768 155.782 231.853 155.671ZM196.037 141.993L196.669 141.882C198.622 141.545 201.052 141.22 202.435 142.789C203.168 143.621 203.421 145.166 202.435 145.961C200.701 147.363 198.785 146.82 196.707 146.938C195.012 147.034 193.333 147.32 191.701 147.789C188.082 148.821 185.135 150.705 182.045 152.774C181.64 153.046 181.226 152.527 181.419 152.149C183.203 148.662 186.66 145.798 190.123 144.053C191.97 143.121 193.992 142.347 196.037 141.993ZM228.207 140.431L228.692 140.53C233.952 141.627 240.789 143.82 243.281 148.978C243.376 149.708 243.275 149.863 243.193 149.965L243.166 149.999C243.1 150.087 243.046 150.208 242.729 150.307L242.462 150.24C241.32 149.941 240.416 149.529 239.542 149.103L238.594 148.636C237.493 148.098 236.382 147.579 235.206 147.195C232.697 146.375 230.112 145.806 227.49 145.495C226.922 145.429 226.374 145.237 225.941 144.909C225.508 144.584 225.202 144.119 225.076 143.592C224.891 142.851 224.944 142.29 225.343 141.62C225.642 141.117 226.072 140.77 226.565 140.569C227.087 140.363 227.658 140.316 228.207 140.431Z" fill="#3C4048"/>
</g>
<defs>
<clipPath id="clip0_263_15">
<rect width="391" height="391" fill="white"/>
</clipPath>
</defs>
</svg>
