<svg width="391" height="391" viewBox="0 0 391 391" fill="none" xmlns="http://www.w3.org/2000/svg">
<g clip-path="url(#clip0_263_16)">
<rect width="391" height="391" fill="#E8E8E8"/>
<path fill-rule="evenodd" clip-rule="evenodd" d="M71.817 516.455C71.8737 520.314 72.2619 529.176 73.2311 532.911C62.4231 515.617 46.2282 496.714 43.7656 475.533C44.5336 475.323 47.9397 475.009 48.5334 474.564C54.1258 477.157 53.0674 469.176 53.8935 465.485C56.1265 457.669 60.8149 449.981 62.8524 442.113C68.2082 439.802 57.4541 438.822 55.8899 438.776C62.3863 431.556 65.3745 421.631 69.9992 413.209C76.7945 398.895 82.8814 384.263 88.3152 369.402C89.4963 378.717 89.7232 388.128 88.9924 397.49C86.758 437.597 71.6654 476.161 71.817 516.455ZM446.923 445.21C443.561 445.774 437.959 446.308 434.602 446.583C439.007 443.962 452.025 438.968 443.822 434.479C441.291 433.558 438.578 434.873 436.026 435.279C425.433 437.021 412.353 436.929 401.637 436.052C405.543 432.851 410.686 428.24 414.499 424.928C416.525 423.168 418.489 422.501 416.211 419.872C412.194 416.136 405.009 418.888 400.365 420.528C387.552 427.695 373.085 435.468 359.333 440.982C359.189 439.058 359.278 436.572 357.42 435.279C351.971 432.716 347.96 433.466 342.162 432.783C335.403 431.771 329.397 430.622 322.705 428.837C318.327 425.504 315.659 415.676 308.66 416.775C314.859 401.201 305.409 384.952 301.86 370.039C297.431 354.778 295.103 338.927 295.041 323.06C294.997 297.652 280.257 278.159 258.958 265.122C250.562 259.462 244.923 245.692 234.527 242.935C233.205 237.871 233.126 235.647 231.964 230.543C231.382 229.078 230.948 221.124 229.483 221.394C227.866 213.515 219.629 210.356 212.502 208.706C203.234 206.789 190.301 204.466 181.97 209.877C179.557 211.882 178.497 215.238 178.32 218.236C177.393 222.229 175.467 226.365 173.223 229.829C169.393 228.537 171.561 226.13 167.772 225.569C133.179 220.451 94.7818 245.786 72.337 270.502C31.6541 312.211 -0.847666 369.149 4.47272 428.593C3.04167 428.384 -3.29887 427.39 -3.20677 429.391C-2.89789 438.091 -1.29398 445.346 -0.851915 454.038C-1.29115 465.554 10.6914 466.941 19.3485 469.78C18.8158 503.191 30.9726 536.608 50.0013 564.071C54.6246 569.475 61.5616 588.227 69.9992 580.758C70.9938 579.596 63.2831 571.552 61.9088 569.566C57.226 563.677 44.8155 534.525 53.586 528.701C55.5356 534.995 74.4142 565.255 77.7807 548.08C82.2509 550.67 89.6371 552.437 94.9802 552.169C105.024 557.602 114.799 563.469 124.446 569.566C128.94 578.376 135.53 586.837 141.051 595.296C102.838 683.42 65.5388 828.465 16.3618 911.467C12.0743 916.888 35.6625 926.101 39.8281 928.09C31.861 941.006 30.8635 955.973 24.8021 969.881C23.6473 969.694 22.4827 969.939 21.4413 970.496C13.9644 975.551 11.142 993.649 10.7155 1002.57C11.0612 1006.55 9.58199 1012.57 12.8082 1015.5C12.3657 1016 12.018 1016.57 11.7824 1017.19C9.51256 1018.96 9.79169 1022.86 11.0045 1025.27C15.275 1034.12 46.4832 1033.3 56.6096 1035.19C92.4836 1038.23 122.592 1038.7 158.462 1035.39C162.864 1034.47 159.535 1027.61 157.361 1025.75C158.364 1025.14 159.008 1024.03 158.567 1022.6C150.413 999.314 120.942 1000.89 103.107 988.456C107.797 985.749 104.771 986.611 101.825 987.665C98.6658 985.694 95.6613 983.485 92.8378 981.057C95.0028 979.722 93.9345 978.841 91.5938 979.959C87.9043 977.005 85.0308 972.438 80.3296 971.006C75.7262 969.881 75.7262 967.914 75.7262 966.676C78.4664 955.677 81.4589 944.398 82.9976 933.243C84.6384 935.659 98.7958 916.3 101.825 911.467C113.595 892.856 113.563 874.518 121.799 854.279C138.714 810.204 173.361 717.831 194.489 675.679C243.927 756.108 219.847 864.884 250.345 950.65C251.7 953.225 254.249 962.889 257.778 960.102C259.151 960.422 260.609 960.595 261.916 960.779C261.539 970.154 260.836 979.506 259.274 988.782C257.822 989.166 256.587 989.928 255.946 991.26C253.499 989.465 248.812 1015.94 248.411 1018.64C248.406 1022.11 245.402 1029.86 248.145 1031.93C244.192 1033.54 243.546 1039.51 246.326 1042.58C254.58 1053.65 294.813 1050.61 309.656 1052.47C328.425 1052 406.946 1059.02 412.398 1041.24C413.482 1037.18 411.624 1032.06 407.846 1030.5C409.357 1026.97 405.736 1023.57 403.52 1021.1C390.456 1007.53 370.369 1005.39 352.976 999.491C353.624 998.828 330.271 986.881 325.209 983.928C325.543 979.917 317.194 983.939 317.171 983.928C313.19 976.904 310.37 965.975 307.701 958.397C312.627 956.872 324.496 955.518 326.695 950.65C333.765 948.282 326.674 938.045 325.209 933.243C283.765 829.719 323.085 699.136 261.916 601.426C273.129 595.014 285.991 580.984 274.917 569.214C272.699 566.385 267.278 557.576 267.368 559.113C265.308 550.727 260.708 536.279 259.274 527.799C254.014 496.66 257.462 467.498 261.916 436.052C268.1 459.714 289.414 479.428 311.097 490.239C319.558 493.726 330.732 500.921 340.022 498.651C348.408 496.174 363.635 478.989 365.43 470.735C389.873 473.637 415.252 471.308 438.61 463.637C441.61 462.505 445.158 462.601 444.231 458.352C443.306 454.746 436.713 455.666 433.878 456.336C438.211 453.937 449.461 453.309 449.374 447.04C449.228 445.732 448.262 444.985 446.923 445.21Z" fill="#E8E8E8"/>
<path fill-rule="evenodd" clip-rule="evenodd" d="M178.405 212.907C178.777 213.058 179.031 213.622 179.181 214.47C179.595 214.599 179.949 214.904 180.055 215.364C180.37 216.716 180.003 218.126 179.721 219.473L179.688 219.629C179.421 220.933 179.093 222.231 178.694 223.501L178.636 223.823C177.662 229.078 175.786 234.074 173.584 233.226L174.093 234.151C182.736 249.813 207.427 291.867 226.703 285.873C237.929 281.38 237.768 266.777 236.947 256.615C228.612 261.719 227.053 222.646 228.762 218.327C230.122 217.328 230.778 226.317 231.284 227.557C232.389 232.486 233.744 237.353 235.015 242.243C237.693 242.772 240.236 243.838 242.492 245.377C242.599 245.438 242.71 245.494 242.815 245.558C244.162 246.377 245.215 247.423 246.153 248.58C247.214 249.763 248.121 251.061 248.977 252.393C250.86 254.528 252.653 256.743 254.508 258.902C255.384 259.92 256.285 260.915 257.21 261.888L257.92 262.483L258.277 262.777C279.573 276.054 294.317 295.917 294.358 321.79C294.422 337.954 296.748 354.098 301.177 369.644C304.727 384.833 316.193 400.359 309.995 416.221C316.994 415.102 317.644 424.088 322.022 427.483L323.397 427.854C329.546 429.506 335.187 430.885 341.478 431.844C347.275 432.538 353.979 431.774 359.428 434.387C361.286 435.702 360.621 438.077 360.766 440.036C374.516 434.42 386.866 426.661 399.679 419.361L400.108 419.208C404.85 417.528 413.311 415.001 417.207 418.692C419.485 421.369 417.184 423.759 415.158 425.553C411.347 428.926 407.302 432.021 403.397 435.283C413.921 436.16 424.48 435.46 434.888 433.755L435.456 433.66C438.007 433.246 441.013 432.255 443.544 433.194C451.746 437.765 442.255 443.102 437.851 445.772C441.224 445.493 444.583 445.069 447.919 444.501C449.257 444.273 450.223 445.033 450.37 446.364C450.455 452.751 442.029 453.096 437.696 455.538L438.044 455.456C440.877 454.801 444.949 454.226 445.838 457.751C446.764 462.079 440.921 463.828 437.923 464.98C414.564 472.794 389.187 475.166 364.746 472.211C362.952 480.618 347.723 498.123 339.338 500.645C330.049 502.957 318.876 495.629 310.414 492.078C288.731 481.066 268.643 462.9 262.46 438.798C257.263 476.169 259.362 513.844 267.164 550.614C268.426 553.48 269.759 556.302 271.258 559.053C271.712 559.125 272.094 559.427 272.182 560.039C272.229 560.373 272.297 560.699 272.374 561.021C273.865 563.553 275.502 565.985 277.021 568.503C277.334 569.023 277.644 569.563 277.928 570.117C288.04 582.024 275.715 597.369 264.693 603.788C325.858 703.315 286.352 828.739 327.795 934.189L327.887 934.489C329.46 939.503 334.25 949.827 327.322 952.19C325.121 957.149 314.037 957.736 309.112 959.289C311.78 967.006 314.748 974.64 318.728 981.794L318.8 981.827C320.386 980.662 323.786 979.459 325.191 980.729C325.533 980.771 325.873 980.868 326.206 981.032C328.381 982.112 330.13 984.175 332.21 985.474C333.335 986.175 334.505 986.814 335.709 987.371C336.83 987.89 338.02 988.231 338.936 989.087C339.225 989.356 339.297 989.699 339.226 990.015C339.949 990.389 340.67 990.765 341.388 991.141L341.779 990.898C348.135 986.943 353.248 984.801 344.001 992.397C347.314 993.927 350.711 995.264 354.132 996.518C356.729 995.27 359.5 994.361 362.36 994.236C362.872 994.871 358.943 997.322 358.296 997.998C375.688 1004.01 394.819 1008.72 407.881 1022.54L408.027 1022.7C410.25 1025.21 413.685 1028.6 412.207 1032.11C415.984 1033.71 417.843 1038.92 416.758 1043.06C411.307 1061.16 327.741 1054.02 308.973 1054.49C294.131 1052.6 253.899 1055.7 245.646 1044.42C242.866 1041.29 243.512 1035.21 247.465 1033.57C244.72 1031.46 247.724 1023.57 247.731 1020.03L247.794 1019.62C248.214 1016.98 250.035 1006.62 251.925 999.388C251.965 998.818 252.04 998.234 252.132 997.645L252.191 997.272C252.567 994.966 253.144 992.621 254.636 990.766C255.707 989.434 257.192 988.612 258.803 988.315C259.233 985.56 259.588 982.799 259.892 980.033C260.106 976.781 260.188 973.524 260.152 970.265C260.135 968.62 260.087 966.975 260.008 965.332C259.949 964.121 260.018 962.685 259.711 961.448C259.507 961.658 259.215 961.77 258.888 961.658C258.193 961.421 257.554 960.983 256.917 960.623C256.893 960.61 256.874 960.595 256.853 960.579C253.45 962.787 250.987 953.343 249.664 950.78C219.168 863.422 243.247 762.886 193.81 680.962C186.985 695.59 181.121 709.008 174.552 723.737C154.036 769.734 128.71 850.757 111.725 899.461C107.104 909.417 101.672 919.039 95.2154 927.93C93.1524 930.267 91.7667 933.705 88.7785 934.962L88.5178 935.002C87.7201 936.489 86.6135 937.743 84.9671 937.701C84.5536 937.689 84.1416 937.646 83.7344 937.573C82.275 947.708 80.4416 957.907 78.0031 967.88L78.3318 967.743C79.9287 967.084 81.6063 966.523 83.2456 966.669C87.2213 967.675 85.7492 971.146 82.6066 972.291C86.5172 973.505 89.1667 976.929 92.0713 979.778C94.5254 978.456 97.2769 977.77 100.218 978.059C100.669 978.103 101.012 978.3 101.25 978.571C101.418 978.571 101.583 978.581 101.739 978.606L101.418 978.799C101.94 979.676 101.567 981.012 100.218 981.019C99.1586 981.025 98.1384 981.121 97.1523 981.303C96.4679 981.702 95.7864 982.106 95.1148 982.528C97.3843 984.521 99.7775 986.368 102.28 988.058C103.611 987.382 104.998 986.819 106.424 986.376C108.289 985.794 109.102 988.754 107.231 989.291C106.832 989.404 106.438 989.53 106.047 989.666L105.663 989.899L105.383 990.065C123.216 1002.73 153.36 1001.12 161.514 1024.84C161.785 1025.73 161.644 1026.51 161.266 1027.11C163.033 1028.73 163.849 1031.64 163.451 1033.88L163.485 1034.06C163.788 1035.87 163.352 1037.46 161.408 1037.87C148.439 1039.08 135.502 1039.84 122.476 1040.08L121.425 1040.09C102.763 1040.21 11.9935 1039.54 7.90017 1027.57C6.80776 1025.35 6.47055 1021.91 8.0702 1019.94C8.2544 1018.87 8.61995 1017.91 9.26888 1017.15C6.63915 1014.5 7.93276 1007.81 7.61113 1004.44C8.1878 993.203 10.4718 981.15 17.3508 971.951C17.448 971.82 17.5837 971.723 17.739 971.672C18.9564 970.435 20.5913 969.697 22.324 969.602L22.4926 969.183C23.8953 965.878 25.2272 962.512 26.552 959.131C27.5392 955.296 28.5508 951.468 29.5869 947.646C30.6124 943.839 31.616 940.025 32.5978 936.206C33.3799 933.161 34.0529 929.73 35.4061 926.821C35.3692 926.696 35.3352 926.573 35.2927 926.448L33.8857 925.879C24.6619 922.134 10.0453 915.817 13.256 911.646C47.4779 840.625 80.9757 739.516 112.379 665.888C112.867 664.441 113.394 663.007 113.958 661.588C115.345 658.126 116.751 654.671 118.174 651.224L119.033 649.156L132.715 616.278C134.146 612.836 135.761 609.413 136.889 605.858C137.977 602.432 138.269 599.024 136.203 595.907C134.354 593.119 131.748 590.809 129.664 588.189C128.046 586.172 126.547 584.061 125.175 581.869C123.924 580.222 122.88 578.336 121.948 576.817C120.453 574.385 118.553 571.69 117.467 568.877C116.07 567.996 114.667 567.121 113.261 566.253C110.826 564.901 108.443 563.458 106.115 561.929C103.177 560.182 100.219 558.47 97.2401 556.793C96.1633 556.26 95.0879 555.729 94.0096 555.199C90.7805 555.479 81.8599 551.503 78.8207 548.814C78.474 548.744 78.1291 548.666 77.7863 548.579C77.6475 550.296 77.085 551.852 75.7772 553.005C67.0691 557.321 55.9707 537.777 52.9116 531.255C46.8332 537.186 61.3378 566.522 66.022 572.52L66.2714 572.891C67.5253 574.767 68.8388 576.873 70.6169 578.258L70.7955 578.394C72.014 579.296 72.2407 580.701 71.246 581.884C62.8085 589.493 53.9502 572.785 49.3269 567.282C30.2996 539.308 18.1414 505.269 18.6755 471.239C10.0184 468.347 -1.96414 466.933 -1.52491 455.204C-1.96698 446.35 -3.56946 437.591 -3.88118 428.731C-3.97186 426.692 2.3701 427.704 3.80114 427.919C1.69283 407.56 4.87797 386.89 10.5597 367.325C25.4737 317.259 86.8926 227.024 147.344 223.766C147.29 223.667 147.315 223.535 147.451 223.5C150.187 222.79 153.211 222.904 156.022 222.993C158.949 223.085 161.924 223.106 164.835 223.436C167.852 223.778 171.047 224.886 173.073 227.076L173.776 225.811C174.59 224.335 175.375 222.843 175.968 221.213C176.268 220.39 176.505 219.536 176.719 218.673C176.961 217.443 177.022 216.162 177.606 215.044C177.621 215.016 177.64 214.992 177.657 214.963C177.866 214.259 178.106 213.571 178.405 212.907ZM252.6 1033.53C251.735 1034.4 250.238 1034.79 248.91 1034.37C244.502 1046.87 268.419 1046.09 276.096 1046.79C284.281 1047.67 433.379 1055.41 408.164 1037.07C378.581 1048.33 279.638 1049.57 252.6 1033.53ZM325.21 983.93C323.22 985.978 320.219 986.891 318.083 988.846C312.048 993.945 307.193 1001.12 298.851 1002.47C287.893 1004.51 278.013 999.11 268.211 994.834C266.989 994.774 265.717 994.26 264.466 993.879C264.421 993.97 264.377 994.06 264.327 994.144C264.263 994.118 264.196 994.099 264.127 994.089C264.018 994.07 263.916 994.059 263.808 994.043C263.562 993.847 263.297 993.675 263.018 993.53C262.854 993.504 262.689 993.486 262.523 993.475C260.503 993.352 258.31 993.821 257.013 995.493C256.904 995.637 256.801 995.786 256.704 995.939C256.077 998.162 255.996 1000.85 256.299 1002.73C256.397 1003.35 256.14 1003.95 255.707 1004.3C255.319 1013.61 254.27 1022.95 253.538 1032.13C257.201 1033.45 260.976 1034.44 264.816 1035.08C291.092 1038.31 317.648 1039.81 344.126 1039C359.889 1038.43 375.627 1037.02 391.226 1034.68C396.268 1034.21 401.43 1032.26 406.468 1033.05C406.684 1032.64 407.018 1032.3 407.483 1032.06C394.567 1014.4 372.49 1009.63 353.245 1001.88C350.065 1003.91 348.109 1008.14 344.568 1009.4C343.193 1009.6 341.282 1008.79 341.483 1007.05C342.054 1003.49 345.911 1001.86 348.508 999.792C345.712 998.496 342.98 997.067 340.321 995.51C337.702 997.867 334.603 999.66 332.15 1002.17C333.544 1005.57 327.732 1005.28 327.667 1001.66C328.07 997.66 334.419 995.967 337.254 993.634C332.825 990.942 328.869 987.547 325.21 983.93ZM13.161 1018.9C12.9854 1019.23 12.7143 1019.51 12.3818 1019.69C11.7357 1020.07 12.046 1022.04 12.0786 1022.71L12.0814 1022.75C12.1168 1023.95 12.1905 1025.14 12.2939 1026.33C13.3849 1027.31 14.7791 1028.06 16.3278 1028.51C63.4985 1036.02 111.576 1036.63 159.202 1033.9C158.983 1032.64 158.058 1031.6 157.238 1030.54C127.129 1033.1 96.2965 1030.43 66.1368 1027.93C48.5051 1025.62 30.0318 1024.66 13.161 1018.9ZM81.8372 972.645C74.0628 975.318 66.8296 979.026 59.9379 983.468C57.3776 985.131 54.9335 987.038 51.9892 987.992C41.7976 991.055 26.5166 976.341 26.2714 976.176C22.7321 973.797 18.9788 976.015 17.0532 979.313C16.8747 979.618 13.9219 996.486 14.0126 1004.75C13.4827 1007.56 14.8953 1012.15 14.1429 1015.21C14.7352 1015.92 15.5782 1016.26 16.145 1017C16.3504 1017.27 16.2924 1017.57 16.1152 1017.8C43.6395 1020.06 71.0023 1024.36 98.657 1025.26C117.585 1026.26 136.547 1026.03 155.478 1025.8C151.171 1013.18 136.5 1009.84 125.296 1005.68C116.848 1002.65 109.016 998.119 102.177 992.306C99.2025 994.39 96.8575 997.312 94.7506 1000.25C93.7928 1001.44 91.8262 1002.34 90.8018 1000.69C89.7448 998.973 91.8078 996.805 94.3525 994.906C95.6945 992.938 97.3779 991.226 99.3229 989.851C97.1686 987.949 95.1133 985.938 93.1652 983.826C89.1455 986.547 86.1913 990.458 83.2994 994.256C81.9109 995.769 79.3109 993.767 80.4515 992.061C81.3654 990.885 82.3926 989.8 83.4935 988.784C85.1541 985.657 87.543 982.771 90.4419 980.771L90.2209 980.491C87.7994 977.388 85.7067 973.666 81.8372 972.645ZM13.341 1016.92C13.2739 1017 13.2029 1017.08 13.1285 1017.15C13.1951 1017.29 13.2475 1017.43 13.2843 1017.58L13.9913 1017.63C13.7437 1017.42 13.526 1017.18 13.341 1016.92ZM306.526 959.8C292.106 962.518 277.209 963.563 262.654 961.319C264.34 970.704 265.395 980.149 264.843 989.682C286.605 995.955 295.647 1006.42 313.755 985.511C312.879 984.18 312.375 982.547 311.787 980.972C309.285 974.137 307.217 967.067 306.526 959.8ZM41.6616 929.013C41.5592 929.249 41.4069 929.46 41.2151 929.631C41.0234 929.803 40.7967 929.93 40.5508 930.006C40.361 930.848 40.1617 931.688 39.9528 932.525C39.6 936.849 37.9649 941.137 36.2746 945.127C36.1584 945.402 36.0451 945.677 35.9303 945.953C34.8152 949.271 33.6463 952.582 32.493 955.898C31.6187 959.341 30.8494 962.814 30.046 966.275C29.8907 968.623 29.5553 970.954 29.0429 973.25C29.0197 973.353 28.9894 973.453 28.9522 973.551C29.7584 973.909 30.5362 974.326 31.2702 974.745C53.3494 991.309 49.5352 980.234 70.736 970.962C70.6141 970.071 71.0604 969.266 71.4246 968.345L71.4713 968.223L71.5379 968.049C71.502 967.67 71.5288 967.288 71.6172 966.918C73.7638 958.149 76.7534 949.533 79.5518 940.953C79.9995 939.66 80.5181 938.398 81.048 937.138C67.6061 936.966 54.3115 933.392 41.6616 929.013ZM125.019 573.683C246.975 725.519 220.256 743.424 246.515 918.471C249.067 932.097 254.25 945.03 257.68 958.397L258.154 958.352C258.623 958.307 259.069 958.278 259.401 958.385L259.413 958.39L260.765 958.373C276.543 958.156 292.39 957.333 307.801 953.741C313.25 952.785 318.562 950.279 324.016 949.754C324.037 949.047 324.373 948.387 324.831 948.004C282.768 848.668 312.075 735.192 275.581 634.167C272.117 624.058 267.993 614.172 263.726 604.377C216.823 632.376 164.403 600.668 125.019 573.683ZM35.8467 933.273C35.586 934.419 35.3026 935.55 35.0448 936.641L34.6636 938.271C35.2049 936.624 35.6328 934.954 35.8467 933.273ZM141.386 600.573C141.468 603.082 140.86 605.614 140.038 607.975C137.406 615.539 134.032 622.91 131.013 630.329C128.964 635.363 126.932 640.406 124.881 645.44C94.4786 726.531 57.1608 835.225 20.3432 912.072C34.255 920.096 49.3995 925.759 65.1619 928.834C68.8147 930.054 79.2642 930.108 82.9622 932.042L83.8053 931.217C83.9512 927.757 87.8788 925.292 89.4515 922.257C96.5501 912.272 102.208 901.354 107.341 890.258L108.18 887.823C121.827 848.146 139.636 793.525 158.4 747.352L158.979 745.926C166.755 726.883 171.867 709.328 181.251 694.923C181.763 694.148 182.28 693.371 182.801 692.595C183.185 691.826 183.572 691.056 183.966 690.29C185.648 687.015 187.463 683.81 189.174 680.551C189.904 679.162 190.628 677.594 191.012 675.989C176.105 649.843 158.34 625.405 141.386 600.573ZM163.713 225.906C159.034 227.042 154.24 227.506 149.536 228.448C117.108 232.309 92.2456 255.268 70.8309 278.063C30.2628 320.603 6.6604 372.945 8.40316 432.104C22.8893 434.74 37.2268 438.597 51.9864 439.44C49.8426 436.195 53.4344 432.137 54.6714 429.031C76.0209 387.851 92.5063 342.39 105.892 299.035L105.527 300.927C101.325 322.686 96.4282 344.354 88.9556 365.256C91.1206 363.131 126.68 334.895 123.902 344.232C113.037 352.71 100.765 359.427 89.3821 367.207C102.918 412.347 83.349 458.086 79.6311 503.245C78.696 513.286 78.7782 523.397 77.5228 533.4C77.0453 534.531 77.5483 536.832 76.8455 537.909C77.3655 540.564 78.4608 542.982 80.7207 545.055C81.6725 545.918 82.7039 546.688 83.801 547.356C86.5271 547.767 89.2645 548.816 91.4833 549.786C96.4226 551.946 100.768 555.128 105.183 558.17L105.301 558.249C112.419 561.901 119.529 566.048 126.666 570.373L126.985 570.541C129.64 571.932 132.353 573.186 134.667 575.114C134.762 575.194 134.838 575.295 134.888 575.409L139.224 578.081C173.946 599.475 209.746 620.63 250.454 605.361C261.893 600.761 278.52 591.443 276.385 577.033C275.964 575.651 275.323 574.352 274.599 573.09C274.398 572.819 274.193 572.552 273.983 572.288C272.405 570.298 270.639 568.472 269.271 566.321C268.715 565.453 268.216 564.551 267.776 563.619C267.607 563.567 267.452 563.478 267.321 563.36C267.191 563.241 267.087 563.095 267.019 562.932C265.06 558.666 263.141 554.393 261.353 550.05C239.682 474.626 265.986 393.589 273.428 317.516C273.943 313.16 274.703 308.759 274.701 304.371C274.701 304.166 275 304.173 275.016 304.371C277.641 323.788 275.651 343.385 273.154 362.713C269.959 386.893 265.762 410.973 262.878 435.196C270.544 459.613 292.017 477.258 314.563 487.837C318.398 489.655 322.322 491.28 326.32 492.706L326.589 492.798C330.983 494.334 335.942 496.706 340.181 493.596C348.317 488.084 354.061 479.673 359.333 471.573C357.202 471.339 355.066 471.146 352.927 470.995C347.679 476.988 341.249 482.075 334.464 486.232C331.698 487.815 328.557 487.146 327.279 484.049C326.072 481.126 327.55 477.712 328.619 474.894L328.774 474.483C334.189 459.904 343.592 446.542 356.288 437.413C346.71 435.501 336.761 435.559 327.571 431.78C328.072 432.306 327.415 432.894 327.096 433.34C327.21 434.204 326.581 434.836 325.808 435.067C318.31 444.846 312.628 456.428 311.441 468.831C311.757 473.055 307.971 477.935 304.324 473.499C301.472 461.152 312.691 441.855 322.555 434.237C312.662 427.458 315.546 417.676 309.336 417.632C307.732 420.707 305.638 423.651 302.998 425.935C301.805 426.903 300.357 427.634 299.076 428.493C297.73 429.397 296.327 427.409 297.394 426.316L297.676 425.979C301.726 421.143 306.536 416.388 307.372 409.845C308.582 401.787 304.955 393.623 302.173 386.263C296.853 372.163 293.296 357.459 291.584 342.487C289.633 329.062 292.006 315.137 287.402 302.147C286.523 298.682 285.233 295.335 283.558 292.176C283.518 292.144 283.481 292.109 283.446 292.071C281.532 289.86 280.002 287.4 278.217 285.083C276.345 282.661 274.329 280.354 272.181 278.173C268.598 274.528 264.642 271.486 260.517 268.557C260.437 268.528 260.359 268.492 260.286 268.448C259.498 267.973 258.752 267.433 258.056 266.831L257.987 266.783C255.588 265.118 253.141 263.313 251.269 261.053C249.431 258.836 248.124 256.25 246.623 253.806C244.573 251.309 242.619 248.634 240.145 246.553C238.747 245.755 237.292 245.004 236.043 244.008C235.838 243.921 235.63 243.84 235.42 243.764C235.951 245.931 236.756 247.923 237.481 250.122C238.533 249.68 239.969 250.17 240.147 251.785L240.212 252.389C241.267 262.283 241.8 274.256 235.972 282.822C223.137 301.399 203.967 285.538 194.272 272.476C185.571 262.058 178.256 250.469 172.855 238.015L172.765 237.85C171.759 235.945 169.579 230.132 168.964 227.34C167.405 226.522 165.511 226.126 163.713 225.906ZM122.622 572.146C122.584 572.194 122.539 572.237 122.49 572.274C124.311 574.855 126.045 577.524 127.832 580.115C126.367 577.723 124.99 575.314 123.77 572.877C123.389 572.632 123.005 572.39 122.622 572.146ZM20.7484 471.88C27.7053 509.581 37.6461 549.246 65.3476 577.434C56.7258 565.312 50.0212 551.162 48.0715 536.34C47.9908 532.361 49.4417 528.16 53.851 527.571C54.6034 527.47 55.1758 528.143 55.4436 528.741L55.4705 528.801C57.215 532.942 59.4508 536.858 62.1298 540.466L62.392 540.807C64.4082 543.409 72.9619 554.013 74.1563 548.945C73.2821 523.32 46.7524 512.756 42.4069 477.466C34.9739 476.679 27.9207 473.861 20.7484 471.88ZM77.7821 546.662C77.8104 547.064 77.8246 547.463 77.8175 547.855C78.2116 547.693 78.6175 547.561 79.0318 547.461C78.611 547.202 78.1958 546.934 77.7821 546.662ZM77.3868 543.901C77.5327 544.637 77.656 545.38 77.7311 546.115C78.4891 546.356 79.2372 546.62 79.9839 546.893C78.995 546.009 78.1223 545.004 77.3868 543.901ZM87.6393 368.994C82.2056 384.132 76.1201 399.036 69.3233 413.616C64.761 422.148 61.7161 432.089 55.4025 439.493C55.3416 439.553 55.2792 439.607 55.2155 439.658L55.3203 439.662C57.2019 439.746 67.4247 440.75 62.178 443.057C60.1391 451.071 57.4697 458.902 55.2381 466.862L55.1885 467.093C54.3724 470.944 53.3395 478.7 47.859 476.111C47.2639 476.565 46.5512 476.884 45.7833 477.097C48.2472 498.674 61.9187 512.719 72.7267 530.335C70.3109 521.038 71.0165 511.329 71.8581 501.838L72.0664 499.501C76.5324 455.977 92.92 413.179 87.6393 368.994ZM133.028 507.342C124.219 496.383 80.8936 387.878 111.511 453.614C122.393 476.498 131.35 500.997 149.302 519.54C150.543 520.872 148.908 523.211 147.296 522.136C141.501 518.273 136.811 513.151 133.028 507.342ZM101.671 376.197C101.634 376.021 101.861 375.925 101.96 376.075C113.731 399.271 122.136 424.197 135.436 446.69C143.47 460.632 153.099 473.592 164.131 485.307C164.96 486.187 163.713 487.401 162.815 486.62C131.322 457.622 116.011 415.469 101.671 376.197ZM333.787 471.691L333.768 471.695L333.478 472.442L333.179 473.205L333.323 473.144C333.427 473.04 333.53 472.935 333.634 472.824C333.609 472.44 333.661 472.055 333.787 471.691ZM3.92583 428.829C2.32759 429.455 0.362378 429.574 -1.40447 429.727C0.573493 439.032 2.28225 448.407 4.07318 457.737C4.90206 460.601 6.84885 461.607 9.54234 462.515L11.7102 463.206C21.8196 466.44 31.9871 469.759 42.4125 471.743C43.1451 471.267 44.1865 471.29 44.6724 472.053C45.1797 472.1 45.7011 472.128 46.2154 472.177C49.001 461.911 53.7674 451.962 60.1448 443.447C42.3176 444.02 24.3615 439.328 7.40144 434.081C6.71425 434.414 5.81028 434.206 5.51982 433.419L5.25911 433.344C2.41118 432.501 -1.36338 430.43 4.6201 431.482C4.2588 430.641 4.0576 429.737 3.92583 428.829ZM413.86 421.233C402.042 419.283 393.011 428.839 382.926 433.225C376.888 435.81 360.797 443.828 354.946 441.161C346.926 448.866 340.154 457.868 335.419 467.969C336.709 467.893 338.001 467.835 339.293 467.794C341.651 467.037 344.183 467.014 346.554 467.728C370.874 467.994 395.208 472.711 419.429 466.733L419.987 466.63C424.962 465.687 441.948 462.104 442.916 458.593C442.663 457.064 438.095 458.678 437.216 458.852C430.235 460.224 423.142 460.878 416.069 461.566C414.101 461.755 414.127 458.702 416.069 458.508C424.583 457.662 432.651 454.471 440.464 451.153C441.294 450.786 443.494 450.024 445.017 449.036C437.798 450.262 430.36 450.474 423.056 450.214C420.541 449.889 420.364 446.078 423.056 446.153C427.987 446.697 432.698 444.267 436.723 441.702L437.599 441.136C444.309 436.77 443.84 436.58 435.36 438.203C422.9 440.468 410.29 440.383 397.705 439.52C395.91 439.489 394.67 437.078 396.155 435.785C401.95 430.792 408.162 426.339 413.86 421.233ZM356.74 439.418L356.603 439.547C356.314 439.825 356.076 440.07 355.944 440.201L355.89 440.251C355.712 440.419 355.539 440.592 355.363 440.76C356.135 441.019 356.988 441.034 357.867 440.898C357.332 440.548 356.935 440.026 356.74 439.418ZM134.728 399.485L134.698 399.45L134.765 399.52C142.366 407.73 150.071 421.043 156.369 431.542C157.2 440.147 138.579 404.444 134.728 399.485ZM326.014 431.21C326.087 431.303 326.158 431.396 326.226 431.492L326.328 431.637L326.491 431.536C326.55 431.503 326.614 431.477 326.68 431.461C326.457 431.38 326.235 431.294 326.014 431.21ZM291.232 403.186C298.071 404.258 284.085 412.739 282.241 413.953C281.058 414.402 269.819 423.663 270.5 420.656C275.763 413.915 283.023 406.058 291.232 403.186ZM23.6771 385.414C26.2077 381.348 39.9741 386.701 44.3267 387.342C46.7723 387.986 49.1923 388.749 51.6662 389.291C53.5974 389.989 62.6073 389.312 59.3003 393.123C55.8502 394.974 51.346 393.543 47.8123 392.561C40.7831 390.645 33.7285 388.409 26.5307 387.345C26.3139 387.238 26.3012 387.31 26.4911 387.565C28.0397 390.998 31.2943 394.22 34.964 395.326C35.2176 395.4 35.1099 395.787 34.8535 395.722L34.6069 395.669C30.4824 394.751 21.5688 390.393 23.6771 385.414Z" fill="#3C4048"/>
<path fill-rule="evenodd" clip-rule="evenodd" d="M269.883 155.548C269.749 148.024 269.601 140.352 268.48 132.902C267.385 125.619 264.371 119.035 259.191 113.746C248.19 102.513 232.245 99.7681 217.4 97.2531L192.022 92.9543C184.28 91.6423 176.02 89.5467 168.197 91.4057C164.343 92.3224 161.07 94.452 158.078 96.9712C155.195 99.3983 152.095 102.005 150.139 105.273C148.183 108.544 147.51 112.367 146.873 116.068C146.155 120.239 145.598 124.442 145.201 128.655C144.408 137.102 144.299 145.6 144.876 154.064C145.155 158.168 145.598 162.26 146.165 166.333C146.445 168.352 146.763 170.367 147.121 172.375C147.228 172.967 147.308 173.623 147.416 174.285C146.615 176.557 146.161 178.909 146.197 181.253C146.305 188.154 152.143 192.5 158.027 194.832C161.439 196.185 165.007 197.105 168.359 198.615C171.886 200.205 174.286 202.782 176.697 205.721C181.296 211.328 186.486 216.366 192.412 220.57C204.977 229.482 220.89 233.697 236.134 230.498C239.792 229.73 243.482 228.538 246.77 226.742C250.24 224.846 252.852 222.097 255.044 218.848C259.113 212.817 262.032 206.026 264.241 199.114C266.492 192.064 268.09 185 268.963 177.65C269.832 170.322 270.014 162.92 269.883 155.548Z" fill="#E8E8E8"/>
<path fill-rule="evenodd" clip-rule="evenodd" d="M188.898 66.7478C199.401 65.3054 213.896 69.9925 219.126 79.4388C244.095 73.5644 275.59 73.3717 296.17 92.9289C317.644 116.127 290.671 146.715 272.786 153.612C274.088 159.927 272.058 200.388 257.69 218.436C246.289 233.727 219.736 240.784 207.451 222.52L207.354 222.369C206.038 220.26 207.172 220.328 208.523 221.896C220.554 232.455 236.912 232.636 249.518 221.492C273.143 201.126 270.706 151.187 259.464 122.297C227.454 118.787 193.181 128.47 171.072 152.517L172.567 161.5C172.821 163.03 173.111 164.559 173.331 166.095C173.472 167.078 173.488 168.057 172.805 168.854C170.549 171.484 166.748 167.532 163.621 165.961C162.709 165.825 161.785 165.786 160.865 165.844C145.838 167.776 148.799 196.868 165.315 191.769C166.703 190.906 167.894 191.17 168.433 192.421C172.37 196.02 174.966 202.438 181.506 208.62C183.814 210.938 185.914 212.878 188.51 214.738C190.034 216.277 194.635 217.845 193.176 220.479C190.418 226.47 174.155 207.649 171.281 202.445C162.271 205.996 152.287 204.789 142.951 203.922C93.6979 201.366 100.274 149.553 140.645 116.84C148.244 111.258 156.629 106.704 165.344 103.198C166.534 102.72 166.014 100.77 164.807 101.256C159.019 103.577 153.42 106.344 148.059 109.53L148.052 107.621C148.044 104.404 148.095 101.053 148.654 98.1133C148.935 96.0758 149.405 93.9009 150.129 92.2644C151.026 87.2458 165.063 70.0222 188.898 66.7478ZM160.208 172.524C160.969 171.802 162.388 172.662 163.065 172.641C164.795 172.878 166.441 173.607 167.724 174.507C168.409 174.888 169.057 175.333 169.66 175.835L169.674 175.831C169.67 175.831 169.665 175.835 169.661 175.836L169.708 175.867C170.43 176.379 173.074 179.264 171.404 178.487C171.281 178.328 171.153 178.172 171.023 178.02C171.007 178.042 170.988 178.062 170.967 178.081L171.061 178.219C172.481 180.35 170.029 178.105 169.653 177.508C169.634 177.524 169.614 177.532 169.594 177.544L170.086 178.14L170.253 178.35L170.357 178.449C171.997 180.058 172.05 181.508 170.143 179.128C170.217 179.226 170.266 179.342 170.286 179.463L170.399 179.608C171.897 181.533 170.678 180.849 169.935 180.027L169.872 179.956L169.885 179.976C170.578 181.04 169.203 180.294 168.961 179.724L168.951 179.699C168.686 179.483 168.523 179.241 168.468 179.18L168.458 179.17C167.17 177.854 165.304 176.74 163.719 176.233C163.488 176.19 163.255 176.155 163.022 176.129C162.069 175.918 161.103 175.773 160.131 175.694C160.012 175.68 159.89 175.592 159.801 175.479C158.327 175.43 158.782 174.827 159.393 174.715L159.404 174.714L159.282 174.704C158.337 174.612 157.693 174.273 158.648 174.065L158.77 174.041C158.754 174.019 158.741 173.995 158.728 173.972C157.909 173.882 158.444 173.089 158.898 173.28C158.707 172.657 159.581 172.968 159.69 172.876C159.773 172.784 159.876 172.702 159.936 172.698C160.199 172.512 160.072 172.529 160.208 172.524ZM165.216 162.427L165.024 162.539C164.876 162.625 164.716 162.688 164.549 162.724C164.776 162.821 164.998 162.924 165.219 163.035C165.216 162.9 165.214 162.765 165.213 162.629L165.216 162.427Z" fill="#3C4048"/>
<path fill-rule="evenodd" clip-rule="evenodd" d="M240.09 203.558C237.61 204.274 234.951 204.338 232.423 203.599C230.132 202.927 227.779 201.451 226.093 199.495C224.594 197.76 223.623 195.65 223.661 193.397C223.663 193.163 223.747 192.936 223.899 192.758C224.055 192.58 224.263 192.455 224.494 192.402C224.726 192.346 224.97 192.367 225.189 192.463C225.39 192.553 225.553 192.713 225.646 192.913C225.906 193.253 226.163 193.587 226.423 193.913C228.507 196.48 230.526 198.4 233.66 199.089C235.36 199.463 237.058 199.297 238.616 198.726C240.305 198.095 241.805 197.043 242.975 195.671C243.507 195.051 244.138 194.797 244.754 194.793C245.453 194.788 246.144 195.112 246.664 195.63C247.176 196.139 247.517 196.83 247.548 197.554C247.577 198.189 247.368 198.852 246.816 199.444C244.984 201.394 242.661 202.815 240.09 203.558ZM240.013 171.39C242.555 172.932 246.426 176.525 243.693 180.346C240.475 183.716 235.842 179.853 233.56 178.106C231.443 176.752 229.065 180.234 231.029 181.816C247.524 194.004 254.219 171.793 241.299 169.578C239.876 169.333 239.349 170.913 240.013 171.39ZM216.244 164.608C215.428 164.086 214.467 163.908 213.402 164.391C212.57 164.768 211.11 166.027 210.096 167.682C209.4 168.814 208.907 170.142 209.011 171.525C209.025 171.661 209.006 171.798 208.957 171.926C208.908 172.053 208.829 172.167 208.727 172.259C208.556 172.411 208.342 172.506 208.114 172.531C207.901 172.558 207.662 172.534 207.468 172.473C207.098 172.358 206.902 172.118 206.829 171.923C206.117 170.038 206.423 167.936 207.221 166.037C208.297 163.477 210.249 161.332 211.528 160.64C213.719 159.457 216.302 159.402 218.495 160.609C220.361 161.635 221.529 163.293 222.691 164.982C222.937 165.34 223.182 165.697 223.435 166.047C223.942 166.748 223.993 167.444 223.796 168.041C223.579 168.702 223.024 169.261 222.329 169.552C222.008 169.693 221.661 169.767 221.31 169.773C220.959 169.778 220.611 169.713 220.285 169.582C219.728 169.348 219.218 168.892 218.895 168.117C218.351 166.812 217.444 165.373 216.244 164.608ZM257.722 167.511C257.162 167.801 256.724 167.889 256.105 167.703C255.748 167.595 255.422 167.401 255.157 167.138C254.892 166.88 254.708 166.549 254.63 166.187C254.449 165.293 253.958 164.456 253.26 163.91C252.957 163.665 252.605 163.487 252.228 163.389C251.851 163.29 251.458 163.272 251.074 163.337C250.171 163.487 249.312 164.063 248.72 164.745C248.522 164.972 248.367 165.231 248.211 165.487C247.92 165.968 247.636 166.415 247.234 166.768C247.065 166.912 246.851 166.992 246.629 166.995C246.537 166.995 246.447 166.98 246.36 166.952C245.463 166.054 245.29 165.371 245.318 164.695C245.349 163.986 245.629 163.267 246.082 162.597C247.145 161.024 249.162 159.736 250.524 159.443C252.387 159.043 254.239 159.524 255.724 160.562C257.251 161.632 258.383 163.293 258.736 165.163C258.821 165.614 258.784 166.1 258.613 166.522C258.444 166.934 258.152 167.287 257.722 167.511ZM220.356 147.844C219.236 148.933 217.913 149.101 216.573 149.25C215.829 149.335 215.235 149.403 214.65 149.533C213.042 149.896 211.453 150.442 210.004 151.227C208.489 152.048 206.839 153.037 205.65 154.307C205.37 154.611 205.098 154.923 204.835 155.242C204.591 155.531 204.358 155.81 204.111 156.079C203.828 156.388 203.559 156.711 203.291 157.033C203.125 157.306 203.092 157.373 203.058 157.442C202.915 157.746 202.754 158.039 202.574 158.322C202.387 158.634 202.286 158.72 202.201 158.759C202.073 158.822 201.931 158.849 201.789 158.837C201.656 158.815 201.533 158.755 201.435 158.664C200.859 158.181 200.691 157.386 200.708 156.541C200.733 155.26 201.206 153.844 201.643 152.972C202.657 150.947 204.064 148.842 205.756 147.332C207.686 145.606 209.797 144.299 212.223 143.4C213.73 142.84 215.476 142.327 217.118 142.392C218.3 142.439 219.428 142.789 220.36 143.665C220.932 144.203 221.207 144.967 221.207 145.73C221.207 146.51 220.921 147.295 220.356 147.844ZM259.997 157.807C259.932 157.915 259.834 158.001 259.718 158.052C259.603 158.1 259.476 158.115 259.352 158.094C259.229 158.073 259.114 158.018 259.021 157.934C258.927 157.849 258.862 157.737 258.835 157.614C258.091 154.358 256.649 151.935 253.572 150.374C252.057 149.604 250.316 149.117 248.666 148.727C248.187 148.614 247.682 148.542 247.171 148.466C245.575 148.234 243.965 147.968 242.924 146.678C242.296 145.902 242.032 144.909 242.181 144.002C242.252 143.552 242.43 143.125 242.7 142.758C242.97 142.391 243.324 142.094 243.733 141.892C245.997 140.723 248.812 141.871 251.101 142.849L251.599 143.06C253.836 144.003 255.877 145.247 257.554 147.025C258.886 148.437 260.119 150.524 260.615 152.67C261.029 154.456 260.931 156.279 259.997 157.807Z" fill="#3C4048"/>
<path fill-rule="evenodd" clip-rule="evenodd" d="M210.036 205.919C212.76 199.55 218.706 194.869 225.553 193.158C230.58 191.904 235.855 191.943 240.98 192.442C243.665 192.7 246.545 192.912 249.076 193.907C251.236 194.757 252.998 196.364 254.321 198.251C255.897 200.486 256.969 203.044 257.721 205.667C257.829 206.04 257.93 206.415 258.023 206.792C257.696 208.77 257 210.455 255.164 211.699C253.373 212.913 251.235 213.41 249.104 213.586C248.901 213.491 248.702 213.388 248.508 213.277C245.186 211.38 242.848 206.897 238.657 207.503C234.915 208.045 232.453 212.743 230.228 215.497C223.087 216.328 215.952 214.185 210.143 210.11C209.856 208.731 209.82 207.311 210.036 205.919ZM262.876 201.088C262.306 199.488 261.588 197.945 260.732 196.479C257.904 191.635 253.598 187.825 248.447 185.607C236.293 180.413 220.565 184.074 210.749 192.592C207.395 195.505 204.006 199.784 202.98 204.386C202.674 204.447 202.385 204.606 202.147 204.83C195.056 200.374 187.752 196.086 182.037 189.91C177.887 185.423 175 180.111 173.233 174.275C173.088 173.794 172.312 173.864 172.335 174.397L172.356 174.769C172.282 174.54 171.932 174.657 171.905 174.88C170.955 181.97 169.764 189.486 170.86 196.613C171.516 200.865 173.451 203.98 176.038 207.34C178.811 210.945 181.95 214.296 185.159 217.511C187.195 219.551 189.323 221.903 191.815 223.399C194.716 225.138 198.006 226.46 201.102 227.8C204.247 229.179 207.45 230.423 210.702 231.528C217.211 233.727 223.939 235.246 230.784 235.912C236.266 236.443 242.528 237.021 247.782 234.964C251.807 233.387 255.056 230.538 257.634 227.107C260.44 223.372 262.658 219.119 263.885 214.632C265.159 209.972 263.145 201.839 262.876 201.088Z" fill="#3C4048"/>
</g>
<defs>
<clipPath id="clip0_263_16">
<rect width="391" height="391" fill="white"/>
</clipPath>
</defs>
</svg>
